SplineFontDB: 3.2
FontName: FiraSans-ExtraLightItalic
FullName: Fira Sans ExtraLight Italic
FamilyName: Fira Sans ExtraLight
Weight: Light
Copyright: Digitized data copyright 2012-2016, The Mozilla Foundation and Telefonica S.A.
Version: 4.203
ItalicAngle: -8
UnderlinePosition: -100
UnderlineWidth: 50
Ascent: 800
Descent: 200
InvalidEm: 0
sfntRevision: 0x000433f7
LayerCount: 2
Layer: 0 1 "Back" 1
Layer: 1 1 "Fore" 0
XUID: [1021 84 1630469933 15799604]
StyleMap: 0x0001
FSType: 0
OS2Version: 4
OS2_WeightWidthSlopeOnly: 0
OS2_UseTypoMetrics: 1
CreationTime: 1476948552
ModificationTime: 1480667555
PfmFamily: 17
TTFWeight: 275
TTFWidth: 5
LineGap: 0
VLineGap: 0
Panose: 2 11 4 3 5 0 0 2 0 4
OS2TypoAscent: 935
OS2TypoAOffset: 0
OS2TypoDescent: -265
OS2TypoDOffset: 0
OS2TypoLinegap: 0
OS2WinAscent: 935
OS2WinAOffset: 0
OS2WinDescent: 265
OS2WinDOffset: 0
HheadAscent: 935
HheadAOffset: 0
HheadDescent: -265
HheadDOffset: 0
OS2SubXSize: 650
OS2SubYSize: 600
OS2SubXOff: -11
OS2SubYOff: 75
OS2SupXSize: 650
OS2SupYSize: 600
OS2SupXOff: 49
OS2SupYOff: 350
OS2StrikeYSize: 50
OS2StrikeYPos: 313
OS2CapHeight: 684
OS2XHeight: 522
OS2Vendor: 'CTDB'
OS2CodePages: 2000019f.00000000
OS2UnicodeRanges: 600002ff.00000001.00000000.00000000
Lookup: 1 0 0 "'aalt' Access All Alternates lookup 0" { "'aalt' Access All Alternates lookup 0 subtable"  } ['aalt' ('DFLT' <'dflt' > 'cyrl' <'dflt' > 'grek' <'dflt' > 'latn' <'AFK ' 'CAT ' 'EWE ' 'MOL ' 'PLK ' 'ROM ' 'TRK ' 'dflt' > ) ]
Lookup: 3 0 0 "'aalt' Access All Alternates lookup 1" { "'aalt' Access All Alternates lookup 1 subtable"  } ['aalt' ('DFLT' <'dflt' > 'cyrl' <'dflt' > 'grek' <'dflt' > 'latn' <'AFK ' 'CAT ' 'EWE ' 'MOL ' 'PLK ' 'ROM ' 'TRK ' 'dflt' > ) ]
Lookup: 1 0 0 "'locl' Localized Forms in Latin lookup 2" { "'locl' Localized Forms in Latin lookup 2 subtable"  } ['locl' ('latn' <'TAT ' > ) ]
Lookup: 1 0 0 "'locl' Localized Forms in Latin lookup 3" { "'locl' Localized Forms in Latin lookup 3 subtable"  } ['locl' ('latn' <'TRK ' > ) ]

StartChar: .notdef
Encoding: 65536 -1 0
Width: 664
GlyphClass: 1
Flags: W
LayerCount: 2
Fore
SplineSet
653 1050 m 1,0,-1
 455 -350 l 1,1,-1
 36 -350 l 1,2,-1
 234 1050 l 1,3,-1
 653 1050 l 1,0,-1
591 998 m 1,4,-1
 281 998 l 1,5,-1
 98 -298 l 1,6,-1
 408 -298 l 1,7,-1
 591 998 l 1,4,-1
422.5 425.5 m 128,-1,9
 446 400 446 400 446 359 c 0,10,11
 446 351 446 351 444 333 c 0,12,13
 437 281 437 281 411 253 c 128,-1,14
 385 225 385 225 334 218 c 1,15,-1
 327 171 l 2,16,17
 326 161 326 161 318 155 c 128,-1,18
 310 149 310 149 301 149 c 0,19,20
 290 149 290 149 283 156.5 c 128,-1,21
 276 164 276 164 277 175 c 2,22,-1
 288 257 l 1,23,24
 341 260 341 260 363 278 c 128,-1,25
 385 296 385 296 391 337 c 0,26,27
 392 344 392 344 392 357 c 0,28,29
 392 379 392 379 381 391 c 128,-1,30
 370 403 370 403 342 403 c 0,31,32
 325 403 325 403 313 400.5 c 128,-1,33
 301 398 301 398 288 391 c 1,34,-1
 275 389 l 2,35,36
 263 389 263 389 256.5 396.5 c 128,-1,37
 250 404 250 404 252 415 c 0,38,39
 254 433 254 433 284 442 c 128,-1,40
 314 451 314 451 347 451 c 0,41,8
 399 451 399 451 422.5 425.5 c 128,-1,9
315 111 m 128,-1,43
 324 102 324 102 324 88 c 0,44,45
 324 71 324 71 313 59.5 c 128,-1,46
 302 48 302 48 287 48 c 256,47,48
 272 48 272 48 263.5 57.5 c 128,-1,49
 255 67 255 67 255 82 c 0,50,51
 255 98 255 98 265.5 109 c 128,-1,52
 276 120 276 120 292 120 c 0,53,42
 306 120 306 120 315 111 c 128,-1,43
EndSplineSet
EndChar

StartChar: A
Encoding: 65 65 3
Width: 560
GlyphClass: 2
Flags: W
AnchorPoint: "Anchor-18" 0 0 basechar 0
AnchorPoint: "Anchor-17" 0 0 basechar 0
AnchorPoint: "Anchor-16" 340 684 basechar 0
AnchorPoint: "Anchor-15" 502 0 basechar 0
AnchorPoint: "Anchor-14" 243 0 basechar 0
LayerCount: 2
Fore
SplineSet
454 0 m 1,0,-1
 418 192 l 1,1,-1
 122 192 l 1,2,-1
 32 0 l 1,3,-1
 -17 0 l 1,4,-1
 310 684 l 1,5,-1
 369 684 l 1,6,-1
 503 0 l 1,7,-1
 454 0 l 1,0,-1
142 234 m 1,8,-1
 410 234 l 1,9,-1
 334 645 l 1,10,-1
 142 234 l 1,8,-1
EndSplineSet
Substitution2: "Single Substitution lookup 44 subtable" ordfeminine
Substitution2: "'c2sc' Capitals to Small Capitals lookup 27 subtable" a.sc
AlternateSubs2: "'aalt' Access All Alternates lookup 1 subtable" ordfeminine a.sc
Position2: "'cpsp' Capital Spacing lookup 0 subtable" dx=5 dy=0 dh=10 dv=0
EndChar

StartChar: uni1EAE
Encoding: 7854 7854 6
Width: 560
GlyphClass: 2
Flags: W
AnchorPoint: "Anchor-18" 0 0 basechar 0
AnchorPoint: "Anchor-17" 0 0 basechar 0
AnchorPoint: "Anchor-16" 363 839 basechar 0
AnchorPoint: "Anchor-15" 502 0 basechar 0
AnchorPoint: "Anchor-14" 0 0 basechar 0
LayerCount: 2
Fore
SplineSet
483 958 m 1,0,-1
 353 842 l 1,1,-1
 332 863 l 1,2,-1
 453 990 l 1,3,-1
 483 958 l 1,0,-1
272 765 m 128,-1,5
 241 792 241 792 239 832 c 1,6,-1
 271 836 l 1,7,8
 276 809 276 809 297 793.5 c 128,-1,9
 318 778 318 778 351 778 c 0,10,11
 386 778 386 778 412.5 794.5 c 128,-1,12
 439 811 439 811 452 839 c 1,13,-1
 484 829 l 1,14,15
 472 789 472 789 435 763.5 c 128,-1,16
 398 738 398 738 351 738 c 0,17,4
 303 738 303 738 272 765 c 128,-1,5
454 0 m 1,18,-1
 418 192 l 1,19,-1
 122 192 l 1,20,-1
 32 0 l 1,21,-1
 -17 0 l 1,22,-1
 310 684 l 1,23,-1
 369 684 l 1,24,-1
 503 0 l 1,25,-1
 454 0 l 1,18,-1
142 234 m 1,26,-1
 410 234 l 1,27,-1
 334 645 l 1,28,-1
 142 234 l 1,26,-1
EndSplineSet
Substitution2: "'c2sc' Capitals to Small Capitals lookup 27 subtable" uni1EAF.sc
Substitution2: "'aalt' Access All Alternates lookup 0 subtable" uni1EAF.sc
Position2: "'cpsp' Capital Spacing lookup 0 subtable" dx=5 dy=0 dh=10 dv=0
EndChar

StartChar: uni1EB0
Encoding: 7856 7856 8
Width: 560
GlyphClass: 2
Flags: W
AnchorPoint: "Anchor-18" 0 0 basechar 0
AnchorPoint: "Anchor-17" 0 0 basechar 0
AnchorPoint: "Anchor-16" 362 839 basechar 0
AnchorPoint: "Anchor-15" 502 0 basechar 0
AnchorPoint: "Anchor-14" 0 0 basechar 0
LayerCount: 2
Fore
SplineSet
380 860 m 1,0,-1
 357 842 l 1,1,-1
 258 961 l 1,2,-1
 294 990 l 1,3,-1
 380 860 l 1,0,-1
271 765 m 128,-1,5
 240 792 240 792 238 832 c 1,6,-1
 270 836 l 1,7,8
 275 809 275 809 296 793.5 c 128,-1,9
 317 778 317 778 350 778 c 0,10,11
 385 778 385 778 411.5 794.5 c 128,-1,12
 438 811 438 811 451 839 c 1,13,-1
 483 829 l 1,14,15
 471 789 471 789 434 763.5 c 128,-1,16
 397 738 397 738 350 738 c 0,17,4
 302 738 302 738 271 765 c 128,-1,5
454 0 m 1,18,-1
 418 192 l 1,19,-1
 122 192 l 1,20,-1
 32 0 l 1,21,-1
 -17 0 l 1,22,-1
 310 684 l 1,23,-1
 369 684 l 1,24,-1
 503 0 l 1,25,-1
 454 0 l 1,18,-1
142 234 m 1,26,-1
 410 234 l 1,27,-1
 334 645 l 1,28,-1
 142 234 l 1,26,-1
EndSplineSet
Substitution2: "'c2sc' Capitals to Small Capitals lookup 27 subtable" uni1EB1.sc
Substitution2: "'aalt' Access All Alternates lookup 0 subtable" uni1EB1.sc
Position2: "'cpsp' Capital Spacing lookup 0 subtable" dx=5 dy=0 dh=10 dv=0
EndChar

StartChar: uni1EB4
Encoding: 7860 7860 10
Width: 560
GlyphClass: 2
Flags: W
AnchorPoint: "Anchor-18" 0 0 basechar 0
AnchorPoint: "Anchor-17" 0 0 basechar 0
AnchorPoint: "Anchor-16" 370 955 basechar 0
AnchorPoint: "Anchor-15" 502 0 basechar 0
AnchorPoint: "Anchor-14" 0 0 basechar 0
LayerCount: 2
Fore
SplineSet
279.5 907.5 m 128,-1,1
 267 899 267 899 248 876 c 1,2,-1
 221 895 l 1,3,4
 265 955 265 955 311 955 c 0,5,6
 328 955 328 955 341.5 949 c 128,-1,7
 355 943 355 943 374 931 c 0,8,9
 389 921 389 921 400.5 915.5 c 128,-1,10
 412 910 412 910 424 910 c 0,11,12
 440 910 440 910 454.5 920.5 c 128,-1,13
 469 931 469 931 487 954 c 1,14,-1
 515 937 l 1,15,16
 474 872 474 872 425 872 c 0,17,18
 406 872 406 872 391.5 878.5 c 128,-1,19
 377 885 377 885 357 897 c 0,20,21
 343 907 343 907 332.5 911.5 c 128,-1,22
 322 916 322 916 311 916 c 0,23,0
 292 916 292 916 279.5 907.5 c 128,-1,1
412.5 794.5 m 128,-1,25
 439 811 439 811 452 839 c 1,26,-1
 484 829 l 1,27,28
 472 789 472 789 435 763.5 c 128,-1,29
 398 738 398 738 351 738 c 0,30,31
 303 738 303 738 272 765 c 128,-1,32
 241 792 241 792 239 832 c 1,33,-1
 271 836 l 1,34,35
 276 809 276 809 297 793.5 c 128,-1,36
 318 778 318 778 351 778 c 0,37,24
 386 778 386 778 412.5 794.5 c 128,-1,25
310 684 m 1,38,-1
 369 684 l 1,39,-1
 503 0 l 1,40,-1
 454 0 l 1,41,-1
 418 192 l 1,42,-1
 122 192 l 1,43,-1
 32 0 l 1,44,-1
 -17 0 l 1,45,-1
 310 684 l 1,38,-1
142 234 m 1,46,-1
 410 234 l 1,47,-1
 334 645 l 1,48,-1
 142 234 l 1,46,-1
EndSplineSet
Substitution2: "'c2sc' Capitals to Small Capitals lookup 27 subtable" uni1EB5.sc
Substitution2: "'aalt' Access All Alternates lookup 0 subtable" uni1EB5.sc
Position2: "'cpsp' Capital Spacing lookup 0 subtable" dx=5 dy=0 dh=10 dv=0
EndChar

StartChar: uni1EA4
Encoding: 7844 7844 13
Width: 560
GlyphClass: 2
Flags: W
AnchorPoint: "Anchor-18" 0 0 basechar 0
AnchorPoint: "Anchor-17" 433 713 basechar 0
AnchorPoint: "Anchor-16" 361 855 basechar 0
AnchorPoint: "Anchor-15" 502 0 basechar 0
AnchorPoint: "Anchor-14" 0 0 basechar 0
LayerCount: 2
Fore
SplineSet
583 947 m 1,0,-1
 453 831 l 1,1,-1
 432 852 l 1,2,-1
 553 979 l 1,3,-1
 583 947 l 1,0,-1
358 811 m 1,4,-1
 227 731 l 1,5,-1
 208 757 l 1,6,-1
 348 855 l 1,7,-1
 375 855 l 1,8,-1
 488 756 l 1,9,-1
 466 731 l 1,10,-1
 358 811 l 1,4,-1
310 684 m 1,11,-1
 369 684 l 1,12,-1
 503 0 l 1,13,-1
 454 0 l 1,14,-1
 418 192 l 1,15,-1
 122 192 l 1,16,-1
 32 0 l 1,17,-1
 -17 0 l 1,18,-1
 310 684 l 1,11,-1
142 234 m 1,19,-1
 410 234 l 1,20,-1
 334 645 l 1,21,-1
 142 234 l 1,19,-1
EndSplineSet
Substitution2: "'c2sc' Capitals to Small Capitals lookup 27 subtable" uni1EA5.sc
Substitution2: "'aalt' Access All Alternates lookup 0 subtable" uni1EA5.sc
Position2: "'cpsp' Capital Spacing lookup 0 subtable" dx=5 dy=0 dh=10 dv=0
EndChar

StartChar: uni1EA6
Encoding: 7846 7846 15
Width: 560
GlyphClass: 2
Flags: W
AnchorPoint: "Anchor-18" 0 0 basechar 0
AnchorPoint: "Anchor-17" 430 713 basechar 0
AnchorPoint: "Anchor-16" 358 855 basechar 0
AnchorPoint: "Anchor-15" 502 0 basechar 0
AnchorPoint: "Anchor-14" 0 0 basechar 0
LayerCount: 2
Fore
SplineSet
275 849 m 1,0,-1
 252 831 l 1,1,-1
 153 950 l 1,2,-1
 189 979 l 1,3,-1
 275 849 l 1,0,-1
224 731 m 1,4,-1
 205 757 l 1,5,-1
 345 855 l 1,6,-1
 372 855 l 1,7,-1
 485 756 l 1,8,-1
 463 731 l 1,9,-1
 355 811 l 1,10,-1
 224 731 l 1,4,-1
454 0 m 1,11,-1
 418 192 l 1,12,-1
 122 192 l 1,13,-1
 32 0 l 1,14,-1
 -17 0 l 1,15,-1
 310 684 l 1,16,-1
 369 684 l 1,17,-1
 503 0 l 1,18,-1
 454 0 l 1,11,-1
142 234 m 1,19,-1
 410 234 l 1,20,-1
 334 645 l 1,21,-1
 142 234 l 1,19,-1
EndSplineSet
Substitution2: "'c2sc' Capitals to Small Capitals lookup 27 subtable" uni1EA7.sc
Substitution2: "'aalt' Access All Alternates lookup 0 subtable" uni1EA7.sc
Position2: "'cpsp' Capital Spacing lookup 0 subtable" dx=5 dy=0 dh=10 dv=0
EndChar

StartChar: uni1EAA
Encoding: 7850 7850 17
Width: 560
GlyphClass: 2
Flags: W
AnchorPoint: "Anchor-18" 0 0 basechar 0
AnchorPoint: "Anchor-17" 429 713 basechar 0
AnchorPoint: "Anchor-16" 370 971 basechar 0
AnchorPoint: "Anchor-15" 502 0 basechar 0
AnchorPoint: "Anchor-14" 0 0 basechar 0
LayerCount: 2
Fore
SplineSet
279.5 923.5 m 128,-1,1
 267 915 267 915 248 892 c 1,2,-1
 221 911 l 1,3,4
 265 971 265 971 311 971 c 0,5,6
 328 971 328 971 341.5 965 c 128,-1,7
 355 959 355 959 374 947 c 0,8,9
 389 937 389 937 400.5 931.5 c 128,-1,10
 412 926 412 926 424 926 c 0,11,12
 440 926 440 926 454.5 936.5 c 128,-1,13
 469 947 469 947 487 970 c 1,14,-1
 515 953 l 1,15,16
 474 888 474 888 425 888 c 0,17,18
 406 888 406 888 391.5 894.5 c 128,-1,19
 377 901 377 901 357 913 c 0,20,21
 343 923 343 923 332.5 927.5 c 128,-1,22
 322 932 322 932 311 932 c 0,23,0
 292 932 292 932 279.5 923.5 c 128,-1,1
354 811 m 1,24,-1
 223 731 l 1,25,-1
 204 757 l 1,26,-1
 344 855 l 1,27,-1
 371 855 l 1,28,-1
 484 756 l 1,29,-1
 462 731 l 1,30,-1
 354 811 l 1,24,-1
310 684 m 1,31,-1
 369 684 l 1,32,-1
 503 0 l 1,33,-1
 454 0 l 1,34,-1
 418 192 l 1,35,-1
 122 192 l 1,36,-1
 32 0 l 1,37,-1
 -17 0 l 1,38,-1
 310 684 l 1,31,-1
142 234 m 1,39,-1
 410 234 l 1,40,-1
 334 645 l 1,41,-1
 142 234 l 1,39,-1
EndSplineSet
Substitution2: "'c2sc' Capitals to Small Capitals lookup 27 subtable" uni1EAB.sc
Substitution2: "'aalt' Access All Alternates lookup 0 subtable" uni1EAB.sc
Position2: "'cpsp' Capital Spacing lookup 0 subtable" dx=5 dy=0 dh=10 dv=0
EndChar

StartChar: uni2C6D
Encoding: 11373 11373 27
Width: 666
GlyphClass: 2
Flags: W
AnchorPoint: "Anchor-18" 0 0 basechar 0
AnchorPoint: "Anchor-17" 0 0 basechar 0
AnchorPoint: "Anchor-16" 393 684 basechar 0
AnchorPoint: "Anchor-15" 0 0 basechar 0
AnchorPoint: "Anchor-14" 297 0 basechar 0
LayerCount: 2
Fore
SplineSet
524 76 m 0,1,2
 524 56 524 56 531.5 43.5 c 128,-1,3
 539 31 539 31 558 23 c 1,4,-1
 545 -11 l 1,5,6
 474 6 474 6 479 83 c 1,7,8
 403 -11 403 -11 291 -11 c 0,9,10
 227 -11 227 -11 178 19.5 c 128,-1,11
 129 50 129 50 101.5 111 c 128,-1,12
 74 172 74 172 74 259 c 0,13,14
 74 366 74 366 113 466.5 c 128,-1,15
 152 567 152 567 224 630.5 c 128,-1,16
 296 694 296 694 389 694 c 0,17,18
 493 694 493 694 550 606 c 1,19,-1
 566 684 l 1,20,-1
 607 684 l 1,21,-1
 527 111 l 2,22,0
 524 92 524 92 524 76 c 0,1,2
398 56.5 m 128,-1,24
 444 82 444 82 484 137 c 1,25,-1
 543 558 l 1,26,27
 512 607 512 607 475.5 630 c 128,-1,28
 439 653 439 653 388 653 c 0,29,30
 307 653 307 653 246.5 594.5 c 128,-1,31
 186 536 186 536 154.5 444.5 c 128,-1,32
 123 353 123 353 123 259 c 0,33,34
 123 145 123 145 170 88 c 128,-1,35
 217 31 217 31 295 31 c 0,36,23
 352 31 352 31 398 56.5 c 128,-1,24
EndSplineSet
Substitution2: "'c2sc' Capitals to Small Capitals lookup 27 subtable" uni2C6D.sc
Substitution2: "'aalt' Access All Alternates lookup 0 subtable" uni2C6D.sc
Position2: "'cpsp' Capital Spacing lookup 0 subtable" dx=5 dy=0 dh=10 dv=0
EndChar

StartChar: Aogonek
Encoding: 260 260 29
Width: 560
GlyphClass: 2
Flags: W
AnchorPoint: "Anchor-18" 0 0 basechar 0
AnchorPoint: "Anchor-17" 0 0 basechar 0
AnchorPoint: "Anchor-16" 340 684 basechar 0
AnchorPoint: "Anchor-15" 502 0 basechar 0
AnchorPoint: "Anchor-14" 243 0 basechar 0
LayerCount: 2
Fore
SplineSet
386.5 -59.5 m 128,-1,1
 353 -88 353 -88 353 -124 c 0,2,3
 353 -172 353 -172 411 -172 c 0,4,5
 435 -172 435 -172 468 -166 c 1,6,-1
 460 -207 l 1,7,8
 430 -213 430 -213 405 -213 c 0,9,10
 358 -213 358 -213 333 -191.5 c 128,-1,11
 308 -170 308 -170 308 -136 c 0,12,13
 308 -88 308 -88 342 -53.5 c 128,-1,14
 376 -19 376 -19 452 11 c 1,15,-1
 418 192 l 1,16,-1
 122 192 l 1,17,-1
 32 0 l 1,18,-1
 -17 0 l 1,19,-1
 310 684 l 1,20,-1
 369 684 l 1,21,-1
 503 0 l 1,22,-1
 493 0 l 1,23,0
 420 -31 420 -31 386.5 -59.5 c 128,-1,1
142 234 m 1,24,-1
 410 234 l 1,25,-1
 334 645 l 1,26,-1
 142 234 l 1,24,-1
EndSplineSet
Substitution2: "'c2sc' Capitals to Small Capitals lookup 27 subtable" aogonek.sc
Substitution2: "'aalt' Access All Alternates lookup 0 subtable" aogonek.sc
Position2: "'cpsp' Capital Spacing lookup 0 subtable" dx=5 dy=0 dh=10 dv=0
EndChar

StartChar: uni023A
Encoding: 570 570 32
Width: 560
GlyphClass: 2
Flags: W
AnchorPoint: "Anchor-18" 0 0 basechar 0
AnchorPoint: "Anchor-17" 0 0 basechar 0
AnchorPoint: "Anchor-16" 340 684 basechar 0
AnchorPoint: "Anchor-15" 0 0 basechar 0
AnchorPoint: "Anchor-14" 244 0 basechar 0
LayerCount: 2
Fore
SplineSet
456 0 m 1,0,-1
 420 192 l 1,1,-1
 252 192 l 1,2,-1
 147 -70 l 1,3,-1
 118 -63 l 1,4,-1
 221 192 l 1,5,-1
 121 192 l 1,6,-1
 31 0 l 1,7,-1
 -17 0 l 1,8,-1
 310 684 l 1,9,-1
 369 684 l 1,10,-1
 385 600 l 1,11,-1
 443 743 l 1,12,-1
 471 735 l 1,13,-1
 396 548 l 1,14,-1
 503 0 l 1,15,-1
 456 0 l 1,0,-1
140 233 m 1,16,-1
 237 233 l 1,17,-1
 356 528 l 1,18,-1
 334 646 l 1,19,-1
 140 233 l 1,16,-1
269 233 m 1,20,-1
 412 233 l 1,21,-1
 366 475 l 1,22,-1
 269 233 l 1,20,-1
EndSplineSet
Substitution2: "'c2sc' Capitals to Small Capitals lookup 27 subtable" uni2C65.sc
Substitution2: "'aalt' Access All Alternates lookup 0 subtable" uni2C65.sc
Position2: "'cpsp' Capital Spacing lookup 0 subtable" dx=5 dy=0 dh=10 dv=0
EndChar

StartChar: AE
Encoding: 198 198 34
Width: 770
GlyphClass: 2
Flags: W
AnchorPoint: "Anchor-18" 0 0 basechar 0
AnchorPoint: "Anchor-17" 0 0 basechar 0
AnchorPoint: "Anchor-16" 509 684 basechar 0
AnchorPoint: "Anchor-15" 0 0 basechar 0
AnchorPoint: "Anchor-14" 349 0 basechar 0
LayerCount: 2
Fore
SplineSet
725 643 m 1,0,-1
 396 643 l 1,1,-1
 428 377 l 1,2,-1
 686 377 l 1,3,-1
 681 336 l 1,4,-1
 433 336 l 1,5,-1
 468 41 l 1,6,-1
 697 41 l 1,7,-1
 690 0 l 1,8,-1
 426 0 l 1,9,-1
 405 188 l 1,10,-1
 115 188 l 1,11,-1
 17 0 l 1,12,-1
 -34 0 l 1,13,-1
 327 684 l 1,14,-1
 737 684 l 1,15,-1
 725 643 l 1,0,-1
400 229 m 1,16,-1
 353 645 l 1,17,-1
 136 229 l 1,18,-1
 400 229 l 1,16,-1
EndSplineSet
Substitution2: "'c2sc' Capitals to Small Capitals lookup 27 subtable" ae.sc
Substitution2: "'aalt' Access All Alternates lookup 0 subtable" ae.sc
Position2: "'cpsp' Capital Spacing lookup 0 subtable" dx=5 dy=0 dh=10 dv=0
EndChar

StartChar: B
Encoding: 66 66 37
Width: 592
GlyphClass: 2
Flags: W
AnchorPoint: "Anchor-18" 0 0 basechar 0
AnchorPoint: "Anchor-17" 0 0 basechar 0
AnchorPoint: "Anchor-16" 338 684 basechar 0
AnchorPoint: "Anchor-15" 0 0 basechar 0
AnchorPoint: "Anchor-14" 270 0 basechar 0
LayerCount: 2
Fore
SplineSet
490.5 319.5 m 128,-1,1
 529 285 529 285 529 217 c 0,2,3
 529 161 529 161 504 112 c 128,-1,4
 479 63 479 63 419.5 31.5 c 128,-1,5
 360 0 360 0 264 0 c 2,6,-1
 77 0 l 1,7,-1
 174 684 l 1,8,-1
 336 684 l 2,9,10
 432 684 432 684 486.5 646 c 128,-1,11
 541 608 541 608 541 534 c 0,12,13
 541 464 541 464 499 418.5 c 128,-1,14
 457 373 457 373 387 362 c 1,15,0
 452 354 452 354 490.5 319.5 c 128,-1,1
215 643 m 1,16,-1
 179 380 l 1,17,-1
 321 380 l 2,18,19
 403 380 403 380 448 423.5 c 128,-1,20
 493 467 493 467 493 533 c 0,21,22
 493 643 493 643 339 643 c 2,23,-1
 215 643 l 1,16,-1
430.5 92 m 128,-1,25
 479 143 479 143 479 218 c 0,26,27
 479 280 479 280 438.5 310 c 128,-1,28
 398 340 398 340 327 340 c 2,29,-1
 173 340 l 1,30,-1
 132 41 l 1,31,-1
 268 41 l 2,32,24
 382 41 382 41 430.5 92 c 128,-1,25
EndSplineSet
Substitution2: "'c2sc' Capitals to Small Capitals lookup 27 subtable" b.sc
Substitution2: "'aalt' Access All Alternates lookup 0 subtable" b.sc
Position2: "'cpsp' Capital Spacing lookup 0 subtable" dx=5 dy=0 dh=10 dv=0
EndChar

StartChar: uniA7B4
Encoding: 42932 42932 40
Width: 592
GlyphClass: 2
Flags: W
AnchorPoint: "Anchor-18" 0 0 basechar 0
AnchorPoint: "Anchor-17" 0 0 basechar 0
AnchorPoint: "Anchor-16" 356 684 basechar 0
AnchorPoint: "Anchor-15" 0 0 basechar 0
AnchorPoint: "Anchor-14" 0 0 basechar 0
LayerCount: 2
Fore
SplineSet
492 322.5 m 128,-1,1
 530 289 530 289 530 223 c 0,2,3
 530 156 530 156 498.5 105.5 c 128,-1,4
 467 55 467 55 410.5 27.5 c 128,-1,5
 354 0 354 0 281 0 c 0,6,7
 200 0 200 0 129 29 c 1,8,-1
 98 -195 l 1,9,-1
 50 -195 l 1,10,-1
 174 684 l 1,11,-1
 336 684 l 2,12,13
 432 684 432 684 486.5 646 c 128,-1,14
 541 608 541 608 541 532 c 0,15,16
 541 462 541 462 500.5 418 c 128,-1,17
 460 374 460 374 393 362 c 1,18,0
 454 356 454 356 492 322.5 c 128,-1,1
425.5 90.5 m 128,-1,20
 480 140 480 140 480 223 c 0,21,22
 480 283 480 283 440 311.5 c 128,-1,23
 400 340 400 340 330 340 c 2,24,-1
 253 340 l 1,25,-1
 264 380 l 1,26,-1
 327 380 l 2,27,28
 405 380 405 380 449 420.5 c 128,-1,29
 493 461 493 461 493 531 c 0,30,31
 493 643 493 643 339 643 c 2,32,-1
 215 643 l 1,33,-1
 134 66 l 1,34,35
 205 41 205 41 281 41 c 0,36,19
 371 41 371 41 425.5 90.5 c 128,-1,20
EndSplineSet
Substitution2: "'c2sc' Capitals to Small Capitals lookup 27 subtable" uniA7B4.sc
Substitution2: "'aalt' Access All Alternates lookup 0 subtable" uniA7B4.sc
Position2: "'cpsp' Capital Spacing lookup 0 subtable" dx=5 dy=0 dh=10 dv=0
EndChar

StartChar: uni0181
Encoding: 385 385 41
Width: 645
GlyphClass: 2
Flags: W
AnchorPoint: "Anchor-18" 0 0 basechar 0
AnchorPoint: "Anchor-17" 0 0 basechar 0
AnchorPoint: "Anchor-16" 390 684 basechar 0
AnchorPoint: "Anchor-15" 0 0 basechar 0
AnchorPoint: "Anchor-14" 322 0 basechar 0
LayerCount: 2
Fore
SplineSet
542.5 319.5 m 128,-1,1
 581 285 581 285 581 217 c 0,2,3
 581 161 581 161 556 112 c 128,-1,4
 531 63 531 63 471.5 31.5 c 128,-1,5
 412 0 412 0 316 0 c 2,6,-1
 129 0 l 1,7,-1
 220 644 l 1,8,-1
 194 644 l 2,9,10
 150 644 150 644 128.5 620.5 c 128,-1,11
 107 597 107 597 107 558 c 0,12,13
 107 542 107 542 110 529.5 c 128,-1,14
 113 517 113 517 119 500 c 1,15,-1
 82 483 l 1,16,17
 72 502 72 502 66.5 520 c 128,-1,18
 61 538 61 538 61 560 c 0,19,20
 61 615 61 615 97.5 649.5 c 128,-1,21
 134 684 134 684 200 684 c 2,22,-1
 388 684 l 2,23,24
 484 684 484 684 538.5 646 c 128,-1,25
 593 608 593 608 593 534 c 0,26,27
 593 464 593 464 551 418.5 c 128,-1,28
 509 373 509 373 439 362 c 1,29,0
 504 354 504 354 542.5 319.5 c 128,-1,1
267 643 m 1,30,-1
 231 380 l 1,31,-1
 373 380 l 2,32,33
 455 380 455 380 500 423.5 c 128,-1,34
 545 467 545 467 545 533 c 0,35,36
 545 643 545 643 391 643 c 2,37,-1
 267 643 l 1,30,-1
482.5 92 m 128,-1,39
 531 143 531 143 531 218 c 0,40,41
 531 280 531 280 490.5 310 c 128,-1,42
 450 340 450 340 379 340 c 2,43,-1
 225 340 l 1,44,-1
 184 41 l 1,45,-1
 320 41 l 2,46,38
 434 41 434 41 482.5 92 c 128,-1,39
EndSplineSet
Substitution2: "'ss02' Style Set 2 lookup 35 subtable" uni0181.ss02
Substitution2: "'c2sc' Capitals to Small Capitals lookup 27 subtable" uni0253.sc
AlternateSubs2: "'aalt' Access All Alternates lookup 1 subtable" uni0253.sc uni0181.ss02
Position2: "'cpsp' Capital Spacing lookup 0 subtable" dx=5 dy=0 dh=10 dv=0
EndChar

StartChar: uni0243
Encoding: 579 579 42
Width: 599
GlyphClass: 2
Flags: W
AnchorPoint: "Anchor-18" 0 0 basechar 0
AnchorPoint: "Anchor-17" 0 0 basechar 0
AnchorPoint: "Anchor-16" 345 684 basechar 0
AnchorPoint: "Anchor-15" 0 0 basechar 0
AnchorPoint: "Anchor-14" 277 0 basechar 0
LayerCount: 2
Fore
SplineSet
497.5 319.5 m 128,-1,1
 536 285 536 285 536 217 c 0,2,3
 536 161 536 161 511 112 c 128,-1,4
 486 63 486 63 426.5 31.5 c 128,-1,5
 367 0 367 0 271 0 c 2,6,-1
 84 0 l 1,7,-1
 109 177 l 1,8,-1
 20 177 l 1,9,-1
 26 216 l 1,10,-1
 115 216 l 1,11,-1
 181 684 l 1,12,-1
 343 684 l 2,13,14
 439 684 439 684 493.5 646 c 128,-1,15
 548 608 548 608 548 534 c 0,16,17
 548 464 548 464 506 418.5 c 128,-1,18
 464 373 464 373 394 362 c 1,19,0
 459 354 459 354 497.5 319.5 c 128,-1,1
222 643 m 1,20,-1
 186 380 l 1,21,-1
 328 380 l 2,22,23
 410 380 410 380 455 423.5 c 128,-1,24
 500 467 500 467 500 533 c 0,25,26
 500 643 500 643 346 643 c 2,27,-1
 222 643 l 1,20,-1
437.5 92 m 128,-1,29
 486 143 486 143 486 218 c 0,30,31
 486 280 486 280 445.5 310 c 128,-1,32
 405 340 405 340 334 340 c 2,33,-1
 180 340 l 1,34,-1
 163 216 l 1,35,-1
 345 216 l 1,36,-1
 339 177 l 1,37,-1
 158 177 l 1,38,-1
 139 41 l 1,39,-1
 275 41 l 2,40,28
 389 41 389 41 437.5 92 c 128,-1,29
EndSplineSet
Substitution2: "'c2sc' Capitals to Small Capitals lookup 27 subtable" uni0180.sc
Substitution2: "'aalt' Access All Alternates lookup 0 subtable" uni0180.sc
Position2: "'cpsp' Capital Spacing lookup 0 subtable" dx=5 dy=0 dh=10 dv=0
EndChar

StartChar: C
Encoding: 67 67 44
Width: 545
GlyphClass: 2
Flags: W
AnchorPoint: "Anchor-18" 0 0 basechar 0
AnchorPoint: "Anchor-17" 0 0 basechar 0
AnchorPoint: "Anchor-16" 401 684 basechar 0
AnchorPoint: "Anchor-15" 0 0 basechar 0
AnchorPoint: "Anchor-14" 304 0 basechar 0
LayerCount: 2
Fore
SplineSet
493.5 678.5 m 128,-1,1
 532 663 532 663 565 632 c 1,2,-1
 537 603 l 1,3,4
 505 630 505 630 474.5 641.5 c 128,-1,5
 444 653 444 653 402 653 c 0,6,7
 305 653 305 653 242.5 592 c 128,-1,8
 180 531 180 531 152 440.5 c 128,-1,9
 124 350 124 350 124 260 c 0,10,11
 124 148 124 148 174 90.5 c 128,-1,12
 224 33 224 33 308 33 c 0,13,14
 358 33 358 33 394.5 47.5 c 128,-1,15
 431 62 431 62 469 91 c 1,16,-1
 494 56 l 1,17,18
 409 -11 409 -11 305 -11 c 0,19,20
 200 -11 200 -11 137.5 60 c 128,-1,21
 75 131 75 131 75 261 c 0,22,23
 75 361 75 361 109 460.5 c 128,-1,24
 143 560 143 560 216.5 627 c 128,-1,25
 290 694 290 694 401 694 c 0,26,0
 455 694 455 694 493.5 678.5 c 128,-1,1
EndSplineSet
Substitution2: "'c2sc' Capitals to Small Capitals lookup 27 subtable" c.sc
Substitution2: "'aalt' Access All Alternates lookup 0 subtable" c.sc
Position2: "'cpsp' Capital Spacing lookup 0 subtable" dx=5 dy=0 dh=10 dv=0
EndChar

StartChar: Ccedilla
Encoding: 199 199 47
Width: 545
GlyphClass: 2
Flags: W
AnchorPoint: "Anchor-18" 0 0 basechar 0
AnchorPoint: "Anchor-17" 0 0 basechar 0
AnchorPoint: "Anchor-16" 401 684 basechar 0
AnchorPoint: "Anchor-15" 0 0 basechar 0
AnchorPoint: "Anchor-14" 302 -223 basechar 0
LayerCount: 2
Fore
SplineSet
242.5 592 m 128,-1,1
 180 531 180 531 152 440.5 c 128,-1,2
 124 350 124 350 124 260 c 0,3,4
 124 148 124 148 174 90.5 c 128,-1,5
 224 33 224 33 308 33 c 0,6,7
 358 33 358 33 394.5 47.5 c 128,-1,8
 431 62 431 62 469 91 c 1,9,-1
 494 56 l 1,10,11
 415 -7 415 -7 318 -11 c 1,12,-1
 308 -67 l 1,13,14
 392 -73 392 -73 392 -137 c 0,15,16
 392 -176 392 -176 361.5 -199.5 c 128,-1,17
 331 -223 331 -223 284 -223 c 0,18,19
 239 -223 239 -223 208 -201 c 1,20,-1
 227 -172 l 1,21,22
 251 -187 251 -187 284 -187 c 0,23,24
 313 -187 313 -187 331 -174.5 c 128,-1,25
 349 -162 349 -162 349 -138 c 0,26,27
 349 -115 349 -115 331 -105 c 128,-1,28
 313 -95 313 -95 267 -95 c 1,29,-1
 285 -10 l 1,30,31
 189 -3 189 -3 132 67.5 c 128,-1,32
 75 138 75 138 75 261 c 0,33,34
 75 361 75 361 109 460.5 c 128,-1,35
 143 560 143 560 216.5 627 c 128,-1,36
 290 694 290 694 401 694 c 0,37,38
 455 694 455 694 493.5 678.5 c 128,-1,39
 532 663 532 663 565 632 c 1,40,-1
 537 603 l 1,41,42
 505 630 505 630 474.5 641.5 c 128,-1,43
 444 653 444 653 402 653 c 0,44,0
 305 653 305 653 242.5 592 c 128,-1,1
EndSplineSet
Substitution2: "'c2sc' Capitals to Small Capitals lookup 27 subtable" ccedilla.sc
Substitution2: "'aalt' Access All Alternates lookup 0 subtable" ccedilla.sc
Position2: "'cpsp' Capital Spacing lookup 0 subtable" dx=5 dy=0 dh=10 dv=0
EndChar

StartChar: uniA7B3
Encoding: 42931 42931 50
Width: 497
GlyphClass: 2
Flags: W
AnchorPoint: "Anchor-18" 0 0 basechar 0
AnchorPoint: "Anchor-17" 0 0 basechar 0
AnchorPoint: "Anchor-16" 306 684 basechar 0
AnchorPoint: "Anchor-15" 0 0 basechar 0
AnchorPoint: "Anchor-14" 0 0 basechar 0
LayerCount: 2
Fore
SplineSet
515 684 m 1,0,-1
 280 317 l 1,1,-1
 433 -109 l 1,2,-1
 381 -109 l 1,3,-1
 250 285 l 1,4,-1
 14 -109 l 1,5,-1
 -40 -109 l 1,6,-1
 225 317 l 1,7,-1
 92 684 l 1,8,-1
 143 684 l 1,9,-1
 256 347 l 1,10,-1
 460 684 l 1,11,-1
 515 684 l 1,0,-1
EndSplineSet
Substitution2: "'c2sc' Capitals to Small Capitals lookup 27 subtable" uniA7B3.sc
Substitution2: "'aalt' Access All Alternates lookup 0 subtable" uniA7B3.sc
Position2: "'cpsp' Capital Spacing lookup 0 subtable" dx=5 dy=0 dh=10 dv=0
EndChar

StartChar: uni0187
Encoding: 391 391 51
Width: 547
GlyphClass: 2
Flags: W
AnchorPoint: "Anchor-18" 0 0 basechar 0
AnchorPoint: "Anchor-17" 0 0 basechar 0
AnchorPoint: "Anchor-16" 338 697 basechar 0
AnchorPoint: "Anchor-15" 0 0 basechar 0
AnchorPoint: "Anchor-14" 237 0 basechar 0
LayerCount: 2
Fore
SplineSet
754 788 m 1,1,-1
 730 759 l 1,2,3
 713 771 713 771 697.5 776.5 c 128,-1,4
 682 782 682 782 659 782 c 0,5,6
 626 782 626 782 603 761 c 128,-1,7
 580 740 580 740 574 694 c 2,8,-1
 565 632 l 1,9,-1
 540 606 l 1,10,11
 507 630 507 630 475 641.5 c 128,-1,12
 443 653 443 653 402 653 c 0,13,14
 305 653 305 653 242.5 592 c 128,-1,15
 180 531 180 531 152 440.5 c 128,-1,16
 124 350 124 350 124 260 c 0,17,18
 124 148 124 148 174 90.5 c 128,-1,19
 224 33 224 33 308 33 c 0,20,21
 358 33 358 33 394.5 47.5 c 128,-1,22
 431 62 431 62 469 91 c 1,23,-1
 494 56 l 1,24,25
 409 -11 409 -11 305 -11 c 0,26,27
 200 -11 200 -11 137.5 60 c 128,-1,28
 75 131 75 131 75 261 c 0,29,30
 75 361 75 361 109 460.5 c 128,-1,31
 143 560 143 560 216.5 627 c 128,-1,32
 290 694 290 694 400 694 c 0,33,34
 472 694 472 694 523 661 c 1,35,-1
 528 696 l 2,36,37
 536 758 536 758 570.5 790 c 128,-1,38
 605 822 605 822 658 822 c 0,39,0
 712 822 712 822 754 788 c 1,1,-1
EndSplineSet
Substitution2: "'c2sc' Capitals to Small Capitals lookup 27 subtable" uni0188.sc
Substitution2: "'aalt' Access All Alternates lookup 0 subtable" uni0188.sc
Position2: "'cpsp' Capital Spacing lookup 0 subtable" dx=5 dy=0 dh=10 dv=0
EndChar

StartChar: uni023B
Encoding: 571 571 52
Width: 545
GlyphClass: 2
Flags: W
AnchorPoint: "Anchor-18" 0 0 basechar 0
AnchorPoint: "Anchor-17" 0 0 basechar 0
AnchorPoint: "Anchor-16" 332 684 basechar 0
AnchorPoint: "Anchor-15" 0 0 basechar 0
AnchorPoint: "Anchor-14" 236 0 basechar 0
LayerCount: 2
Fore
SplineSet
463 645 m 1,1,-1
 223 52 l 1,2,3
 260 33 260 33 308 33 c 0,4,5
 358 33 358 33 394.5 47.5 c 128,-1,6
 431 62 431 62 469 91 c 1,7,-1
 494 56 l 1,8,9
 409 -11 409 -11 305 -11 c 0,10,11
 251 -11 251 -11 206 9 c 1,12,-1
 174 -70 l 1,13,-1
 145 -63 l 1,14,-1
 180 23 l 1,15,16
 130 56 130 56 102.5 116.5 c 128,-1,17
 75 177 75 177 75 261 c 0,18,19
 75 361 75 361 109 460.5 c 128,-1,20
 143 560 143 560 216.5 627 c 128,-1,21
 290 694 290 694 401 694 c 0,22,23
 430 694 430 694 450 690 c 1,24,-1
 471 743 l 1,25,-1
 499 735 l 1,26,-1
 478 684 l 1,27,28
 528 668 528 668 565 632 c 1,29,-1
 537 603 l 1,30,0
 498 635 498 635 463 645 c 1,1,-1
434 651 m 1,31,32
 414 653 414 653 402 653 c 0,33,34
 305 653 305 653 242.5 592 c 128,-1,35
 180 531 180 531 152 440.5 c 128,-1,36
 124 350 124 350 124 260 c 0,37,38
 124 125 124 125 198 67 c 1,39,-1
 434 651 l 1,31,32
EndSplineSet
Substitution2: "'c2sc' Capitals to Small Capitals lookup 27 subtable" uni023C.sc
Substitution2: "'aalt' Access All Alternates lookup 0 subtable" uni023C.sc
Position2: "'cpsp' Capital Spacing lookup 0 subtable" dx=5 dy=0 dh=10 dv=0
EndChar

StartChar: D
Encoding: 68 68 53
Width: 626
GlyphClass: 2
Flags: W
AnchorPoint: "Anchor-18" 329 342 basechar 0
AnchorPoint: "Anchor-17" 0 0 basechar 0
AnchorPoint: "Anchor-16" 357 684 basechar 0
AnchorPoint: "Anchor-15" 0 0 basechar 0
AnchorPoint: "Anchor-14" 252 0 basechar 0
LayerCount: 2
Fore
SplineSet
500 628.5 m 128,-1,1
 574 573 574 573 574 429 c 0,2,3
 574 315 574 315 538.5 218 c 128,-1,4
 503 121 503 121 423.5 60.5 c 128,-1,5
 344 0 344 0 219 0 c 2,6,-1
 77 0 l 1,7,-1
 174 684 l 1,8,-1
 305 684 l 2,9,0
 426 684 426 684 500 628.5 c 128,-1,1
215 643 m 1,10,-1
 132 41 l 1,11,-1
 226 41 l 2,12,13
 333 41 333 41 400 97.5 c 128,-1,14
 467 154 467 154 496.5 242 c 128,-1,15
 526 330 526 330 526 430 c 0,16,17
 526 555 526 555 465.5 599 c 128,-1,18
 405 643 405 643 305 643 c 2,19,-1
 215 643 l 1,10,-1
EndSplineSet
Substitution2: "'c2sc' Capitals to Small Capitals lookup 27 subtable" d.sc
Substitution2: "'aalt' Access All Alternates lookup 0 subtable" d.sc
Position2: "'cpsp' Capital Spacing lookup 0 subtable" dx=5 dy=0 dh=10 dv=0
EndChar

StartChar: Eth
Encoding: 208 208 57
Width: 630
GlyphClass: 2
Flags: W
AnchorPoint: "Anchor-18" 332 342 basechar 0
AnchorPoint: "Anchor-17" 0 0 basechar 0
AnchorPoint: "Anchor-16" 360 684 basechar 0
AnchorPoint: "Anchor-15" 0 0 basechar 0
AnchorPoint: "Anchor-14" 255 0 basechar 0
LayerCount: 2
Fore
SplineSet
503 628.5 m 128,-1,1
 577 573 577 573 577 429 c 0,2,3
 577 315 577 315 541.5 218 c 128,-1,4
 506 121 506 121 426.5 60.5 c 128,-1,5
 347 0 347 0 222 0 c 2,6,-1
 80 0 l 1,7,-1
 127 333 l 1,8,-1
 42 333 l 1,9,-1
 47 373 l 1,10,-1
 133 373 l 1,11,-1
 177 684 l 1,12,-1
 308 684 l 2,13,0
 429 684 429 684 503 628.5 c 128,-1,1
403 97.5 m 128,-1,15
 470 154 470 154 499.5 242 c 128,-1,16
 529 330 529 330 529 430 c 0,17,18
 529 555 529 555 468.5 599 c 128,-1,19
 408 643 408 643 308 643 c 2,20,-1
 218 643 l 1,21,-1
 181 373 l 1,22,-1
 366 373 l 1,23,-1
 361 333 l 1,24,-1
 175 333 l 1,25,-1
 135 41 l 1,26,-1
 229 41 l 2,27,14
 336 41 336 41 403 97.5 c 128,-1,15
EndSplineSet
Substitution2: "'c2sc' Capitals to Small Capitals lookup 27 subtable" eth.sc
Substitution2: "'aalt' Access All Alternates lookup 0 subtable" eth.sc
Position2: "'cpsp' Capital Spacing lookup 0 subtable" dx=5 dy=0 dh=10 dv=0
EndChar

StartChar: uni018A
Encoding: 394 394 63
Width: 679
GlyphClass: 2
Flags: W
AnchorPoint: "Anchor-18" 381 342 basechar 0
AnchorPoint: "Anchor-17" 0 0 basechar 0
AnchorPoint: "Anchor-16" 409 684 basechar 0
AnchorPoint: "Anchor-15" 0 0 basechar 0
AnchorPoint: "Anchor-14" 304 0 basechar 0
LayerCount: 2
Fore
SplineSet
552 628.5 m 128,-1,1
 626 573 626 573 626 429 c 0,2,3
 626 315 626 315 590.5 218 c 128,-1,4
 555 121 555 121 475.5 60.5 c 128,-1,5
 396 0 396 0 271 0 c 2,6,-1
 129 0 l 1,7,-1
 220 644 l 1,8,-1
 194 644 l 2,9,10
 150 644 150 644 128.5 620.5 c 128,-1,11
 107 597 107 597 107 558 c 0,12,13
 107 542 107 542 110 529.5 c 128,-1,14
 113 517 113 517 119 500 c 1,15,-1
 82 483 l 1,16,17
 72 502 72 502 66.5 520 c 128,-1,18
 61 538 61 538 61 560 c 0,19,20
 61 615 61 615 97.5 649.5 c 128,-1,21
 134 684 134 684 200 684 c 2,22,-1
 357 684 l 2,23,0
 478 684 478 684 552 628.5 c 128,-1,1
452 97.5 m 128,-1,25
 519 154 519 154 548.5 242 c 128,-1,26
 578 330 578 330 578 430 c 0,27,28
 578 555 578 555 517.5 599 c 128,-1,29
 457 643 457 643 357 643 c 2,30,-1
 267 643 l 1,31,-1
 184 41 l 1,32,-1
 278 41 l 2,33,24
 385 41 385 41 452 97.5 c 128,-1,25
EndSplineSet
Substitution2: "'c2sc' Capitals to Small Capitals lookup 27 subtable" uni0257.sc
Substitution2: "'aalt' Access All Alternates lookup 0 subtable" uni0257.sc
Position2: "'cpsp' Capital Spacing lookup 0 subtable" dx=5 dy=0 dh=10 dv=0
EndChar

StartChar: uni018B
Encoding: 395 395 65
Width: 565
GlyphClass: 2
Flags: W
AnchorPoint: "Anchor-18" 0 0 basechar 0
AnchorPoint: "Anchor-17" 0 0 basechar 0
AnchorPoint: "Anchor-16" 343 684 basechar 0
AnchorPoint: "Anchor-15" 0 0 basechar 0
AnchorPoint: "Anchor-14" 247 0 basechar 0
LayerCount: 2
Fore
SplineSet
414 0 m 1,0,-1
 243 0 l 2,1,2
 150 0 150 0 94.5 45.5 c 128,-1,3
 39 91 39 91 39 186 c 0,4,5
 39 294 39 294 112 354 c 128,-1,6
 185 414 185 414 310 414 c 2,7,-1
 425 414 l 1,8,-1
 457 642 l 1,9,-1
 172 642 l 1,10,-1
 177 684 l 1,11,-1
 510 684 l 1,12,-1
 414 0 l 1,0,-1
419 373 m 1,13,-1
 306 373 l 2,14,15
 203 373 203 373 145.5 324 c 128,-1,16
 88 275 88 275 88 186 c 0,17,18
 88 110 88 110 129 75.5 c 128,-1,19
 170 41 170 41 249 41 c 2,20,-1
 373 41 l 1,21,-1
 419 373 l 1,13,-1
EndSplineSet
Substitution2: "'c2sc' Capitals to Small Capitals lookup 27 subtable" uni018C.sc
Substitution2: "'aalt' Access All Alternates lookup 0 subtable" uni018C.sc
Position2: "'cpsp' Capital Spacing lookup 0 subtable" dx=5 dy=0 dh=10 dv=0
EndChar

StartChar: E
Encoding: 69 69 68
Width: 502
GlyphClass: 2
Flags: W
AnchorPoint: "Anchor-18" 0 0 basechar 0
AnchorPoint: "Anchor-17" 0 0 basechar 0
AnchorPoint: "Anchor-16" 347 684 basechar 0
AnchorPoint: "Anchor-15" 403 0 basechar 0
AnchorPoint: "Anchor-14" 247 0 basechar 0
LayerCount: 2
Fore
SplineSet
512 684 m 1,0,-1
 500 643 l 1,1,-1
 215 643 l 1,2,-1
 178 377 l 1,3,-1
 425 377 l 1,4,-1
 419 336 l 1,5,-1
 173 336 l 1,6,-1
 131 41 l 1,7,-1
 429 41 l 1,8,-1
 422 0 l 1,9,-1
 77 0 l 1,10,-1
 174 684 l 1,11,-1
 512 684 l 1,0,-1
EndSplineSet
Substitution2: "'c2sc' Capitals to Small Capitals lookup 27 subtable" e.sc
Substitution2: "'aalt' Access All Alternates lookup 0 subtable" e.sc
Position2: "'cpsp' Capital Spacing lookup 0 subtable" dx=5 dy=0 dh=10 dv=0
EndChar

StartChar: uni0228
Encoding: 552 552 72
Width: 502
GlyphClass: 2
Flags: W
AnchorPoint: "Anchor-18" 0 0 basechar 0
AnchorPoint: "Anchor-17" 0 0 basechar 0
AnchorPoint: "Anchor-16" 347 684 basechar 0
AnchorPoint: "Anchor-15" 403 0 basechar 0
AnchorPoint: "Anchor-14" 247 0 basechar 0
LayerCount: 2
Fore
SplineSet
215 643 m 1,0,-1
 178 377 l 1,1,-1
 425 377 l 1,2,-1
 419 336 l 1,3,-1
 173 336 l 1,4,-1
 131 41 l 1,5,-1
 429 41 l 1,6,-1
 422 0 l 1,7,-1
 262 0 l 1,8,-1
 250 -67 l 1,9,10
 334 -73 334 -73 334 -136 c 0,11,12
 334 -175 334 -175 303 -199 c 128,-1,13
 272 -223 272 -223 225 -223 c 0,14,15
 181 -223 181 -223 150 -201 c 1,16,-1
 169 -173 l 1,17,18
 195 -187 195 -187 226 -187 c 0,19,20
 255 -187 255 -187 273 -174.5 c 128,-1,21
 291 -162 291 -162 291 -138 c 0,22,23
 291 -115 291 -115 273 -105 c 128,-1,24
 255 -95 255 -95 209 -95 c 1,25,-1
 229 0 l 1,26,-1
 77 0 l 1,27,-1
 174 684 l 1,28,-1
 512 684 l 1,29,-1
 500 643 l 1,30,-1
 215 643 l 1,0,-1
EndSplineSet
Substitution2: "'c2sc' Capitals to Small Capitals lookup 27 subtable" uni0229.sc
Substitution2: "'aalt' Access All Alternates lookup 0 subtable" uni0229.sc
Position2: "'cpsp' Capital Spacing lookup 0 subtable" dx=5 dy=0 dh=10 dv=0
EndChar

StartChar: uni1EBE
Encoding: 7870 7870 74
Width: 502
GlyphClass: 2
Flags: W
AnchorPoint: "Anchor-18" 0 0 basechar 0
AnchorPoint: "Anchor-17" 440 713 basechar 0
AnchorPoint: "Anchor-16" 368 855 basechar 0
AnchorPoint: "Anchor-15" 403 0 basechar 0
AnchorPoint: "Anchor-14" 0 0 basechar 0
LayerCount: 2
Fore
SplineSet
560 979 m 1,0,-1
 590 947 l 1,1,-1
 460 831 l 1,2,-1
 439 852 l 1,3,-1
 560 979 l 1,0,-1
234 731 m 1,4,-1
 215 757 l 1,5,-1
 355 855 l 1,6,-1
 382 855 l 1,7,-1
 495 756 l 1,8,-1
 473 731 l 1,9,-1
 365 811 l 1,10,-1
 234 731 l 1,4,-1
512 684 m 1,11,-1
 500 643 l 1,12,-1
 215 643 l 1,13,-1
 178 377 l 1,14,-1
 425 377 l 1,15,-1
 419 336 l 1,16,-1
 173 336 l 1,17,-1
 131 41 l 1,18,-1
 429 41 l 1,19,-1
 422 0 l 1,20,-1
 77 0 l 1,21,-1
 174 684 l 1,22,-1
 512 684 l 1,11,-1
EndSplineSet
Substitution2: "'c2sc' Capitals to Small Capitals lookup 27 subtable" uni1EBF.sc
Substitution2: "'aalt' Access All Alternates lookup 0 subtable" uni1EBF.sc
Position2: "'cpsp' Capital Spacing lookup 0 subtable" dx=5 dy=0 dh=10 dv=0
EndChar

StartChar: uni1EC0
Encoding: 7872 7872 76
Width: 502
GlyphClass: 2
Flags: W
AnchorPoint: "Anchor-18" 0 0 basechar 0
AnchorPoint: "Anchor-17" 437 713 basechar 0
AnchorPoint: "Anchor-16" 365 855 basechar 0
AnchorPoint: "Anchor-15" 403 0 basechar 0
AnchorPoint: "Anchor-14" 0 0 basechar 0
LayerCount: 2
Fore
SplineSet
196 979 m 1,0,-1
 282 849 l 1,1,-1
 259 831 l 1,2,-1
 160 950 l 1,3,-1
 196 979 l 1,0,-1
231 731 m 1,4,-1
 212 757 l 1,5,-1
 352 855 l 1,6,-1
 379 855 l 1,7,-1
 492 756 l 1,8,-1
 470 731 l 1,9,-1
 362 811 l 1,10,-1
 231 731 l 1,4,-1
512 684 m 1,11,-1
 500 643 l 1,12,-1
 215 643 l 1,13,-1
 178 377 l 1,14,-1
 425 377 l 1,15,-1
 419 336 l 1,16,-1
 173 336 l 1,17,-1
 131 41 l 1,18,-1
 429 41 l 1,19,-1
 422 0 l 1,20,-1
 77 0 l 1,21,-1
 174 684 l 1,22,-1
 512 684 l 1,11,-1
EndSplineSet
Substitution2: "'c2sc' Capitals to Small Capitals lookup 27 subtable" uni1EC1.sc
Substitution2: "'aalt' Access All Alternates lookup 0 subtable" uni1EC1.sc
Position2: "'cpsp' Capital Spacing lookup 0 subtable" dx=5 dy=0 dh=10 dv=0
EndChar

StartChar: uni1EC4
Encoding: 7876 7876 78
Width: 502
GlyphClass: 2
Flags: W
AnchorPoint: "Anchor-18" 0 0 basechar 0
AnchorPoint: "Anchor-17" 436 713 basechar 0
AnchorPoint: "Anchor-16" 377 971 basechar 0
AnchorPoint: "Anchor-15" 403 0 basechar 0
AnchorPoint: "Anchor-14" 0 0 basechar 0
LayerCount: 2
Fore
SplineSet
398.5 894.5 m 128,-1,1
 384 901 384 901 364 913 c 0,2,3
 350 923 350 923 339.5 927.5 c 128,-1,4
 329 932 329 932 318 932 c 0,5,6
 299 932 299 932 286.5 923.5 c 128,-1,7
 274 915 274 915 255 892 c 1,8,-1
 228 911 l 1,9,10
 272 971 272 971 318 971 c 0,11,12
 335 971 335 971 348.5 965 c 128,-1,13
 362 959 362 959 381 947 c 0,14,15
 396 937 396 937 407.5 931.5 c 128,-1,16
 419 926 419 926 431 926 c 0,17,18
 447 926 447 926 461.5 936.5 c 128,-1,19
 476 947 476 947 494 970 c 1,20,-1
 522 953 l 1,21,22
 481 888 481 888 432 888 c 0,23,0
 413 888 413 888 398.5 894.5 c 128,-1,1
230 731 m 1,24,-1
 211 757 l 1,25,-1
 351 855 l 1,26,-1
 378 855 l 1,27,-1
 491 756 l 1,28,-1
 469 731 l 1,29,-1
 361 811 l 1,30,-1
 230 731 l 1,24,-1
512 684 m 1,31,-1
 500 643 l 1,32,-1
 215 643 l 1,33,-1
 178 377 l 1,34,-1
 425 377 l 1,35,-1
 419 336 l 1,36,-1
 173 336 l 1,37,-1
 131 41 l 1,38,-1
 429 41 l 1,39,-1
 422 0 l 1,40,-1
 77 0 l 1,41,-1
 174 684 l 1,42,-1
 512 684 l 1,31,-1
EndSplineSet
Substitution2: "'c2sc' Capitals to Small Capitals lookup 27 subtable" uni1EC5.sc
Substitution2: "'aalt' Access All Alternates lookup 0 subtable" uni1EC5.sc
Position2: "'cpsp' Capital Spacing lookup 0 subtable" dx=5 dy=0 dh=10 dv=0
EndChar

StartChar: Eogonek
Encoding: 280 280 87
Width: 502
GlyphClass: 2
Flags: W
AnchorPoint: "Anchor-18" 0 0 basechar 0
AnchorPoint: "Anchor-17" 0 0 basechar 0
AnchorPoint: "Anchor-16" 347 684 basechar 0
AnchorPoint: "Anchor-15" 403 0 basechar 0
AnchorPoint: "Anchor-14" 247 0 basechar 0
LayerCount: 2
Fore
SplineSet
215 643 m 1,0,-1
 178 377 l 1,1,-1
 425 377 l 1,2,-1
 419 336 l 1,3,-1
 173 336 l 1,4,-1
 131 41 l 1,5,-1
 429 41 l 1,6,-1
 422 0 l 1,7,-1
 394 0 l 1,8,9
 321 -31 321 -31 287.5 -59.5 c 128,-1,10
 254 -88 254 -88 254 -124 c 0,11,12
 254 -172 254 -172 312 -172 c 0,13,14
 336 -172 336 -172 369 -166 c 1,15,-1
 361 -207 l 1,16,17
 331 -213 331 -213 306 -213 c 0,18,19
 259 -213 259 -213 234 -191.5 c 128,-1,20
 209 -170 209 -170 209 -136 c 0,21,22
 209 -92 209 -92 237 -60 c 128,-1,23
 265 -28 265 -28 328 0 c 1,24,-1
 77 0 l 1,25,-1
 174 684 l 1,26,-1
 512 684 l 1,27,-1
 500 643 l 1,28,-1
 215 643 l 1,0,-1
EndSplineSet
Substitution2: "'c2sc' Capitals to Small Capitals lookup 27 subtable" eogonek.sc
Substitution2: "'aalt' Access All Alternates lookup 0 subtable" eogonek.sc
Position2: "'cpsp' Capital Spacing lookup 0 subtable" dx=5 dy=0 dh=10 dv=0
EndChar

StartChar: uni0190
Encoding: 400 400 88
Width: 519
GlyphClass: 2
Flags: W
AnchorPoint: "Anchor-18" 0 0 basechar 0
AnchorPoint: "Anchor-17" 0 0 basechar 0
AnchorPoint: "Anchor-16" 339 684 basechar 0
AnchorPoint: "Anchor-15" 0 0 basechar 0
AnchorPoint: "Anchor-14" 245 0 basechar 0
LayerCount: 2
Fore
SplineSet
435 673 m 128,-1,1
 481 652 481 652 522 610 c 1,2,-1
 492 582 l 1,3,4
 459 617 459 617 419 635 c 128,-1,5
 379 653 379 653 328 653 c 0,6,7
 255 653 255 653 208 611 c 128,-1,8
 161 569 161 569 161 504 c 0,9,10
 161 449 161 449 199 418.5 c 128,-1,11
 237 388 237 388 303 388 c 2,12,-1
 362 388 l 1,13,-1
 350 346 l 1,14,-1
 296 347 l 2,15,16
 204 348 204 348 149.5 300.5 c 128,-1,17
 95 253 95 253 95 171 c 0,18,19
 95 104 95 104 136 68 c 128,-1,20
 177 32 177 32 248 32 c 0,21,22
 352 32 352 32 441 111 c 1,23,-1
 469 80 l 1,24,25
 368 -11 368 -11 246 -11 c 0,26,27
 155 -11 155 -11 100 38 c 128,-1,28
 45 87 45 87 45 171 c 256,29,30
 45 255 45 255 95.5 308 c 128,-1,31
 146 361 146 361 223 370 c 1,32,33
 173 382 173 382 143 416 c 128,-1,34
 113 450 113 450 113 504 c 0,35,36
 113 559 113 559 140.5 602 c 128,-1,37
 168 645 168 645 217 669.5 c 128,-1,38
 266 694 266 694 327 694 c 0,39,0
 389 694 389 694 435 673 c 128,-1,1
EndSplineSet
Substitution2: "'c2sc' Capitals to Small Capitals lookup 27 subtable" uni025B.sc
Substitution2: "'aalt' Access All Alternates lookup 0 subtable" uni025B.sc
Position2: "'cpsp' Capital Spacing lookup 0 subtable" dx=5 dy=0 dh=10 dv=0
EndChar

StartChar: uni018E
Encoding: 398 398 89
Width: 503
GlyphClass: 2
Flags: W
LayerCount: 2
Fore
SplineSet
109 684 m 1,0,-1
 447 684 l 1,1,-1
 351 0 l 1,2,-1
 7 0 l 1,3,-1
 13 41 l 1,4,-1
 310 41 l 1,5,-1
 351 336 l 1,6,-1
 105 336 l 1,7,-1
 111 377 l 1,8,-1
 357 377 l 1,9,-1
 394 643 l 1,10,-1
 104 643 l 1,11,-1
 109 684 l 1,0,-1
EndSplineSet
Substitution2: "'c2sc' Capitals to Small Capitals lookup 27 subtable" uni0258.sc
Substitution2: "'aalt' Access All Alternates lookup 0 subtable" uni0258.sc
Position2: "'cpsp' Capital Spacing lookup 0 subtable" dx=5 dy=0 dh=10 dv=0
EndChar

StartChar: uni0246
Encoding: 582 582 91
Width: 502
GlyphClass: 2
Flags: W
AnchorPoint: "Anchor-18" 0 0 basechar 0
AnchorPoint: "Anchor-17" 0 0 basechar 0
AnchorPoint: "Anchor-16" 311 684 basechar 0
AnchorPoint: "Anchor-15" 403 0 basechar 0
AnchorPoint: "Anchor-14" 215 0 basechar 0
LayerCount: 2
Fore
SplineSet
500 643 m 1,0,-1
 442 643 l 1,1,-1
 334 377 l 1,2,-1
 425 377 l 1,3,-1
 419 336 l 1,4,-1
 318 336 l 1,5,-1
 199 41 l 1,6,-1
 429 41 l 1,7,-1
 422 0 l 1,8,-1
 182 0 l 1,9,-1
 154 -70 l 1,10,-1
 125 -63 l 1,11,-1
 150 0 l 1,12,-1
 77 0 l 1,13,-1
 174 684 l 1,14,-1
 427 684 l 1,15,-1
 451 743 l 1,16,-1
 479 735 l 1,17,-1
 458 684 l 1,18,-1
 512 684 l 1,19,-1
 500 643 l 1,0,-1
303 377 m 1,20,-1
 411 643 l 1,21,-1
 215 643 l 1,22,-1
 178 377 l 1,23,-1
 303 377 l 1,20,-1
167 41 m 1,24,-1
 286 336 l 1,25,-1
 173 336 l 1,26,-1
 131 41 l 1,27,-1
 167 41 l 1,24,-1
EndSplineSet
Substitution2: "'c2sc' Capitals to Small Capitals lookup 27 subtable" uni0247.sc
Substitution2: "'aalt' Access All Alternates lookup 0 subtable" uni0247.sc
Position2: "'cpsp' Capital Spacing lookup 0 subtable" dx=5 dy=0 dh=10 dv=0
EndChar

StartChar: uni01B7
Encoding: 439 439 93
Width: 486
GlyphClass: 2
Flags: W
AnchorPoint: "Anchor-18" 0 0 basechar 0
AnchorPoint: "Anchor-17" 0 0 basechar 0
AnchorPoint: "Anchor-16" 285 684 basechar 0
AnchorPoint: "Anchor-15" 0 0 basechar 0
AnchorPoint: "Anchor-14" 206 0 basechar 0
LayerCount: 2
Fore
SplineSet
466 644 m 1,0,-1
 200 382 l 1,1,-1
 230 382 l 2,2,3
 329 382 329 382 379.5 340 c 128,-1,4
 430 298 430 298 430 220 c 0,5,6
 430 153 430 153 398 100 c 128,-1,7
 366 47 366 47 310 18 c 128,-1,8
 254 -11 254 -11 183 -11 c 0,9,10
 117 -11 117 -11 71.5 11 c 128,-1,11
 26 33 26 33 -8 76 c 1,12,-1
 23 101 l 1,13,14
 56 64 56 64 92 47.5 c 128,-1,15
 128 31 128 31 182 31 c 0,16,17
 273 31 273 31 326.5 83 c 128,-1,18
 380 135 380 135 380 220 c 0,19,20
 380 285 380 285 340 314 c 128,-1,21
 300 343 300 343 223 343 c 2,22,-1
 139 343 l 1,23,-1
 145 382 l 1,24,-1
 404 643 l 1,25,-1
 92 643 l 1,26,-1
 98 684 l 1,27,-1
 471 684 l 1,28,-1
 466 644 l 1,0,-1
EndSplineSet
Substitution2: "'c2sc' Capitals to Small Capitals lookup 27 subtable" uni0292.sc
Substitution2: "'aalt' Access All Alternates lookup 0 subtable" uni0292.sc
Position2: "'cpsp' Capital Spacing lookup 0 subtable" dx=5 dy=0 dh=10 dv=0
EndChar

StartChar: uni01B8
Encoding: 440 440 95
Width: 487
GlyphClass: 2
Flags: W
AnchorPoint: "Anchor-18" 0 0 basechar 0
AnchorPoint: "Anchor-17" 0 0 basechar 0
AnchorPoint: "Anchor-16" 303 684 basechar 0
AnchorPoint: "Anchor-15" 0 0 basechar 0
AnchorPoint: "Anchor-14" 207 0 basechar 0
LayerCount: 2
Fore
SplineSet
501 643 m 1,0,-1
 185 643 l 1,1,-1
 375 382 l 1,2,-1
 370 343 l 1,3,-1
 366 347 l 1,4,-1
 369 343 l 1,5,-1
 288 343 l 2,6,7
 193 343 193 343 139 294.5 c 128,-1,8
 85 246 85 246 85 163 c 0,9,10
 85 101 85 101 122.5 66 c 128,-1,11
 160 31 160 31 228 31 c 0,12,13
 286 31 286 31 329 47.5 c 128,-1,14
 372 64 372 64 416 102 c 1,15,-1
 443 73 l 1,16,17
 397 31 397 31 346 10 c 128,-1,18
 295 -11 295 -11 226 -11 c 0,19,20
 140 -11 140 -11 88.5 36.5 c 128,-1,21
 37 84 37 84 37 163 c 0,22,23
 37 229 37 229 68 278.5 c 128,-1,24
 99 328 99 328 156 355 c 128,-1,25
 213 382 213 382 288 382 c 2,26,-1
 326 382 l 1,27,-1
 128 644 l 1,28,-1
 134 684 l 1,29,-1
 507 684 l 1,30,-1
 501 643 l 1,0,-1
EndSplineSet
Substitution2: "'c2sc' Capitals to Small Capitals lookup 27 subtable" uni01B9.sc
Substitution2: "'aalt' Access All Alternates lookup 0 subtable" uni01B9.sc
Position2: "'cpsp' Capital Spacing lookup 0 subtable" dx=5 dy=0 dh=10 dv=0
EndChar

StartChar: F
Encoding: 70 70 96
Width: 475
GlyphClass: 2
Flags: W
AnchorPoint: "Anchor-18" 0 0 basechar 0
AnchorPoint: "Anchor-17" 0 0 basechar 0
AnchorPoint: "Anchor-16" 340 684 basechar 0
AnchorPoint: "Anchor-15" 0 0 basechar 0
AnchorPoint: "Anchor-14" 102 0 basechar 0
LayerCount: 2
Fore
SplineSet
506 684 m 1,0,-1
 495 643 l 1,1,-1
 215 643 l 1,2,-1
 177 364 l 1,3,-1
 418 364 l 1,4,-1
 412 324 l 1,5,-1
 171 324 l 1,6,-1
 125 0 l 1,7,-1
 77 0 l 1,8,-1
 174 684 l 1,9,-1
 506 684 l 1,0,-1
EndSplineSet
Substitution2: "'c2sc' Capitals to Small Capitals lookup 27 subtable" f.sc
Substitution2: "'aalt' Access All Alternates lookup 0 subtable" f.sc
Position2: "'cpsp' Capital Spacing lookup 0 subtable" dx=5 dy=0 dh=10 dv=0
EndChar

StartChar: uni0191
Encoding: 401 401 98
Width: 475
GlyphClass: 2
Flags: W
AnchorPoint: "Anchor-18" 0 0 basechar 0
AnchorPoint: "Anchor-17" 0 0 basechar 0
AnchorPoint: "Anchor-16" 340 684 basechar 0
AnchorPoint: "Anchor-15" 0 0 basechar 0
AnchorPoint: "Anchor-14" 102 0 basechar 0
LayerCount: 2
Fore
SplineSet
215 643 m 1,0,-1
 177 364 l 1,1,-1
 418 364 l 1,2,-1
 412 324 l 1,3,-1
 171 324 l 1,4,-1
 125 0 l 1,5,-1
 114 -77 l 2,6,7
 105 -140 105 -140 69.5 -171.5 c 128,-1,8
 34 -203 34 -203 -18 -203 c 256,9,10
 -70 -203 -70 -203 -112 -169 c 1,11,-1
 -89 -139 l 1,12,13
 -73 -150 -73 -150 -57.5 -156 c 128,-1,14
 -42 -162 -42 -162 -19 -162 c 0,15,16
 14 -162 14 -162 37 -141 c 128,-1,17
 60 -120 60 -120 66 -74 c 2,18,-1
 77 0 l 1,19,-1
 174 684 l 1,20,-1
 506 684 l 1,21,-1
 495 643 l 1,22,-1
 215 643 l 1,0,-1
EndSplineSet
Substitution2: "'c2sc' Capitals to Small Capitals lookup 27 subtable" uni0191.sc
Substitution2: "'aalt' Access All Alternates lookup 0 subtable" uni0191.sc
Position2: "'cpsp' Capital Spacing lookup 0 subtable" dx=5 dy=0 dh=10 dv=0
EndChar

StartChar: G
Encoding: 71 71 99
Width: 612
GlyphClass: 2
Flags: W
AnchorPoint: "Anchor-18" 0 0 basechar 0
AnchorPoint: "Anchor-17" 0 0 basechar 0
AnchorPoint: "Anchor-16" 408 684 basechar 0
AnchorPoint: "Anchor-15" 0 0 basechar 0
AnchorPoint: "Anchor-14" 300 0 basechar 0
LayerCount: 2
Fore
SplineSet
503 678 m 128,-1,1
 546 662 546 662 583 629 c 1,2,-1
 552 601 l 1,3,4
 519 628 519 628 485 640.5 c 128,-1,5
 451 653 451 653 406 653 c 0,6,7
 314 653 314 653 250.5 594.5 c 128,-1,8
 187 536 187 536 155.5 444.5 c 128,-1,9
 124 353 124 353 124 255 c 0,10,11
 124 143 124 143 174.5 87 c 128,-1,12
 225 31 225 31 316 31 c 0,13,14
 398 31 398 31 469 69 c 1,15,-1
 506 323 l 1,16,-1
 369 323 l 1,17,-1
 369 365 l 1,18,-1
 559 365 l 1,19,-1
 514 44 l 1,20,21
 417 -11 417 -11 312 -11 c 0,22,23
 201 -11 201 -11 138 58.5 c 128,-1,24
 75 128 75 128 75 260 c 0,25,26
 75 366 75 366 112.5 466 c 128,-1,27
 150 566 150 566 225 630 c 128,-1,28
 300 694 300 694 406 694 c 0,29,0
 460 694 460 694 503 678 c 128,-1,1
EndSplineSet
Substitution2: "'c2sc' Capitals to Small Capitals lookup 27 subtable" g.sc
Substitution2: "'aalt' Access All Alternates lookup 0 subtable" g.sc
Position2: "'cpsp' Capital Spacing lookup 0 subtable" dx=5 dy=0 dh=10 dv=0
EndChar

StartChar: uni0194
Encoding: 404 404 101
Width: 541
GlyphClass: 2
Flags: W
AnchorPoint: "Anchor-18" 0 0 basechar 0
AnchorPoint: "Anchor-17" 0 0 basechar 0
AnchorPoint: "Anchor-16" 330 684 basechar 0
AnchorPoint: "Anchor-15" 0 0 basechar 0
AnchorPoint: "Anchor-14" 0 0 basechar 0
LayerCount: 2
Fore
SplineSet
269 56 m 1,0,1
 289 -5 289 -5 297 -35.5 c 128,-1,2
 305 -66 305 -66 305 -96 c 0,3,4
 305 -145 305 -145 278.5 -174 c 128,-1,5
 252 -203 252 -203 207 -203 c 0,6,7
 171 -203 171 -203 150.5 -183 c 128,-1,8
 130 -163 130 -163 130 -129 c 0,9,10
 130 -94 130 -94 148.5 -55 c 128,-1,11
 167 -16 167 -16 213 60 c 1,12,-1
 79 684 l 1,13,-1
 128 684 l 1,14,-1
 245 95 l 1,15,-1
 530 684 l 1,16,-1
 580 684 l 1,17,-1
 269 56 l 1,0,1
254.5 -46.5 m 128,-1,19
 249 -21 249 -21 236 24 c 1,20,21
 205 -29 205 -29 190 -63.5 c 128,-1,22
 175 -98 175 -98 175 -127 c 0,23,24
 175 -163 175 -163 208 -163 c 0,25,26
 233 -163 233 -163 246.5 -144.5 c 128,-1,27
 260 -126 260 -126 260 -96 c 0,28,18
 260 -72 260 -72 254.5 -46.5 c 128,-1,19
EndSplineSet
Substitution2: "'c2sc' Capitals to Small Capitals lookup 27 subtable" uni0194.sc
Substitution2: "'aalt' Access All Alternates lookup 0 subtable" uni0194.sc
Position2: "'cpsp' Capital Spacing lookup 0 subtable" dx=5 dy=0 dh=10 dv=0
EndChar

StartChar: uni0193
Encoding: 403 403 107
Width: 565
GlyphClass: 2
Flags: W
AnchorPoint: "Anchor-18" 0 0 basechar 0
AnchorPoint: "Anchor-17" 0 0 basechar 0
AnchorPoint: "Anchor-16" 342 684 basechar 0
AnchorPoint: "Anchor-15" 0 0 basechar 0
AnchorPoint: "Anchor-14" 246 0 basechar 0
LayerCount: 2
Fore
SplineSet
730 812.5 m 128,-1,1
 752 803 752 803 771 788 c 1,2,-1
 748 759 l 1,3,4
 731 770 731 770 715.5 776 c 128,-1,5
 700 782 700 782 677 782 c 0,6,7
 644 782 644 782 621 761 c 128,-1,8
 598 740 598 740 592 694 c 2,9,-1
 583 629 l 1,10,-1
 557 605 l 1,11,12
 522 629 522 629 486 641 c 128,-1,13
 450 653 450 653 406 653 c 0,14,15
 314 653 314 653 250.5 594.5 c 128,-1,16
 187 536 187 536 155.5 444.5 c 128,-1,17
 124 353 124 353 124 255 c 0,18,19
 124 143 124 143 174.5 87 c 128,-1,20
 225 31 225 31 316 31 c 0,21,22
 398 31 398 31 469 69 c 1,23,-1
 506 323 l 1,24,-1
 369 323 l 1,25,-1
 369 365 l 1,26,-1
 559 365 l 1,27,-1
 514 44 l 1,28,29
 417 -11 417 -11 312 -11 c 0,30,31
 201 -11 201 -11 138 58.5 c 128,-1,32
 75 128 75 128 75 260 c 0,33,34
 75 366 75 366 112.5 466 c 128,-1,35
 150 566 150 566 225 630 c 128,-1,36
 300 694 300 694 406 694 c 0,37,38
 490 694 490 694 541 658 c 1,39,-1
 546 696 l 2,40,41
 554 758 554 758 588.5 790 c 128,-1,42
 623 822 623 822 676 822 c 0,43,0
 708 822 708 822 730 812.5 c 128,-1,1
EndSplineSet
Substitution2: "'c2sc' Capitals to Small Capitals lookup 27 subtable" uni0260.sc
Substitution2: "'aalt' Access All Alternates lookup 0 subtable" uni0260.sc
Position2: "'cpsp' Capital Spacing lookup 0 subtable" dx=5 dy=0 dh=10 dv=0
EndChar

StartChar: uni0241
Encoding: 577 577 108
Width: 459
GlyphClass: 2
Flags: W
AnchorPoint: "Anchor-18" 0 0 basechar 0
AnchorPoint: "Anchor-17" 0 0 basechar 0
AnchorPoint: "Anchor-16" 289 684 basechar 0
AnchorPoint: "Anchor-15" 0 0 basechar 0
AnchorPoint: "Anchor-14" 147 0 basechar 0
LayerCount: 2
Fore
SplineSet
166 300 m 1,0,-1
 235 317 l 2,1,2
 322 338 322 338 365.5 387 c 128,-1,3
 409 436 409 436 409 517 c 0,4,5
 409 581 409 581 374 617 c 128,-1,6
 339 653 339 653 274 653 c 0,7,8
 225 653 225 653 181 634.5 c 128,-1,9
 137 616 137 616 92 581 c 1,10,-1
 66 612 l 1,11,12
 116 653 116 653 167.5 673.5 c 128,-1,13
 219 694 219 694 277 694 c 0,14,15
 362 694 362 694 410.5 646.5 c 128,-1,16
 459 599 459 599 459 520 c 0,17,18
 459 422 459 422 405.5 363.5 c 128,-1,19
 352 305 352 305 250 281 c 2,20,-1
 209 272 l 1,21,-1
 170 0 l 1,22,-1
 123 0 l 1,23,-1
 166 300 l 1,0,-1
EndSplineSet
Substitution2: "'c2sc' Capitals to Small Capitals lookup 27 subtable" uni0294.sc
Substitution2: "'aalt' Access All Alternates lookup 0 subtable" uni0294.sc
Position2: "'cpsp' Capital Spacing lookup 0 subtable" dx=5 dy=0 dh=10 dv=0
EndChar

StartChar: uni01E4
Encoding: 484 484 109
Width: 628
GlyphClass: 2
Flags: W
AnchorPoint: "Anchor-18" 0 0 basechar 0
AnchorPoint: "Anchor-17" 0 0 basechar 0
AnchorPoint: "Anchor-16" 373 684 basechar 0
AnchorPoint: "Anchor-15" 0 0 basechar 0
AnchorPoint: "Anchor-14" 277 0 basechar 0
LayerCount: 2
Fore
SplineSet
615 199 m 1,0,-1
 536 199 l 1,1,-1
 514 44 l 1,2,3
 417 -11 417 -11 312 -11 c 0,4,5
 201 -11 201 -11 138 58.5 c 128,-1,6
 75 128 75 128 75 260 c 0,7,8
 75 366 75 366 112.5 466 c 128,-1,9
 150 566 150 566 225 630 c 128,-1,10
 300 694 300 694 406 694 c 0,11,12
 460 694 460 694 503 678 c 128,-1,13
 546 662 546 662 583 629 c 1,14,-1
 552 600 l 1,15,16
 519 628 519 628 485 640.5 c 128,-1,17
 451 653 451 653 406 653 c 0,18,19
 314 653 314 653 250.5 594.5 c 128,-1,20
 187 536 187 536 155.5 444.5 c 128,-1,21
 124 353 124 353 124 255 c 0,22,23
 124 143 124 143 174.5 87 c 128,-1,24
 225 31 225 31 316 31 c 0,25,26
 398 31 398 31 469 69 c 1,27,-1
 488 199 l 1,28,-1
 357 199 l 1,29,-1
 363 240 l 1,30,-1
 494 240 l 1,31,-1
 506 323 l 1,32,-1
 369 323 l 1,33,-1
 369 365 l 1,34,-1
 559 365 l 1,35,-1
 541 240 l 1,36,-1
 621 240 l 1,37,-1
 615 199 l 1,0,-1
EndSplineSet
Substitution2: "'c2sc' Capitals to Small Capitals lookup 27 subtable" uni01E5.sc
Substitution2: "'aalt' Access All Alternates lookup 0 subtable" uni01E5.sc
Position2: "'cpsp' Capital Spacing lookup 0 subtable" dx=5 dy=0 dh=10 dv=0
EndChar

StartChar: uni021C
Encoding: 540 540 110
Width: 498
GlyphClass: 2
Flags: W
AnchorPoint: "Anchor-18" 0 0 basechar 0
AnchorPoint: "Anchor-17" 0 0 basechar 0
AnchorPoint: "Anchor-16" 309 684 basechar 0
AnchorPoint: "Anchor-15" 0 0 basechar 0
AnchorPoint: "Anchor-14" 0 0 basechar 0
LayerCount: 2
Fore
SplineSet
414.5 652.5 m 128,-1,1
 460 611 460 611 460 539 c 256,2,3
 460 467 460 467 418 422 c 128,-1,4
 376 377 376 377 305 359 c 1,5,6
 365 353 365 353 400.5 320 c 128,-1,7
 436 287 436 287 436 224 c 0,8,9
 436 97 436 97 324.5 24.5 c 128,-1,10
 213 -48 213 -48 20 -86 c 1,11,-1
 19 -46 l 1,12,13
 191 -8 191 -8 288.5 54 c 128,-1,14
 386 116 386 116 386 223 c 0,15,16
 386 340 386 340 229 337 c 2,17,-1
 166 336 l 1,18,-1
 178 378 l 1,19,-1
 229 378 l 2,20,21
 309 378 309 378 359.5 422 c 128,-1,22
 410 466 410 466 410 537 c 0,23,24
 410 593 410 593 378 623 c 128,-1,25
 346 653 346 653 288 653 c 0,26,27
 237 653 237 653 191.5 634.5 c 128,-1,28
 146 616 146 616 98 581 c 1,29,-1
 74 612 l 1,30,31
 127 654 127 654 178 674 c 128,-1,32
 229 694 229 694 290 694 c 0,33,0
 369 694 369 694 414.5 652.5 c 128,-1,1
EndSplineSet
Substitution2: "'c2sc' Capitals to Small Capitals lookup 27 subtable" uni021D.sc
Substitution2: "'aalt' Access All Alternates lookup 0 subtable" uni021D.sc
Position2: "'cpsp' Capital Spacing lookup 0 subtable" dx=5 dy=0 dh=10 dv=0
EndChar

StartChar: H
Encoding: 72 72 111
Width: 665
GlyphClass: 2
Flags: W
AnchorPoint: "Anchor-18" 342 342 basechar 0
AnchorPoint: "Anchor-17" 0 0 basechar 0
AnchorPoint: "Anchor-16" 390 684 basechar 0
AnchorPoint: "Anchor-15" 0 0 basechar 0
AnchorPoint: "Anchor-14" 294 0 basechar 0
LayerCount: 2
Fore
SplineSet
125 0 m 1,0,-1
 77 0 l 1,1,-1
 174 684 l 1,2,-1
 221 684 l 1,3,-1
 179 381 l 1,4,-1
 520 381 l 1,5,-1
 562 684 l 1,6,-1
 610 684 l 1,7,-1
 514 0 l 1,8,-1
 466 0 l 1,9,-1
 514 339 l 1,10,-1
 173 339 l 1,11,-1
 125 0 l 1,0,-1
EndSplineSet
Substitution2: "'c2sc' Capitals to Small Capitals lookup 27 subtable" h.sc
Substitution2: "'aalt' Access All Alternates lookup 0 subtable" h.sc
Position2: "'cpsp' Capital Spacing lookup 0 subtable" dx=5 dy=0 dh=10 dv=0
EndChar

StartChar: Hbar
Encoding: 294 294 112
Width: 660
GlyphClass: 2
Flags: W
AnchorPoint: "Anchor-18" 343 342 basechar 0
AnchorPoint: "Anchor-17" 0 0 basechar 0
AnchorPoint: "Anchor-16" 391 684 basechar 0
AnchorPoint: "Anchor-15" 0 0 basechar 0
AnchorPoint: "Anchor-14" 295 0 basechar 0
LayerCount: 2
Fore
SplineSet
653 551 m 1,0,-1
 648 515 l 1,1,-1
 587 515 l 1,2,-1
 515 0 l 1,3,-1
 467 0 l 1,4,-1
 515 339 l 1,5,-1
 174 339 l 1,6,-1
 126 0 l 1,7,-1
 78 0 l 1,8,-1
 151 515 l 1,9,-1
 87 515 l 1,10,-1
 93 551 l 1,11,-1
 156 551 l 1,12,-1
 175 684 l 1,13,-1
 222 684 l 1,14,-1
 204 551 l 1,15,-1
 545 551 l 1,16,-1
 563 684 l 1,17,-1
 611 684 l 1,18,-1
 592 551 l 1,19,-1
 653 551 l 1,0,-1
521 381 m 1,20,-1
 540 515 l 1,21,-1
 199 515 l 1,22,-1
 180 381 l 1,23,-1
 521 381 l 1,20,-1
EndSplineSet
Substitution2: "'c2sc' Capitals to Small Capitals lookup 27 subtable" hbar.sc
Substitution2: "'aalt' Access All Alternates lookup 0 subtable" hbar.sc
Position2: "'cpsp' Capital Spacing lookup 0 subtable" dx=5 dy=0 dh=10 dv=0
EndChar

StartChar: uniA7AA
Encoding: 42922 42922 116
Width: 718
GlyphClass: 2
Flags: W
AnchorPoint: "Anchor-18" 394 342 basechar 0
AnchorPoint: "Anchor-17" 0 0 basechar 0
AnchorPoint: "Anchor-16" 442 684 basechar 0
AnchorPoint: "Anchor-15" 0 0 basechar 0
AnchorPoint: "Anchor-14" 346 0 basechar 0
LayerCount: 2
Fore
SplineSet
662 684 m 1,0,-1
 566 0 l 1,1,-1
 518 0 l 1,2,-1
 566 339 l 1,3,-1
 225 339 l 1,4,-1
 177 0 l 1,5,-1
 129 0 l 1,6,-1
 220 644 l 1,7,-1
 194 644 l 2,8,9
 150 644 150 644 128.5 620.5 c 128,-1,10
 107 597 107 597 107 558 c 0,11,12
 107 542 107 542 110 529.5 c 128,-1,13
 113 517 113 517 119 500 c 1,14,-1
 82 483 l 1,15,16
 72 502 72 502 66.5 520 c 128,-1,17
 61 538 61 538 61 560 c 0,18,19
 61 615 61 615 97.5 649.5 c 128,-1,20
 134 684 134 684 200 684 c 2,21,-1
 273 684 l 1,22,-1
 231 381 l 1,23,-1
 572 381 l 1,24,-1
 614 684 l 1,25,-1
 662 684 l 1,0,-1
EndSplineSet
Substitution2: "'c2sc' Capitals to Small Capitals lookup 27 subtable" uniA7AA.sc
Substitution2: "'aalt' Access All Alternates lookup 0 subtable" uniA7AA.sc
Position2: "'cpsp' Capital Spacing lookup 0 subtable" dx=5 dy=0 dh=10 dv=0
EndChar

StartChar: uni01F6
Encoding: 502 502 118
Width: 959
GlyphClass: 2
Flags: W
AnchorPoint: "Anchor-18" 0 0 basechar 0
AnchorPoint: "Anchor-17" 0 0 basechar 0
AnchorPoint: "Anchor-16" 539 684 basechar 0
AnchorPoint: "Anchor-15" 0 0 basechar 0
AnchorPoint: "Anchor-14" 443 0 basechar 0
LayerCount: 2
Fore
SplineSet
524 28 m 128,-1,1
 487 67 487 67 487 130 c 0,2,3
 487 140 487 140 489 160 c 2,4,-1
 514 339 l 1,5,-1
 173 339 l 1,6,-1
 125 0 l 1,7,-1
 77 0 l 1,8,-1
 174 684 l 1,9,-1
 221 684 l 1,10,-1
 179 381 l 1,11,-1
 520 381 l 1,12,-1
 562 684 l 1,13,-1
 610 684 l 1,14,-1
 536 160 l 2,15,16
 534 140 534 140 534 131 c 0,17,18
 534 81 534 81 560.5 55.5 c 128,-1,19
 587 30 587 30 635 30 c 0,20,21
 750 30 750 30 794.5 145.5 c 128,-1,22
 839 261 839 261 839 423 c 0,23,24
 839 477 839 477 836 522 c 1,25,-1
 882 522 l 1,26,27
 885 474 885 474 885 418 c 0,28,29
 885 237 885 237 828.5 113 c 128,-1,30
 772 -11 772 -11 631 -11 c 0,31,0
 561 -11 561 -11 524 28 c 128,-1,1
EndSplineSet
Substitution2: "'c2sc' Capitals to Small Capitals lookup 27 subtable" uni01F6.sc
Substitution2: "'aalt' Access All Alternates lookup 0 subtable" uni01F6.sc
Position2: "'cpsp' Capital Spacing lookup 0 subtable" dx=5 dy=0 dh=10 dv=0
EndChar

StartChar: I
Encoding: 73 73 119
Width: 277
GlyphClass: 2
Flags: W
AnchorPoint: "Anchor-18" 0 0 basechar 0
AnchorPoint: "Anchor-17" 0 0 basechar 0
AnchorPoint: "Anchor-16" 198 684 basechar 0
AnchorPoint: "Anchor-15" 129 0 basechar 0
AnchorPoint: "Anchor-14" 101 0 basechar 0
LayerCount: 2
Fore
SplineSet
221 684 m 1,0,-1
 125 0 l 1,1,-1
 77 0 l 1,2,-1
 174 684 l 1,3,-1
 221 684 l 1,0,-1
EndSplineSet
Substitution2: "'c2sc' Capitals to Small Capitals lookup 27 subtable" i.sc
Substitution2: "'aalt' Access All Alternates lookup 0 subtable" i.sc
Position2: "'cpsp' Capital Spacing lookup 0 subtable" dx=5 dy=0 dh=10 dv=0
EndChar

StartChar: Iogonek
Encoding: 302 302 134
Width: 277
GlyphClass: 2
Flags: W
AnchorPoint: "Anchor-18" 0 0 basechar 0
AnchorPoint: "Anchor-17" 0 0 basechar 0
AnchorPoint: "Anchor-16" 198 684 basechar 0
AnchorPoint: "Anchor-15" 129 0 basechar 0
AnchorPoint: "Anchor-14" 101 0 basechar 0
LayerCount: 2
Fore
SplineSet
221 684 m 1,0,-1
 125 0 l 1,1,-1
 120 0 l 1,2,3
 47 -31 47 -31 13.5 -59.5 c 128,-1,4
 -20 -88 -20 -88 -20 -124 c 0,5,6
 -20 -172 -20 -172 38 -172 c 0,7,8
 62 -172 62 -172 95 -166 c 1,9,-1
 87 -207 l 1,10,11
 57 -213 57 -213 32 -213 c 0,12,13
 -15 -213 -15 -213 -40 -191.5 c 128,-1,14
 -65 -170 -65 -170 -65 -136 c 0,15,16
 -65 -88 -65 -88 -31.5 -53.5 c 128,-1,17
 2 -19 2 -19 78 10 c 1,18,-1
 174 684 l 1,19,-1
 221 684 l 1,0,-1
EndSplineSet
Substitution2: "'c2sc' Capitals to Small Capitals lookup 27 subtable" iogonek.sc
Substitution2: "'aalt' Access All Alternates lookup 0 subtable" iogonek.sc
Position2: "'cpsp' Capital Spacing lookup 0 subtable" dx=5 dy=0 dh=10 dv=0
EndChar

StartChar: uni0196
Encoding: 406 406 135
Width: 325
GlyphClass: 2
Flags: W
AnchorPoint: "Anchor-18" 0 0 basechar 0
AnchorPoint: "Anchor-17" 0 0 basechar 0
AnchorPoint: "Anchor-16" 188 684 basechar 0
AnchorPoint: "Anchor-15" 0 0 basechar 0
AnchorPoint: "Anchor-14" 126 0 basechar 0
LayerCount: 2
Fore
SplineSet
284 21 m 1,0,1
 238 -11 238 -11 184 -11 c 0,2,3
 137 -11 137 -11 109.5 15 c 128,-1,4
 82 41 82 41 82 91 c 0,5,6
 82 99 82 99 84 119 c 2,7,-1
 95 192 l 1,8,-1
 164 684 l 1,9,-1
 212 684 l 1,10,-1
 142 192 l 1,11,-1
 132 115 l 2,12,13
 130 97 130 97 130 91 c 0,14,15
 130 30 130 30 186 30 c 0,16,17
 210 30 210 30 228 36 c 128,-1,18
 246 42 246 42 266 54 c 1,19,-1
 284 21 l 1,0,1
EndSplineSet
Substitution2: "'c2sc' Capitals to Small Capitals lookup 27 subtable" uni0196.sc
Substitution2: "'aalt' Access All Alternates lookup 0 subtable" uni0196.sc
Position2: "'cpsp' Capital Spacing lookup 0 subtable" dx=5 dy=0 dh=10 dv=0
EndChar

StartChar: uni0197
Encoding: 407 407 136
Width: 317
GlyphClass: 2
Flags: W
AnchorPoint: "Anchor-18" 0 0 basechar 0
AnchorPoint: "Anchor-17" 0 0 basechar 0
AnchorPoint: "Anchor-16" 222 684 basechar 0
AnchorPoint: "Anchor-15" 153 0 basechar 0
AnchorPoint: "Anchor-14" 125 0 basechar 0
LayerCount: 2
Fore
SplineSet
305 381 m 1,0,-1
 299 339 l 1,1,-1
 197 339 l 1,2,-1
 149 0 l 1,3,-1
 101 0 l 1,4,-1
 149 339 l 1,5,-1
 41 339 l 1,6,-1
 47 381 l 1,7,-1
 155 381 l 1,8,-1
 198 684 l 1,9,-1
 245 684 l 1,10,-1
 202 381 l 1,11,-1
 305 381 l 1,0,-1
EndSplineSet
Substitution2: "'c2sc' Capitals to Small Capitals lookup 27 subtable" uni0268.sc
Substitution2: "'aalt' Access All Alternates lookup 0 subtable" uni0268.sc
Position2: "'cpsp' Capital Spacing lookup 0 subtable" dx=5 dy=0 dh=10 dv=0
EndChar

StartChar: J
Encoding: 74 74 138
Width: 285
GlyphClass: 2
Flags: W
AnchorPoint: "Anchor-18" 0 0 basechar 0
AnchorPoint: "Anchor-17" 0 0 basechar 0
AnchorPoint: "Anchor-16" 209 684 basechar 0
AnchorPoint: "Anchor-15" 0 0 basechar 0
AnchorPoint: "Anchor-14" 0 0 basechar 0
LayerCount: 2
Fore
SplineSet
152 89 m 2,0,1
 143 31 143 31 125 -4.5 c 128,-1,2
 107 -40 107 -40 73 -64.5 c 128,-1,3
 39 -89 39 -89 -22 -113 c 1,4,-1
 -33 -77 l 1,5,6
 16 -55 16 -55 43 -34 c 128,-1,7
 70 -13 70 -13 84 17 c 128,-1,8
 98 47 98 47 104 95 c 2,9,-1
 187 684 l 1,10,-1
 235 684 l 1,11,-1
 152 89 l 2,0,1
EndSplineSet
Substitution2: "'c2sc' Capitals to Small Capitals lookup 27 subtable" j.sc
Substitution2: "'aalt' Access All Alternates lookup 0 subtable" j.sc
Position2: "'cpsp' Capital Spacing lookup 0 subtable" dx=5 dy=0 dh=10 dv=0
EndChar

StartChar: uniA7B2
Encoding: 42930 42930 140
Width: 302
GlyphClass: 2
Flags: W
AnchorPoint: "Anchor-18" 0 0 basechar 0
AnchorPoint: "Anchor-17" 0 0 basechar 0
AnchorPoint: "Anchor-16" 224 684 basechar 0
AnchorPoint: "Anchor-15" 0 0 basechar 0
AnchorPoint: "Anchor-14" 0 0 basechar 0
LayerCount: 2
Fore
SplineSet
148 -21 m 1,0,1
 196 -32 196 -32 246 -57 c 1,2,-1
 230 -86 l 1,3,4
 187 -67 187 -67 142 -55 c 1,5,6
 113 -203 113 -203 -20 -203 c 0,7,8
 -72 -203 -72 -203 -100.5 -178 c 128,-1,9
 -129 -153 -129 -153 -129 -112 c 0,10,11
 -129 -64 -129 -64 -88.5 -34.5 c 128,-1,12
 -48 -5 -48 -5 16 -5 c 0,13,14
 64 -5 64 -5 101 -12 c 1,15,-1
 200 684 l 1,16,-1
 247 684 l 1,17,-1
 148 -21 l 1,0,1
59 -136.5 m 128,-1,19
 85 -107 85 -107 96 -46 c 1,20,21
 62 -40 62 -40 16 -40 c 0,22,23
 -34 -40 -34 -40 -60.5 -59 c 128,-1,24
 -87 -78 -87 -78 -87 -111 c 0,25,26
 -87 -137 -87 -137 -69.5 -151.5 c 128,-1,27
 -52 -166 -52 -166 -18 -166 c 0,28,18
 33 -166 33 -166 59 -136.5 c 128,-1,19
EndSplineSet
Substitution2: "'c2sc' Capitals to Small Capitals lookup 27 subtable" uniA7B2.sc
Substitution2: "'aalt' Access All Alternates lookup 0 subtable" uniA7B2.sc
Position2: "'cpsp' Capital Spacing lookup 0 subtable" dx=5 dy=0 dh=10 dv=0
EndChar

StartChar: uni0248
Encoding: 584 584 141
Width: 298
GlyphClass: 2
Flags: W
AnchorPoint: "Anchor-18" 0 0 basechar 0
AnchorPoint: "Anchor-17" 0 0 basechar 0
AnchorPoint: "Anchor-16" 211 684 basechar 0
AnchorPoint: "Anchor-15" 0 0 basechar 0
AnchorPoint: "Anchor-14" 0 0 basechar 0
LayerCount: 2
Fore
SplineSet
290 322 m 1,0,-1
 187 322 l 1,1,-1
 154 89 l 2,2,3
 145 31 145 31 127 -4.5 c 128,-1,4
 109 -40 109 -40 75 -64.5 c 128,-1,5
 41 -89 41 -89 -20 -113 c 1,6,-1
 -31 -77 l 1,7,8
 18 -55 18 -55 45 -34 c 128,-1,9
 72 -13 72 -13 86 17 c 128,-1,10
 100 47 100 47 106 95 c 2,11,-1
 138 322 l 1,12,-1
 32 322 l 1,13,-1
 38 364 l 1,14,-1
 144 364 l 1,15,-1
 189 684 l 1,16,-1
 237 684 l 1,17,-1
 192 364 l 1,18,-1
 296 364 l 1,19,-1
 290 322 l 1,0,-1
EndSplineSet
Substitution2: "'c2sc' Capitals to Small Capitals lookup 27 subtable" uni0249.sc
Substitution2: "'aalt' Access All Alternates lookup 0 subtable" uni0249.sc
Position2: "'cpsp' Capital Spacing lookup 0 subtable" dx=5 dy=0 dh=10 dv=0
EndChar

StartChar: K
Encoding: 75 75 142
Width: 531
GlyphClass: 2
Flags: W
AnchorPoint: "Anchor-18" 0 0 basechar 0
AnchorPoint: "Anchor-17" 0 0 basechar 0
AnchorPoint: "Anchor-16" 358 684 basechar 0
AnchorPoint: "Anchor-15" 0 0 basechar 0
AnchorPoint: "Anchor-14" 266 0 basechar 0
LayerCount: 2
Fore
SplineSet
77 0 m 1,0,-1
 174 684 l 1,1,-1
 222 684 l 1,2,-1
 125 0 l 1,3,-1
 77 0 l 1,0,-1
438 0 m 1,4,-1
 181 367 l 1,5,-1
 516 684 l 1,6,-1
 574 684 l 1,7,-1
 236 365 l 1,8,-1
 494 0 l 1,9,-1
 438 0 l 1,4,-1
EndSplineSet
Substitution2: "'c2sc' Capitals to Small Capitals lookup 27 subtable" k.sc
Substitution2: "'aalt' Access All Alternates lookup 0 subtable" k.sc
Position2: "'cpsp' Capital Spacing lookup 0 subtable" dx=5 dy=0 dh=10 dv=0
EndChar

StartChar: uni0198
Encoding: 408 408 145
Width: 567
GlyphClass: 2
Flags: W
AnchorPoint: "Anchor-18" 0 0 basechar 0
AnchorPoint: "Anchor-17" 0 0 basechar 0
AnchorPoint: "Anchor-16" 344 684 basechar 0
AnchorPoint: "Anchor-15" 0 0 basechar 0
AnchorPoint: "Anchor-14" 248 0 basechar 0
LayerCount: 2
Fore
SplineSet
181 367 m 1,0,-1
 406 619 l 2,1,2
 444 662 444 662 471.5 678 c 128,-1,3
 499 694 499 694 535 694 c 0,4,5
 563 694 563 694 583.5 683.5 c 128,-1,6
 604 673 604 673 622 654 c 1,7,-1
 595 627 l 1,8,9
 579 641 579 641 566.5 647.5 c 128,-1,10
 554 654 554 654 535 654 c 0,11,12
 512 654 512 654 492.5 642 c 128,-1,13
 473 630 473 630 437 590 c 2,14,-1
 236 367 l 1,15,-1
 494 0 l 1,16,-1
 436 0 l 1,17,-1
 181 367 l 1,0,-1
77 0 m 1,18,-1
 174 684 l 1,19,-1
 222 684 l 1,20,-1
 125 0 l 1,21,-1
 77 0 l 1,18,-1
EndSplineSet
Substitution2: "'c2sc' Capitals to Small Capitals lookup 27 subtable" uni0199.sc
Substitution2: "'aalt' Access All Alternates lookup 0 subtable" uni0199.sc
Position2: "'cpsp' Capital Spacing lookup 0 subtable" dx=5 dy=0 dh=10 dv=0
EndChar

StartChar: L
Encoding: 76 76 146
Width: 465
GlyphClass: 2
Flags: W
AnchorPoint: "Anchor-18" 375 363 basechar 0
AnchorPoint: "Anchor-17" 257 684 basechar 0
AnchorPoint: "Anchor-16" 198 684 basechar 0
AnchorPoint: "Anchor-15" 0 0 basechar 0
AnchorPoint: "Anchor-14" 241 0 basechar 0
LayerCount: 2
Fore
SplineSet
221 684 m 1,0,-1
 132 44 l 1,1,-1
 418 44 l 1,2,-1
 405 0 l 1,3,-1
 77 0 l 1,4,-1
 174 684 l 1,5,-1
 221 684 l 1,0,-1
EndSplineSet
Substitution2: "'c2sc' Capitals to Small Capitals lookup 27 subtable" l.sc
Substitution2: "'aalt' Access All Alternates lookup 0 subtable" l.sc
Position2: "'cpsp' Capital Spacing lookup 0 subtable" dx=5 dy=0 dh=10 dv=0
EndChar

StartChar: uni023D
Encoding: 573 573 149
Width: 484
GlyphClass: 2
Flags: W
AnchorPoint: "Anchor-18" 394 363 basechar 0
AnchorPoint: "Anchor-17" 276 684 basechar 0
AnchorPoint: "Anchor-16" 217 684 basechar 0
AnchorPoint: "Anchor-15" 0 0 basechar 0
AnchorPoint: "Anchor-14" 260 0 basechar 0
LayerCount: 2
Fore
SplineSet
151 44 m 1,0,-1
 437 44 l 1,1,-1
 424 0 l 1,2,-1
 96 0 l 1,3,-1
 145 342 l 1,4,-1
 42 342 l 1,5,-1
 48 384 l 1,6,-1
 150 384 l 1,7,-1
 193 684 l 1,8,-1
 240 684 l 1,9,-1
 198 384 l 1,10,-1
 306 384 l 1,11,-1
 300 342 l 1,12,-1
 192 342 l 1,13,-1
 151 44 l 1,0,-1
EndSplineSet
Substitution2: "'c2sc' Capitals to Small Capitals lookup 27 subtable" uni019A.sc
Substitution2: "'aalt' Access All Alternates lookup 0 subtable" uni019A.sc
Position2: "'cpsp' Capital Spacing lookup 0 subtable" dx=5 dy=0 dh=10 dv=0
EndChar

StartChar: uniA7AD
Encoding: 42925 42925 150
Width: 500
GlyphClass: 2
Flags: W
AnchorPoint: "Anchor-18" 410 363 basechar 0
AnchorPoint: "Anchor-17" 292 684 basechar 0
AnchorPoint: "Anchor-16" 233 684 basechar 0
AnchorPoint: "Anchor-15" 0 0 basechar 0
AnchorPoint: "Anchor-14" 276 0 basechar 0
LayerCount: 2
Fore
SplineSet
453 44 m 1,0,-1
 440 0 l 1,1,-1
 112 0 l 1,2,-1
 151 272 l 1,3,4
 96 273 96 273 66 295.5 c 128,-1,5
 36 318 36 318 36 361 c 0,6,7
 36 405 36 405 66.5 430.5 c 128,-1,8
 97 456 97 456 144 456 c 0,9,10
 160 456 160 456 176 454 c 1,11,-1
 209 684 l 1,12,-1
 256 684 l 1,13,-1
 204 309 l 1,14,15
 254 310 254 310 321 322 c 1,16,-1
 321 286 l 1,17,18
 260 275 260 275 199 272 c 1,19,-1
 167 44 l 1,20,-1
 453 44 l 1,0,-1
97 321.5 m 128,-1,22
 116 309 116 309 156 309 c 1,23,-1
 171 418 l 1,24,25
 157 420 157 420 144 420 c 0,26,27
 113 420 113 420 95.5 404.5 c 128,-1,28
 78 389 78 389 78 361 c 0,29,21
 78 334 78 334 97 321.5 c 128,-1,22
EndSplineSet
Substitution2: "'c2sc' Capitals to Small Capitals lookup 27 subtable" uniA7AD.sc
Substitution2: "'aalt' Access All Alternates lookup 0 subtable" uniA7AD.sc
Position2: "'cpsp' Capital Spacing lookup 0 subtable" dx=5 dy=0 dh=10 dv=0
EndChar

StartChar: Lslash
Encoding: 321 321 157
Width: 476
GlyphClass: 2
Flags: W
AnchorPoint: "Anchor-18" 386 363 basechar 0
AnchorPoint: "Anchor-17" 268 684 basechar 0
AnchorPoint: "Anchor-16" 209 684 basechar 0
AnchorPoint: "Anchor-15" 0 0 basechar 0
AnchorPoint: "Anchor-14" 252 0 basechar 0
LayerCount: 2
Fore
SplineSet
143 44 m 1,0,-1
 429 44 l 1,1,-1
 416 0 l 1,2,-1
 88 0 l 1,3,-1
 129 289 l 1,4,-1
 59 248 l 1,5,-1
 40 281 l 1,6,-1
 136 336 l 1,7,-1
 185 684 l 1,8,-1
 232 684 l 1,9,-1
 188 367 l 1,10,-1
 389 483 l 1,11,-1
 407 449 l 1,12,-1
 181 319 l 1,13,-1
 143 44 l 1,0,-1
EndSplineSet
Substitution2: "'c2sc' Capitals to Small Capitals lookup 27 subtable" lslash.sc
Substitution2: "'aalt' Access All Alternates lookup 0 subtable" lslash.sc
Position2: "'cpsp' Capital Spacing lookup 0 subtable" dx=5 dy=0 dh=10 dv=0
EndChar

StartChar: M
Encoding: 77 77 158
Width: 766
GlyphClass: 2
Flags: W
AnchorPoint: "Anchor-18" 0 0 basechar 0
AnchorPoint: "Anchor-17" 0 0 basechar 0
AnchorPoint: "Anchor-16" 439 684 basechar 0
AnchorPoint: "Anchor-15" 0 0 basechar 0
AnchorPoint: "Anchor-14" 349 0 basechar 0
LayerCount: 2
Fore
SplineSet
658 0 m 1,0,-1
 612 0 l 1,1,-1
 625 335 l 2,2,3
 633 565 633 565 640 640 c 1,4,-1
 381 82 l 1,5,-1
 335 82 l 1,6,-1
 228 639 l 1,7,8
 216 576 216 576 160 337 c 2,9,-1
 80 0 l 1,10,-1
 35 0 l 1,11,-1
 198 684 l 1,12,-1
 263 684 l 1,13,-1
 365 138 l 1,14,-1
 615 684 l 1,15,-1
 685 684 l 1,16,-1
 658 0 l 1,0,-1
EndSplineSet
Substitution2: "'c2sc' Capitals to Small Capitals lookup 27 subtable" m.sc
Substitution2: "'aalt' Access All Alternates lookup 0 subtable" m.sc
Position2: "'cpsp' Capital Spacing lookup 0 subtable" dx=5 dy=0 dh=10 dv=0
EndChar

StartChar: uni019C
Encoding: 412 412 161
Width: 924
GlyphClass: 2
Flags: W
AnchorPoint: "Anchor-18" 0 0 basechar 0
AnchorPoint: "Anchor-17" 0 0 basechar 0
AnchorPoint: "Anchor-16" 522 684 basechar 0
AnchorPoint: "Anchor-15" 0 0 basechar 0
AnchorPoint: "Anchor-14" 426 0 basechar 0
LayerCount: 2
Fore
SplineSet
869 684 m 1,0,-1
 773 0 l 1,1,-1
 732 0 l 1,2,-1
 741 96 l 1,3,4
 703 46 703 46 655.5 17.5 c 128,-1,5
 608 -11 608 -11 554 -11 c 0,6,7
 498 -11 498 -11 464 19 c 128,-1,8
 430 49 430 49 422 104 c 1,9,10
 380 50 380 50 330 19.5 c 128,-1,11
 280 -11 280 -11 225 -11 c 0,12,13
 160 -11 160 -11 125.5 28 c 128,-1,14
 91 67 91 67 91 138 c 0,15,16
 91 160 91 160 94 184 c 2,17,-1
 164 684 l 1,18,-1
 211 684 l 1,19,-1
 140 178 l 2,20,21
 137 157 137 157 137 139 c 0,22,23
 137 86 137 86 160.5 58.5 c 128,-1,24
 184 31 184 31 230 31 c 0,25,26
 286 31 286 31 332 63.5 c 128,-1,27
 378 96 378 96 420 155 c 1,28,-1
 423 184 l 1,29,-1
 493 684 l 1,30,-1
 540 684 l 1,31,-1
 469 178 l 2,32,33
 466 157 466 157 466 139 c 0,34,35
 466 86 466 86 490 58.5 c 128,-1,36
 514 31 514 31 560 31 c 0,37,38
 662 31 662 31 747 153 c 1,39,-1
 822 684 l 1,40,-1
 869 684 l 1,0,-1
EndSplineSet
Substitution2: "'c2sc' Capitals to Small Capitals lookup 27 subtable" uni026F.sc
Substitution2: "'aalt' Access All Alternates lookup 0 subtable" uni026F.sc
Position2: "'cpsp' Capital Spacing lookup 0 subtable" dx=5 dy=0 dh=10 dv=0
EndChar

StartChar: N
Encoding: 78 78 162
Width: 667
GlyphClass: 2
Flags: W
AnchorPoint: "Anchor-18" 0 0 basechar 0
AnchorPoint: "Anchor-17" 0 0 basechar 0
AnchorPoint: "Anchor-16" 401 684 basechar 0
AnchorPoint: "Anchor-15" 0 0 basechar 0
AnchorPoint: "Anchor-14" 297 0 basechar 0
LayerCount: 2
Fore
SplineSet
516 0 m 1,0,-1
 456 0 l 1,1,-1
 206 639 l 1,2,3
 203 561 203 561 180 404 c 2,4,-1
 123 0 l 1,5,-1
 77 0 l 1,6,-1
 174 684 l 1,7,-1
 235 684 l 1,8,-1
 485 46 l 1,9,10
 490 133 490 133 506 255 c 2,11,-1
 567 684 l 1,12,-1
 612 684 l 1,13,-1
 516 0 l 1,0,-1
EndSplineSet
Substitution2: "'c2sc' Capitals to Small Capitals lookup 27 subtable" n.sc
Substitution2: "'aalt' Access All Alternates lookup 0 subtable" n.sc
Position2: "'cpsp' Capital Spacing lookup 0 subtable" dx=5 dy=0 dh=10 dv=0
EndChar

StartChar: Eng
Encoding: 330 330 171
Width: 667
GlyphClass: 2
Flags: W
AnchorPoint: "Anchor-18" 0 0 basechar 0
AnchorPoint: "Anchor-17" 0 0 basechar 0
AnchorPoint: "Anchor-16" 401 684 basechar 0
AnchorPoint: "Anchor-15" 0 0 basechar 0
AnchorPoint: "Anchor-14" 297 0 basechar 0
LayerCount: 2
Fore
SplineSet
612 684 m 1,0,-1
 516 0 l 1,1,-1
 505 -77 l 2,2,3
 496 -140 496 -140 460.5 -171.5 c 128,-1,4
 425 -203 425 -203 373 -203 c 0,5,6
 322 -203 322 -203 279 -169 c 1,7,-1
 302 -139 l 1,8,9
 318 -150 318 -150 333.5 -156 c 128,-1,10
 349 -162 349 -162 372 -162 c 0,11,12
 405 -162 405 -162 428 -141 c 128,-1,13
 451 -120 451 -120 457 -74 c 2,14,-1
 468 0 l 1,15,-1
 456 0 l 1,16,-1
 206 639 l 1,17,18
 203 561 203 561 180 404 c 2,19,-1
 123 0 l 1,20,-1
 77 0 l 1,21,-1
 174 684 l 1,22,-1
 235 684 l 1,23,-1
 485 46 l 1,24,25
 490 133 490 133 506 255 c 2,26,-1
 567 684 l 1,27,-1
 612 684 l 1,0,-1
EndSplineSet
Substitution2: "'ss01' Style Set 1 lookup 34 subtable" Eng.ss01
Substitution2: "'salt' Stylistic Alternatives lookup 33 subtable" Eng.ss01
Substitution2: "'c2sc' Capitals to Small Capitals lookup 27 subtable" eng.sc
AlternateSubs2: "'aalt' Access All Alternates lookup 1 subtable" eng.sc Eng.ss01
Position2: "'cpsp' Capital Spacing lookup 0 subtable" dx=5 dy=0 dh=10 dv=0
EndChar

StartChar: uni019D
Encoding: 413 413 172
Width: 667
GlyphClass: 2
Flags: W
AnchorPoint: "Anchor-18" 0 0 basechar 0
AnchorPoint: "Anchor-17" 0 0 basechar 0
AnchorPoint: "Anchor-16" 401 684 basechar 0
AnchorPoint: "Anchor-15" 0 0 basechar 0
AnchorPoint: "Anchor-14" 297 0 basechar 0
LayerCount: 2
Fore
SplineSet
612 684 m 1,0,-1
 516 0 l 1,1,-1
 456 0 l 1,2,-1
 206 639 l 1,3,4
 203 561 203 561 180 404 c 2,5,-1
 123 0 l 1,6,-1
 112 -77 l 2,7,8
 103 -140 103 -140 68.5 -171.5 c 128,-1,9
 34 -203 34 -203 -18 -203 c 256,10,11
 -70 -203 -70 -203 -112 -169 c 1,12,-1
 -89 -140 l 1,13,14
 -72 -152 -72 -152 -56.5 -157.5 c 128,-1,15
 -41 -163 -41 -163 -18 -163 c 0,16,17
 54 -163 54 -163 67 -74 c 2,18,-1
 77 0 l 1,19,-1
 174 684 l 1,20,-1
 235 684 l 1,21,-1
 485 46 l 1,22,23
 490 133 490 133 506 255 c 2,24,-1
 567 684 l 1,25,-1
 612 684 l 1,0,-1
EndSplineSet
Substitution2: "'ss01' Style Set 1 lookup 34 subtable" uni019D.ss01
Substitution2: "'salt' Stylistic Alternatives lookup 33 subtable" uni019D.ss01
Substitution2: "'c2sc' Capitals to Small Capitals lookup 27 subtable" uni0272.sc
AlternateSubs2: "'aalt' Access All Alternates lookup 1 subtable" uni0272.sc uni019D.ss01
Position2: "'cpsp' Capital Spacing lookup 0 subtable" dx=5 dy=0 dh=10 dv=0
EndChar

StartChar: uni0220
Encoding: 544 544 174
Width: 657
GlyphClass: 2
Flags: W
AnchorPoint: "Anchor-18" 0 0 basechar 0
AnchorPoint: "Anchor-17" 0 0 basechar 0
AnchorPoint: "Anchor-16" 389 684 basechar 0
AnchorPoint: "Anchor-15" 0 0 basechar 0
AnchorPoint: "Anchor-14" 0 0 basechar 0
LayerCount: 2
Fore
SplineSet
547 654 m 128,-1,1
 586 614 586 614 586 540 c 0,2,3
 586 518 586 518 583 494 c 2,4,-1
 486 -195 l 1,5,-1
 439 -195 l 1,6,-1
 535 489 l 2,7,8
 539 523 539 523 539 535 c 0,9,10
 539 653 539 653 427 653 c 0,11,12
 362 653 362 653 307 620.5 c 128,-1,13
 252 588 252 588 200 532 c 1,14,-1
 125 0 l 1,15,-1
 77 0 l 1,16,-1
 174 684 l 1,17,-1
 215 684 l 1,18,-1
 206 584 l 1,19,20
 307 694 307 694 433 694 c 0,21,0
 508 694 508 694 547 654 c 128,-1,1
EndSplineSet
Substitution2: "'c2sc' Capitals to Small Capitals lookup 27 subtable" uni0220.sc
Substitution2: "'aalt' Access All Alternates lookup 0 subtable" uni0220.sc
Position2: "'cpsp' Capital Spacing lookup 0 subtable" dx=5 dy=0 dh=10 dv=0
EndChar

StartChar: O
Encoding: 79 79 176
Width: 689
GlyphClass: 2
Flags: W
AnchorPoint: "Anchor-18" 0 0 basechar 0
AnchorPoint: "Anchor-17" 598 684 basechar 0
AnchorPoint: "Anchor-16" 405 684 basechar 0
AnchorPoint: "Anchor-15" 398 0 basechar 0
AnchorPoint: "Anchor-14" 307 0 basechar 0
LayerCount: 2
Fore
SplineSet
575 624.5 m 128,-1,1
 637 555 637 555 637 425 c 0,2,3
 637 325 637 325 604.5 225 c 128,-1,4
 572 125 572 125 498 57 c 128,-1,5
 424 -11 424 -11 309 -11 c 0,6,7
 200 -11 200 -11 137.5 60 c 128,-1,8
 75 131 75 131 75 261 c 0,9,10
 75 358 75 358 108.5 457.5 c 128,-1,11
 142 557 142 557 216 625.5 c 128,-1,12
 290 694 290 694 404 694 c 0,13,0
 513 694 513 694 575 624.5 c 128,-1,1
241.5 590.5 m 128,-1,15
 179 528 179 528 151.5 437 c 128,-1,16
 124 346 124 346 124 259 c 0,17,18
 124 146 124 146 173.5 88.5 c 128,-1,19
 223 31 223 31 310 31 c 0,20,21
 411 31 411 31 473.5 94 c 128,-1,22
 536 157 536 157 562 248 c 128,-1,23
 588 339 588 339 588 427 c 0,24,25
 588 540 588 540 539.5 596.5 c 128,-1,26
 491 653 491 653 402 653 c 0,27,14
 304 653 304 653 241.5 590.5 c 128,-1,15
EndSplineSet
Substitution2: "Single Substitution lookup 44 subtable" ordmasculine
Substitution2: "'c2sc' Capitals to Small Capitals lookup 27 subtable" o.sc
AlternateSubs2: "'aalt' Access All Alternates lookup 1 subtable" ordmasculine o.sc
Position2: "'cpsp' Capital Spacing lookup 0 subtable" dx=5 dy=0 dh=10 dv=0
EndChar

StartChar: uni0222
Encoding: 546 546 177
Width: 633
GlyphClass: 2
Flags: W
AnchorPoint: "Anchor-18" 0 0 basechar 0
AnchorPoint: "Anchor-17" 0 0 basechar 0
AnchorPoint: "Anchor-16" 376 684 basechar 0
AnchorPoint: "Anchor-15" 0 0 basechar 0
AnchorPoint: "Anchor-14" 280 0 basechar 0
LayerCount: 2
Fore
SplineSet
520.5 442 m 128,-1,1
 489 400 489 400 430 380 c 1,2,3
 492 363 492 363 524.5 322.5 c 128,-1,4
 557 282 557 282 557 223 c 0,5,6
 557 155 557 155 522.5 101.5 c 128,-1,7
 488 48 488 48 425 18.5 c 128,-1,8
 362 -11 362 -11 281 -11 c 0,9,10
 173 -11 173 -11 116 37.5 c 128,-1,11
 59 86 59 86 59 167 c 256,12,13
 59 248 59 248 107.5 304 c 128,-1,14
 156 360 156 360 240 381 c 1,15,16
 197 398 197 398 176 430 c 128,-1,17
 155 462 155 462 155 513 c 0,18,19
 155 532 155 532 158 553 c 2,20,-1
 176 684 l 1,21,-1
 224 684 l 1,22,-1
 205 552 l 2,23,24
 202 531 202 531 202 513 c 0,25,26
 202 455 202 455 234.5 427 c 128,-1,27
 267 399 267 399 335 399 c 0,28,29
 421 399 421 399 462.5 440.5 c 128,-1,30
 504 482 504 482 514 555 c 2,31,-1
 532 684 l 1,32,-1
 580 684 l 1,33,-1
 561 550 l 2,34,0
 552 484 552 484 520.5 442 c 128,-1,1
333 358 m 0,36,37
 230 358 230 358 169 306 c 128,-1,38
 108 254 108 254 108 167 c 0,39,40
 108 102 108 102 151 66.5 c 128,-1,41
 194 31 194 31 282 31 c 0,42,43
 387 31 387 31 447 82 c 128,-1,44
 507 133 507 133 507 222 c 0,45,35
 507 358 507 358 333 358 c 0,36,37
EndSplineSet
Substitution2: "'c2sc' Capitals to Small Capitals lookup 27 subtable" uni0223.sc
Substitution2: "'aalt' Access All Alternates lookup 0 subtable" uni0223.sc
Position2: "'cpsp' Capital Spacing lookup 0 subtable" dx=5 dy=0 dh=10 dv=0
EndChar

StartChar: uni1ED0
Encoding: 7888 7888 183
Width: 689
GlyphClass: 2
Flags: W
AnchorPoint: "Anchor-18" 0 0 basechar 0
AnchorPoint: "Anchor-17" 498 713 basechar 0
AnchorPoint: "Anchor-16" 426 855 basechar 0
AnchorPoint: "Anchor-15" 398 0 basechar 0
AnchorPoint: "Anchor-14" 0 0 basechar 0
LayerCount: 2
Fore
SplineSet
618 979 m 1,0,-1
 648 947 l 1,1,-1
 518 831 l 1,2,-1
 497 852 l 1,3,-1
 618 979 l 1,0,-1
292 731 m 1,4,-1
 273 757 l 1,5,-1
 413 855 l 1,6,-1
 440 855 l 1,7,-1
 553 756 l 1,8,-1
 531 731 l 1,9,-1
 423 811 l 1,10,-1
 292 731 l 1,4,-1
575 624.5 m 128,-1,12
 637 555 637 555 637 425 c 0,13,14
 637 325 637 325 604.5 225 c 128,-1,15
 572 125 572 125 498 57 c 128,-1,16
 424 -11 424 -11 309 -11 c 0,17,18
 200 -11 200 -11 137.5 60 c 128,-1,19
 75 131 75 131 75 261 c 0,20,21
 75 358 75 358 108.5 457.5 c 128,-1,22
 142 557 142 557 216 625.5 c 128,-1,23
 290 694 290 694 404 694 c 0,24,11
 513 694 513 694 575 624.5 c 128,-1,12
241.5 590.5 m 128,-1,26
 179 528 179 528 151.5 437 c 128,-1,27
 124 346 124 346 124 259 c 0,28,29
 124 146 124 146 173.5 88.5 c 128,-1,30
 223 31 223 31 310 31 c 0,31,32
 411 31 411 31 473.5 94 c 128,-1,33
 536 157 536 157 562 248 c 128,-1,34
 588 339 588 339 588 427 c 0,35,36
 588 540 588 540 539.5 596.5 c 128,-1,37
 491 653 491 653 402 653 c 0,38,25
 304 653 304 653 241.5 590.5 c 128,-1,26
EndSplineSet
Substitution2: "'c2sc' Capitals to Small Capitals lookup 27 subtable" uni1ED1.sc
Substitution2: "'aalt' Access All Alternates lookup 0 subtable" uni1ED1.sc
Position2: "'cpsp' Capital Spacing lookup 0 subtable" dx=5 dy=0 dh=10 dv=0
EndChar

StartChar: uni1ED2
Encoding: 7890 7890 185
Width: 689
GlyphClass: 2
Flags: W
AnchorPoint: "Anchor-18" 0 0 basechar 0
AnchorPoint: "Anchor-17" 495 713 basechar 0
AnchorPoint: "Anchor-16" 423 855 basechar 0
AnchorPoint: "Anchor-15" 398 0 basechar 0
AnchorPoint: "Anchor-14" 0 0 basechar 0
LayerCount: 2
Fore
SplineSet
254 979 m 1,0,-1
 340 849 l 1,1,-1
 317 831 l 1,2,-1
 218 950 l 1,3,-1
 254 979 l 1,0,-1
289 731 m 1,4,-1
 270 757 l 1,5,-1
 410 855 l 1,6,-1
 437 855 l 1,7,-1
 550 756 l 1,8,-1
 528 731 l 1,9,-1
 420 811 l 1,10,-1
 289 731 l 1,4,-1
575 624.5 m 128,-1,12
 637 555 637 555 637 425 c 0,13,14
 637 325 637 325 604.5 225 c 128,-1,15
 572 125 572 125 498 57 c 128,-1,16
 424 -11 424 -11 309 -11 c 0,17,18
 200 -11 200 -11 137.5 60 c 128,-1,19
 75 131 75 131 75 261 c 0,20,21
 75 358 75 358 108.5 457.5 c 128,-1,22
 142 557 142 557 216 625.5 c 128,-1,23
 290 694 290 694 404 694 c 0,24,11
 513 694 513 694 575 624.5 c 128,-1,12
241.5 590.5 m 128,-1,26
 179 528 179 528 151.5 437 c 128,-1,27
 124 346 124 346 124 259 c 0,28,29
 124 146 124 146 173.5 88.5 c 128,-1,30
 223 31 223 31 310 31 c 0,31,32
 411 31 411 31 473.5 94 c 128,-1,33
 536 157 536 157 562 248 c 128,-1,34
 588 339 588 339 588 427 c 0,35,36
 588 540 588 540 539.5 596.5 c 128,-1,37
 491 653 491 653 402 653 c 0,38,25
 304 653 304 653 241.5 590.5 c 128,-1,26
EndSplineSet
Substitution2: "'c2sc' Capitals to Small Capitals lookup 27 subtable" uni1ED3.sc
Substitution2: "'aalt' Access All Alternates lookup 0 subtable" uni1ED3.sc
Position2: "'cpsp' Capital Spacing lookup 0 subtable" dx=5 dy=0 dh=10 dv=0
EndChar

StartChar: uni1ED6
Encoding: 7894 7894 187
Width: 689
GlyphClass: 2
Flags: W
AnchorPoint: "Anchor-18" 0 0 basechar 0
AnchorPoint: "Anchor-17" 494 713 basechar 0
AnchorPoint: "Anchor-16" 435 971 basechar 0
AnchorPoint: "Anchor-15" 398 0 basechar 0
AnchorPoint: "Anchor-14" 0 0 basechar 0
LayerCount: 2
Fore
SplineSet
456.5 894.5 m 128,-1,1
 442 901 442 901 422 913 c 0,2,3
 408 923 408 923 397.5 927.5 c 128,-1,4
 387 932 387 932 376 932 c 0,5,6
 357 932 357 932 344.5 923.5 c 128,-1,7
 332 915 332 915 313 892 c 1,8,-1
 286 911 l 1,9,10
 330 971 330 971 376 971 c 0,11,12
 393 971 393 971 406.5 965 c 128,-1,13
 420 959 420 959 439 947 c 0,14,15
 454 937 454 937 465.5 931.5 c 128,-1,16
 477 926 477 926 489 926 c 0,17,18
 505 926 505 926 519.5 936.5 c 128,-1,19
 534 947 534 947 552 970 c 1,20,-1
 580 953 l 1,21,22
 539 888 539 888 490 888 c 0,23,0
 471 888 471 888 456.5 894.5 c 128,-1,1
288 731 m 1,24,-1
 269 757 l 1,25,-1
 409 855 l 1,26,-1
 436 855 l 1,27,-1
 549 756 l 1,28,-1
 527 731 l 1,29,-1
 419 811 l 1,30,-1
 288 731 l 1,24,-1
575 624.5 m 128,-1,32
 637 555 637 555 637 425 c 0,33,34
 637 325 637 325 604.5 225 c 128,-1,35
 572 125 572 125 498 57 c 128,-1,36
 424 -11 424 -11 309 -11 c 0,37,38
 200 -11 200 -11 137.5 60 c 128,-1,39
 75 131 75 131 75 261 c 0,40,41
 75 358 75 358 108.5 457.5 c 128,-1,42
 142 557 142 557 216 625.5 c 128,-1,43
 290 694 290 694 404 694 c 0,44,31
 513 694 513 694 575 624.5 c 128,-1,32
241.5 590.5 m 128,-1,46
 179 528 179 528 151.5 437 c 128,-1,47
 124 346 124 346 124 259 c 0,48,49
 124 146 124 146 173.5 88.5 c 128,-1,50
 223 31 223 31 310 31 c 0,51,52
 411 31 411 31 473.5 94 c 128,-1,53
 536 157 536 157 562 248 c 128,-1,54
 588 339 588 339 588 427 c 0,55,56
 588 540 588 540 539.5 596.5 c 128,-1,57
 491 653 491 653 402 653 c 0,58,45
 304 653 304 653 241.5 590.5 c 128,-1,46
EndSplineSet
Substitution2: "'c2sc' Capitals to Small Capitals lookup 27 subtable" uni1ED7.sc
Substitution2: "'aalt' Access All Alternates lookup 0 subtable" uni1ED7.sc
Position2: "'cpsp' Capital Spacing lookup 0 subtable" dx=5 dy=0 dh=10 dv=0
EndChar

StartChar: Ohorn
Encoding: 416 416 196
Width: 689
GlyphClass: 2
Flags: W
AnchorPoint: "Anchor-18" 0 0 basechar 0
AnchorPoint: "Anchor-17" 650 684 basechar 0
AnchorPoint: "Anchor-16" 405 684 basechar 0
AnchorPoint: "Anchor-15" 398 0 basechar 0
AnchorPoint: "Anchor-14" 307 0 basechar 0
LayerCount: 2
Fore
SplineSet
661 637 m 128,-1,1
 639 610 639 610 593 600 c 1,2,3
 637 535 637 535 637 425 c 0,4,5
 637 325 637 325 604.5 225 c 128,-1,6
 572 125 572 125 498 57 c 128,-1,7
 424 -11 424 -11 309 -11 c 0,8,9
 200 -11 200 -11 137.5 60 c 128,-1,10
 75 131 75 131 75 261 c 0,11,12
 75 358 75 358 108.5 457.5 c 128,-1,13
 142 557 142 557 216 625.5 c 128,-1,14
 290 694 290 694 404 694 c 0,15,16
 511 694 511 694 571 629 c 1,17,18
 611 635 611 635 627.5 655 c 128,-1,19
 644 675 644 675 644 710 c 0,20,21
 644 738 644 738 636 759 c 1,22,-1
 673 767 l 1,23,24
 683 741 683 741 683 709 c 0,25,0
 683 664 683 664 661 637 c 128,-1,1
473.5 94 m 128,-1,27
 536 157 536 157 562 248 c 128,-1,28
 588 339 588 339 588 427 c 0,29,30
 588 540 588 540 539.5 596.5 c 128,-1,31
 491 653 491 653 402 653 c 0,32,33
 304 653 304 653 241.5 590.5 c 128,-1,34
 179 528 179 528 151.5 437 c 128,-1,35
 124 346 124 346 124 259 c 0,36,37
 124 146 124 146 173.5 88.5 c 128,-1,38
 223 31 223 31 310 31 c 0,39,26
 411 31 411 31 473.5 94 c 128,-1,27
EndSplineSet
Substitution2: "'c2sc' Capitals to Small Capitals lookup 27 subtable" ohorn.sc
Substitution2: "'aalt' Access All Alternates lookup 0 subtable" ohorn.sc
Position2: "'cpsp' Capital Spacing lookup 0 subtable" dx=5 dy=0 dh=10 dv=0
EndChar

StartChar: uni1EDA
Encoding: 7898 7898 197
Width: 689
GlyphClass: 2
Flags: W
AnchorPoint: "Anchor-18" 0 0 basechar 0
AnchorPoint: "Anchor-17" 650 684 basechar 0
AnchorPoint: "Anchor-16" 426 880 basechar 0
AnchorPoint: "Anchor-15" 398 0 basechar 0
AnchorPoint: "Anchor-14" 307 0 basechar 0
LayerCount: 2
Fore
SplineSet
518 834 m 1,0,-1
 317 759 l 1,1,-1
 306 787 l 1,2,-1
 502 878 l 1,3,-1
 518 834 l 1,0,-1
661 637 m 128,-1,5
 639 610 639 610 593 600 c 1,6,7
 637 535 637 535 637 425 c 0,8,9
 637 325 637 325 604.5 225 c 128,-1,10
 572 125 572 125 498 57 c 128,-1,11
 424 -11 424 -11 309 -11 c 0,12,13
 200 -11 200 -11 137.5 60 c 128,-1,14
 75 131 75 131 75 261 c 0,15,16
 75 358 75 358 108.5 457.5 c 128,-1,17
 142 557 142 557 216 625.5 c 128,-1,18
 290 694 290 694 404 694 c 0,19,20
 511 694 511 694 571 629 c 1,21,22
 611 635 611 635 627.5 655 c 128,-1,23
 644 675 644 675 644 710 c 0,24,25
 644 738 644 738 636 759 c 1,26,-1
 673 767 l 1,27,28
 683 741 683 741 683 709 c 0,29,4
 683 664 683 664 661 637 c 128,-1,5
473.5 94 m 128,-1,31
 536 157 536 157 562 248 c 128,-1,32
 588 339 588 339 588 427 c 0,33,34
 588 540 588 540 539.5 596.5 c 128,-1,35
 491 653 491 653 402 653 c 0,36,37
 304 653 304 653 241.5 590.5 c 128,-1,38
 179 528 179 528 151.5 437 c 128,-1,39
 124 346 124 346 124 259 c 0,40,41
 124 146 124 146 173.5 88.5 c 128,-1,42
 223 31 223 31 310 31 c 0,43,30
 411 31 411 31 473.5 94 c 128,-1,31
EndSplineSet
Substitution2: "'c2sc' Capitals to Small Capitals lookup 27 subtable" uni1EDB.sc
Substitution2: "'aalt' Access All Alternates lookup 0 subtable" uni1EDB.sc
Position2: "'cpsp' Capital Spacing lookup 0 subtable" dx=5 dy=0 dh=10 dv=0
EndChar

StartChar: uni1EE2
Encoding: 7906 7906 198
Width: 689
GlyphClass: 2
Flags: W
AnchorPoint: "Anchor-18" 0 0 basechar 0
AnchorPoint: "Anchor-17" 650 684 basechar 0
AnchorPoint: "Anchor-16" 405 684 basechar 0
AnchorPoint: "Anchor-15" 398 0 basechar 0
AnchorPoint: "Anchor-14" 289 -160 basechar 0
LayerCount: 2
Fore
SplineSet
661 637 m 128,-1,1
 639 610 639 610 593 600 c 1,2,3
 637 535 637 535 637 425 c 0,4,5
 637 325 637 325 604.5 225 c 128,-1,6
 572 125 572 125 498 57 c 128,-1,7
 424 -11 424 -11 309 -11 c 0,8,9
 200 -11 200 -11 137.5 60 c 128,-1,10
 75 131 75 131 75 261 c 0,11,12
 75 358 75 358 108.5 457.5 c 128,-1,13
 142 557 142 557 216 625.5 c 128,-1,14
 290 694 290 694 404 694 c 0,15,16
 511 694 511 694 571 629 c 1,17,18
 611 635 611 635 627.5 655 c 128,-1,19
 644 675 644 675 644 710 c 0,20,21
 644 738 644 738 636 759 c 1,22,-1
 673 767 l 1,23,24
 683 741 683 741 683 709 c 0,25,0
 683 664 683 664 661 637 c 128,-1,1
473.5 94 m 128,-1,27
 536 157 536 157 562 248 c 128,-1,28
 588 339 588 339 588 427 c 0,29,30
 588 540 588 540 539.5 596.5 c 128,-1,31
 491 653 491 653 402 653 c 0,32,33
 304 653 304 653 241.5 590.5 c 128,-1,34
 179 528 179 528 151.5 437 c 128,-1,35
 124 346 124 346 124 259 c 0,36,37
 124 146 124 146 173.5 88.5 c 128,-1,38
 223 31 223 31 310 31 c 0,39,26
 411 31 411 31 473.5 94 c 128,-1,27
318 -98.5 m 128,-1,41
 327 -107 327 -107 327 -121 c 0,42,43
 327 -138 327 -138 316 -149 c 128,-1,44
 305 -160 305 -160 288 -160 c 0,45,46
 273 -160 273 -160 264.5 -151.5 c 128,-1,47
 256 -143 256 -143 256 -129 c 0,48,49
 256 -112 256 -112 267 -101 c 128,-1,50
 278 -90 278 -90 294 -90 c 0,51,40
 309 -90 309 -90 318 -98.5 c 128,-1,41
EndSplineSet
Substitution2: "'c2sc' Capitals to Small Capitals lookup 27 subtable" uni1EE3.sc
Substitution2: "'aalt' Access All Alternates lookup 0 subtable" uni1EE3.sc
Position2: "'cpsp' Capital Spacing lookup 0 subtable" dx=5 dy=0 dh=10 dv=0
EndChar

StartChar: uni1EDC
Encoding: 7900 7900 199
Width: 689
GlyphClass: 2
Flags: W
AnchorPoint: "Anchor-18" 0 0 basechar 0
AnchorPoint: "Anchor-17" 650 684 basechar 0
AnchorPoint: "Anchor-16" 427 880 basechar 0
AnchorPoint: "Anchor-15" 398 0 basechar 0
AnchorPoint: "Anchor-14" 307 0 basechar 0
LayerCount: 2
Fore
SplineSet
523 787 m 1,0,-1
 506 759 l 1,1,-1
 329 834 l 1,2,-1
 352 877 l 1,3,-1
 523 787 l 1,0,-1
661 637 m 128,-1,5
 639 610 639 610 593 600 c 1,6,7
 637 535 637 535 637 425 c 0,8,9
 637 325 637 325 604.5 225 c 128,-1,10
 572 125 572 125 498 57 c 128,-1,11
 424 -11 424 -11 309 -11 c 0,12,13
 200 -11 200 -11 137.5 60 c 128,-1,14
 75 131 75 131 75 261 c 0,15,16
 75 358 75 358 108.5 457.5 c 128,-1,17
 142 557 142 557 216 625.5 c 128,-1,18
 290 694 290 694 404 694 c 0,19,20
 511 694 511 694 571 629 c 1,21,22
 611 635 611 635 627.5 655 c 128,-1,23
 644 675 644 675 644 710 c 0,24,25
 644 738 644 738 636 759 c 1,26,-1
 673 767 l 1,27,28
 683 741 683 741 683 709 c 0,29,4
 683 664 683 664 661 637 c 128,-1,5
473.5 94 m 128,-1,31
 536 157 536 157 562 248 c 128,-1,32
 588 339 588 339 588 427 c 0,33,34
 588 540 588 540 539.5 596.5 c 128,-1,35
 491 653 491 653 402 653 c 0,36,37
 304 653 304 653 241.5 590.5 c 128,-1,38
 179 528 179 528 151.5 437 c 128,-1,39
 124 346 124 346 124 259 c 0,40,41
 124 146 124 146 173.5 88.5 c 128,-1,42
 223 31 223 31 310 31 c 0,43,30
 411 31 411 31 473.5 94 c 128,-1,31
EndSplineSet
Substitution2: "'c2sc' Capitals to Small Capitals lookup 27 subtable" uni1EDD.sc
Substitution2: "'aalt' Access All Alternates lookup 0 subtable" uni1EDD.sc
Position2: "'cpsp' Capital Spacing lookup 0 subtable" dx=5 dy=0 dh=10 dv=0
EndChar

StartChar: uni1EDE
Encoding: 7902 7902 200
Width: 689
GlyphClass: 2
Flags: W
AnchorPoint: "Anchor-18" 0 0 basechar 0
AnchorPoint: "Anchor-17" 650 684 basechar 0
AnchorPoint: "Anchor-16" 448 973 basechar 0
AnchorPoint: "Anchor-15" 398 0 basechar 0
AnchorPoint: "Anchor-14" 307 0 basechar 0
LayerCount: 2
Fore
SplineSet
412 933.5 m 128,-1,1
 400 930 400 930 382 922 c 1,2,-1
 370 953 l 1,3,4
 405 973 405 973 447 973 c 0,5,6
 485 973 485 973 506.5 954 c 128,-1,7
 528 935 528 935 528 902 c 256,8,9
 528 869 528 869 505.5 848.5 c 128,-1,10
 483 828 483 828 444 823 c 1,11,-1
 438 778 l 1,12,-1
 398 778 l 1,13,-1
 406 847 l 1,14,15
 440 849 440 849 462 861.5 c 128,-1,16
 484 874 484 874 484 901 c 0,17,18
 484 937 484 937 442 937 c 0,19,0
 424 937 424 937 412 933.5 c 128,-1,1
661 637 m 128,-1,21
 639 610 639 610 593 600 c 1,22,23
 637 535 637 535 637 425 c 0,24,25
 637 325 637 325 604.5 225 c 128,-1,26
 572 125 572 125 498 57 c 128,-1,27
 424 -11 424 -11 309 -11 c 0,28,29
 200 -11 200 -11 137.5 60 c 128,-1,30
 75 131 75 131 75 261 c 0,31,32
 75 358 75 358 108.5 457.5 c 128,-1,33
 142 557 142 557 216 625.5 c 128,-1,34
 290 694 290 694 404 694 c 0,35,36
 511 694 511 694 571 629 c 1,37,38
 611 635 611 635 627.5 655 c 128,-1,39
 644 675 644 675 644 710 c 0,40,41
 644 738 644 738 636 759 c 1,42,-1
 673 767 l 1,43,44
 683 741 683 741 683 709 c 0,45,20
 683 664 683 664 661 637 c 128,-1,21
473.5 94 m 128,-1,47
 536 157 536 157 562 248 c 128,-1,48
 588 339 588 339 588 427 c 0,49,50
 588 540 588 540 539.5 596.5 c 128,-1,51
 491 653 491 653 402 653 c 0,52,53
 304 653 304 653 241.5 590.5 c 128,-1,54
 179 528 179 528 151.5 437 c 128,-1,55
 124 346 124 346 124 259 c 0,56,57
 124 146 124 146 173.5 88.5 c 128,-1,58
 223 31 223 31 310 31 c 0,59,46
 411 31 411 31 473.5 94 c 128,-1,47
EndSplineSet
Substitution2: "'c2sc' Capitals to Small Capitals lookup 27 subtable" uni1EDF.sc
Substitution2: "'aalt' Access All Alternates lookup 0 subtable" uni1EDF.sc
Position2: "'cpsp' Capital Spacing lookup 0 subtable" dx=5 dy=0 dh=10 dv=0
EndChar

StartChar: uni1EE0
Encoding: 7904 7904 201
Width: 689
GlyphClass: 2
Flags: W
AnchorPoint: "Anchor-18" 0 0 basechar 0
AnchorPoint: "Anchor-17" 650 684 basechar 0
AnchorPoint: "Anchor-16" 429 879 basechar 0
AnchorPoint: "Anchor-15" 398 0 basechar 0
AnchorPoint: "Anchor-14" 307 0 basechar 0
LayerCount: 2
Fore
SplineSet
338.5 831.5 m 128,-1,1
 326 823 326 823 307 800 c 1,2,-1
 280 819 l 1,3,4
 324 879 324 879 370 879 c 0,5,6
 387 879 387 879 400.5 873 c 128,-1,7
 414 867 414 867 433 855 c 0,8,9
 448 845 448 845 459.5 839.5 c 128,-1,10
 471 834 471 834 483 834 c 0,11,12
 499 834 499 834 513.5 844.5 c 128,-1,13
 528 855 528 855 546 878 c 1,14,-1
 574 861 l 1,15,16
 533 796 533 796 484 796 c 0,17,18
 465 796 465 796 450.5 802.5 c 128,-1,19
 436 809 436 809 416 821 c 0,20,21
 402 831 402 831 391.5 835.5 c 128,-1,22
 381 840 381 840 370 840 c 0,23,0
 351 840 351 840 338.5 831.5 c 128,-1,1
661 637 m 128,-1,25
 639 610 639 610 593 600 c 1,26,27
 637 535 637 535 637 425 c 0,28,29
 637 325 637 325 604.5 225 c 128,-1,30
 572 125 572 125 498 57 c 128,-1,31
 424 -11 424 -11 309 -11 c 0,32,33
 200 -11 200 -11 137.5 60 c 128,-1,34
 75 131 75 131 75 261 c 0,35,36
 75 358 75 358 108.5 457.5 c 128,-1,37
 142 557 142 557 216 625.5 c 128,-1,38
 290 694 290 694 404 694 c 0,39,40
 511 694 511 694 571 629 c 1,41,42
 611 635 611 635 627.5 655 c 128,-1,43
 644 675 644 675 644 710 c 0,44,45
 644 738 644 738 636 759 c 1,46,-1
 673 767 l 1,47,48
 683 741 683 741 683 709 c 0,49,24
 683 664 683 664 661 637 c 128,-1,25
473.5 94 m 128,-1,51
 536 157 536 157 562 248 c 128,-1,52
 588 339 588 339 588 427 c 0,53,54
 588 540 588 540 539.5 596.5 c 128,-1,55
 491 653 491 653 402 653 c 0,56,57
 304 653 304 653 241.5 590.5 c 128,-1,58
 179 528 179 528 151.5 437 c 128,-1,59
 124 346 124 346 124 259 c 0,60,61
 124 146 124 146 173.5 88.5 c 128,-1,62
 223 31 223 31 310 31 c 0,63,50
 411 31 411 31 473.5 94 c 128,-1,51
EndSplineSet
Substitution2: "'c2sc' Capitals to Small Capitals lookup 27 subtable" uni1EE1.sc
Substitution2: "'aalt' Access All Alternates lookup 0 subtable" uni1EE1.sc
Position2: "'cpsp' Capital Spacing lookup 0 subtable" dx=5 dy=0 dh=10 dv=0
EndChar

StartChar: uni01A2
Encoding: 418 418 203
Width: 893
GlyphClass: 2
Flags: W
AnchorPoint: "Anchor-18" 0 0 basechar 0
AnchorPoint: "Anchor-17" 0 0 basechar 0
AnchorPoint: "Anchor-16" 506 684 basechar 0
AnchorPoint: "Anchor-15" 0 0 basechar 0
AnchorPoint: "Anchor-14" 0 0 basechar 0
LayerCount: 2
Fore
SplineSet
792 666 m 128,-1,1
 822 637 822 637 822 585 c 0,2,3
 822 575 822 575 820 555 c 2,4,-1
 715 -195 l 1,5,-1
 667 -195 l 1,6,-1
 772 555 l 2,7,8
 774 566 774 566 774 586 c 0,9,10
 774 622 774 622 756.5 639 c 128,-1,11
 739 656 739 656 700 656 c 0,12,13
 668 656 668 656 639 647 c 128,-1,14
 610 638 610 638 578 621 c 1,15,16
 637 551 637 551 637 425 c 0,17,18
 637 325 637 325 604.5 225 c 128,-1,19
 572 125 572 125 498 57 c 128,-1,20
 424 -11 424 -11 309 -11 c 0,21,22
 200 -11 200 -11 137.5 60 c 128,-1,23
 75 131 75 131 75 261 c 0,24,25
 75 358 75 358 108.5 457.5 c 128,-1,26
 142 557 142 557 216 625.5 c 128,-1,27
 290 694 290 694 404 694 c 0,28,29
 493 694 493 694 551 647 c 1,30,31
 631 695 631 695 702 695 c 0,32,0
 762 695 762 695 792 666 c 128,-1,1
473.5 94 m 128,-1,34
 536 157 536 157 562 248 c 128,-1,35
 588 339 588 339 588 427 c 0,36,37
 588 540 588 540 539.5 596.5 c 128,-1,38
 491 653 491 653 402 653 c 0,39,40
 304 653 304 653 241.5 590.5 c 128,-1,41
 179 528 179 528 151.5 437 c 128,-1,42
 124 346 124 346 124 259 c 0,43,44
 124 146 124 146 173.5 88.5 c 128,-1,45
 223 31 223 31 310 31 c 0,46,33
 411 31 411 31 473.5 94 c 128,-1,34
EndSplineSet
Substitution2: "'c2sc' Capitals to Small Capitals lookup 27 subtable" uni01A3.sc
Substitution2: "'aalt' Access All Alternates lookup 0 subtable" uni01A3.sc
Position2: "'cpsp' Capital Spacing lookup 0 subtable" dx=5 dy=0 dh=10 dv=0
EndChar

StartChar: uniA7B6
Encoding: 42934 42934 208
Width: 839
GlyphClass: 2
Flags: W
AnchorPoint: "Anchor-18" 0 0 basechar 0
AnchorPoint: "Anchor-17" 0 0 basechar 0
AnchorPoint: "Anchor-16" 479 684 basechar 0
AnchorPoint: "Anchor-15" 0 0 basechar 0
AnchorPoint: "Anchor-14" 383 0 basechar 0
LayerCount: 2
Fore
SplineSet
113 37.5 m 128,-1,1
 72 86 72 86 72 191 c 0,2,3
 72 312 72 312 108 432.5 c 128,-1,4
 144 553 144 553 210 684 c 1,5,-1
 259 684 l 1,6,7
 120 414 120 414 120 189 c 0,8,9
 120 102 120 102 149.5 66.5 c 128,-1,10
 179 31 179 31 235 31 c 0,11,12
 294 31 294 31 333.5 69.5 c 128,-1,13
 373 108 373 108 386 202 c 2,14,-1
 413 397 l 1,15,-1
 462 397 l 1,16,-1
 434 198 l 2,17,18
 430 171 430 171 430 142 c 0,19,20
 430 88 430 88 453.5 59.5 c 128,-1,21
 477 31 477 31 531 31 c 0,22,23
 643 31 643 31 687.5 153 c 128,-1,24
 732 275 732 275 732 449 c 0,25,26
 732 505 732 505 724.5 559.5 c 128,-1,27
 717 614 717 614 702 684 c 1,28,-1
 749 684 l 1,29,30
 765 612 765 612 772.5 560 c 128,-1,31
 780 508 780 508 780 448 c 0,32,33
 780 251 780 251 724 120 c 128,-1,34
 668 -11 668 -11 532 -11 c 0,35,36
 469 -11 469 -11 436.5 19 c 128,-1,37
 404 49 404 49 398 111 c 1,38,39
 372 48 372 48 332.5 18.5 c 128,-1,40
 293 -11 293 -11 233 -11 c 0,41,0
 154 -11 154 -11 113 37.5 c 128,-1,1
EndSplineSet
Substitution2: "'c2sc' Capitals to Small Capitals lookup 27 subtable" uniA7B6.sc
Substitution2: "'aalt' Access All Alternates lookup 0 subtable" uniA7B6.sc
Position2: "'cpsp' Capital Spacing lookup 0 subtable" dx=5 dy=0 dh=10 dv=0
EndChar

StartChar: uni01EA
Encoding: 490 490 209
Width: 689
GlyphClass: 2
Flags: W
AnchorPoint: "Anchor-18" 0 0 basechar 0
AnchorPoint: "Anchor-17" 598 684 basechar 0
AnchorPoint: "Anchor-16" 405 684 basechar 0
AnchorPoint: "Anchor-15" 398 0 basechar 0
AnchorPoint: "Anchor-14" 307 0 basechar 0
LayerCount: 2
Fore
SplineSet
281 -60 m 128,-1,1
 249 -88 249 -88 249 -124 c 0,2,3
 249 -172 249 -172 307 -172 c 0,4,5
 331 -172 331 -172 364 -166 c 1,6,-1
 356 -207 l 1,7,8
 326 -213 326 -213 301 -213 c 0,9,10
 254 -213 254 -213 229 -191.5 c 128,-1,11
 204 -170 204 -170 204 -136 c 0,12,13
 204 -96 204 -96 227 -66 c 128,-1,14
 250 -36 250 -36 300 -11 c 1,15,16
 195 -8 195 -8 135 63 c 128,-1,17
 75 134 75 134 75 261 c 0,18,19
 75 358 75 358 108.5 457.5 c 128,-1,20
 142 557 142 557 216 625.5 c 128,-1,21
 290 694 290 694 404 694 c 0,22,23
 513 694 513 694 575 624.5 c 128,-1,24
 637 555 637 555 637 425 c 0,25,26
 637 337 637 337 611.5 247.5 c 128,-1,27
 586 158 586 158 529.5 89 c 128,-1,28
 473 20 473 20 384 -2 c 1,29,0
 313 -32 313 -32 281 -60 c 128,-1,1
173.5 88.5 m 128,-1,31
 223 31 223 31 310 31 c 0,32,33
 411 31 411 31 473.5 94 c 128,-1,34
 536 157 536 157 562 248 c 128,-1,35
 588 339 588 339 588 427 c 0,36,37
 588 540 588 540 539.5 596.5 c 128,-1,38
 491 653 491 653 402 653 c 0,39,40
 304 653 304 653 241.5 590.5 c 128,-1,41
 179 528 179 528 151.5 437 c 128,-1,42
 124 346 124 346 124 259 c 0,43,30
 124 146 124 146 173.5 88.5 c 128,-1,31
EndSplineSet
Substitution2: "'c2sc' Capitals to Small Capitals lookup 27 subtable" uni01EB.sc
Substitution2: "'aalt' Access All Alternates lookup 0 subtable" uni01EB.sc
Position2: "'cpsp' Capital Spacing lookup 0 subtable" dx=5 dy=0 dh=10 dv=0
EndChar

StartChar: uni01EC
Encoding: 492 492 210
Width: 689
GlyphClass: 2
Flags: W
AnchorPoint: "Anchor-18" 0 0 basechar 0
AnchorPoint: "Anchor-17" 598 684 basechar 0
AnchorPoint: "Anchor-16" 427 844 basechar 0
AnchorPoint: "Anchor-15" 398 0 basechar 0
AnchorPoint: "Anchor-14" 307 0 basechar 0
LayerCount: 2
Fore
SplineSet
542 844 m 1,0,-1
 536 805 l 1,1,-1
 307 805 l 1,2,-1
 314 844 l 1,3,-1
 542 844 l 1,0,-1
281 -60 m 128,-1,5
 249 -88 249 -88 249 -124 c 0,6,7
 249 -172 249 -172 307 -172 c 0,8,9
 331 -172 331 -172 364 -166 c 1,10,-1
 356 -207 l 1,11,12
 326 -213 326 -213 301 -213 c 0,13,14
 254 -213 254 -213 229 -191.5 c 128,-1,15
 204 -170 204 -170 204 -136 c 0,16,17
 204 -96 204 -96 227 -66 c 128,-1,18
 250 -36 250 -36 300 -11 c 1,19,20
 195 -8 195 -8 135 63 c 128,-1,21
 75 134 75 134 75 261 c 0,22,23
 75 358 75 358 108.5 457.5 c 128,-1,24
 142 557 142 557 216 625.5 c 128,-1,25
 290 694 290 694 404 694 c 0,26,27
 513 694 513 694 575 624.5 c 128,-1,28
 637 555 637 555 637 425 c 0,29,30
 637 337 637 337 611.5 247.5 c 128,-1,31
 586 158 586 158 529.5 89 c 128,-1,32
 473 20 473 20 384 -2 c 1,33,4
 313 -32 313 -32 281 -60 c 128,-1,5
173.5 88.5 m 128,-1,35
 223 31 223 31 310 31 c 0,36,37
 411 31 411 31 473.5 94 c 128,-1,38
 536 157 536 157 562 248 c 128,-1,39
 588 339 588 339 588 427 c 0,40,41
 588 540 588 540 539.5 596.5 c 128,-1,42
 491 653 491 653 402 653 c 0,43,44
 304 653 304 653 241.5 590.5 c 128,-1,45
 179 528 179 528 151.5 437 c 128,-1,46
 124 346 124 346 124 259 c 0,47,34
 124 146 124 146 173.5 88.5 c 128,-1,35
EndSplineSet
Substitution2: "'c2sc' Capitals to Small Capitals lookup 27 subtable" uni01ED.sc
Substitution2: "'aalt' Access All Alternates lookup 0 subtable" uni01ED.sc
Position2: "'cpsp' Capital Spacing lookup 0 subtable" dx=5 dy=0 dh=10 dv=0
EndChar

StartChar: uni0186
Encoding: 390 390 211
Width: 544
GlyphClass: 2
Flags: W
AnchorPoint: "Anchor-18" 0 0 basechar 0
AnchorPoint: "Anchor-17" 0 0 basechar 0
AnchorPoint: "Anchor-16" 281 684 basechar 0
AnchorPoint: "Anchor-15" 0 0 basechar 0
AnchorPoint: "Anchor-14" 185 0 basechar 0
LayerCount: 2
Fore
SplineSet
432.5 625.5 m 128,-1,1
 491 557 491 557 491 427 c 0,2,3
 492 314 492 314 454 213.5 c 128,-1,4
 416 113 416 113 343 51 c 128,-1,5
 270 -11 270 -11 171 -11 c 0,6,7
 113 -11 113 -11 72.5 7.5 c 128,-1,8
 32 26 32 26 -6 59 c 1,9,-1
 22 90 l 1,10,11
 58 61 58 61 89.5 47 c 128,-1,12
 121 33 121 33 170 33 c 0,13,14
 256 33 256 33 318 90 c 128,-1,15
 380 147 380 147 411.5 237.5 c 128,-1,16
 443 328 443 328 443 427 c 0,17,18
 443 542 443 542 396.5 597.5 c 128,-1,19
 350 653 350 653 272 653 c 0,20,21
 223 653 223 653 185 640.5 c 128,-1,22
 147 628 147 628 105 601 c 1,23,-1
 81 634 l 1,24,25
 125 664 125 664 170.5 679 c 128,-1,26
 216 694 216 694 276 694 c 0,27,0
 374 694 374 694 432.5 625.5 c 128,-1,1
EndSplineSet
Substitution2: "'c2sc' Capitals to Small Capitals lookup 27 subtable" uni0254.sc
Substitution2: "'aalt' Access All Alternates lookup 0 subtable" uni0254.sc
Position2: "'cpsp' Capital Spacing lookup 0 subtable" dx=5 dy=0 dh=10 dv=0
EndChar

StartChar: Oslash
Encoding: 216 216 212
Width: 689
GlyphClass: 2
Flags: W
AnchorPoint: "Anchor-18" 0 0 basechar 0
AnchorPoint: "Anchor-17" 0 0 basechar 0
AnchorPoint: "Anchor-16" 405 688 basechar 0
AnchorPoint: "Anchor-15" 0 0 basechar 0
AnchorPoint: "Anchor-14" 308 0 basechar 0
LayerCount: 2
Fore
SplineSet
606.5 576.5 m 128,-1,1
 637 515 637 515 637 425 c 0,2,3
 637 325 637 325 604.5 225 c 128,-1,4
 572 125 572 125 498 57 c 128,-1,5
 424 -11 424 -11 309 -11 c 0,6,7
 265 -11 265 -11 227 1 c 1,8,-1
 176 -117 l 1,9,-1
 136 -105 l 1,10,-1
 190 17 l 1,11,12
 135 48 135 48 105 110 c 128,-1,13
 75 172 75 172 75 261 c 0,14,15
 75 358 75 358 108.5 457.5 c 128,-1,16
 142 557 142 557 216 625.5 c 128,-1,17
 290 694 290 694 404 694 c 0,18,19
 445 694 445 694 483 683 c 1,20,-1
 535 807 l 1,21,-1
 576 795 l 1,22,-1
 520 668 l 1,23,0
 576 638 576 638 606.5 576.5 c 128,-1,1
211 55 m 1,25,-1
 469 644 l 1,26,27
 439 653 439 653 402 653 c 0,28,29
 303 653 303 653 241 590 c 128,-1,30
 179 527 179 527 151.5 436 c 128,-1,31
 124 345 124 345 124 256 c 0,32,24
 124 107 124 107 211 55 c 1,25,-1
473.5 94.5 m 128,-1,34
 536 158 536 158 562 249 c 128,-1,35
 588 340 588 340 588 430 c 0,36,37
 588 583 588 583 498 631 c 1,38,-1
 241 42 l 1,39,40
 274 31 274 31 310 31 c 0,41,33
 411 31 411 31 473.5 94.5 c 128,-1,34
EndSplineSet
Substitution2: "'c2sc' Capitals to Small Capitals lookup 27 subtable" oslash.sc
Substitution2: "'aalt' Access All Alternates lookup 0 subtable" oslash.sc
Position2: "'cpsp' Capital Spacing lookup 0 subtable" dx=5 dy=0 dh=10 dv=0
EndChar

StartChar: uni022C
Encoding: 556 556 216
Width: 689
GlyphClass: 2
Flags: W
AnchorPoint: "Anchor-18" 0 0 basechar 0
AnchorPoint: "Anchor-17" 598 684 basechar 0
AnchorPoint: "Anchor-16" 436 927 basechar 0
AnchorPoint: "Anchor-15" 398 0 basechar 0
AnchorPoint: "Anchor-14" 307 0 basechar 0
LayerCount: 2
Fore
SplineSet
545 888 m 1,0,-1
 316 888 l 1,1,-1
 323 927 l 1,2,-1
 551 927 l 1,3,-1
 545 888 l 1,0,-1
445.5 763.5 m 128,-1,5
 431 770 431 770 411 782 c 0,6,7
 397 792 397 792 386.5 796.5 c 128,-1,8
 376 801 376 801 365 801 c 0,9,10
 346 801 346 801 333.5 792.5 c 128,-1,11
 321 784 321 784 302 761 c 1,12,-1
 275 780 l 1,13,14
 319 840 319 840 365 840 c 0,15,16
 382 840 382 840 395.5 834 c 128,-1,17
 409 828 409 828 428 816 c 0,18,19
 443 806 443 806 454.5 800.5 c 128,-1,20
 466 795 466 795 478 795 c 0,21,22
 494 795 494 795 508.5 805.5 c 128,-1,23
 523 816 523 816 541 839 c 1,24,-1
 569 822 l 1,25,26
 528 757 528 757 479 757 c 0,27,4
 460 757 460 757 445.5 763.5 c 128,-1,5
575 624.5 m 128,-1,29
 637 555 637 555 637 425 c 0,30,31
 637 325 637 325 604.5 225 c 128,-1,32
 572 125 572 125 498 57 c 128,-1,33
 424 -11 424 -11 309 -11 c 0,34,35
 200 -11 200 -11 137.5 60 c 128,-1,36
 75 131 75 131 75 261 c 0,37,38
 75 358 75 358 108.5 457.5 c 128,-1,39
 142 557 142 557 216 625.5 c 128,-1,40
 290 694 290 694 404 694 c 0,41,28
 513 694 513 694 575 624.5 c 128,-1,29
241.5 590.5 m 128,-1,43
 179 528 179 528 151.5 437 c 128,-1,44
 124 346 124 346 124 259 c 0,45,46
 124 146 124 146 173.5 88.5 c 128,-1,47
 223 31 223 31 310 31 c 0,48,49
 411 31 411 31 473.5 94 c 128,-1,50
 536 157 536 157 562 248 c 128,-1,51
 588 339 588 339 588 427 c 0,52,53
 588 540 588 540 539.5 596.5 c 128,-1,54
 491 653 491 653 402 653 c 0,55,42
 304 653 304 653 241.5 590.5 c 128,-1,43
EndSplineSet
Substitution2: "'c2sc' Capitals to Small Capitals lookup 27 subtable" uni022D.sc
Substitution2: "'aalt' Access All Alternates lookup 0 subtable" uni022D.sc
Position2: "'cpsp' Capital Spacing lookup 0 subtable" dx=5 dy=0 dh=10 dv=0
EndChar

StartChar: OE
Encoding: 338 338 217
Width: 858
GlyphClass: 2
Flags: W
AnchorPoint: "Anchor-18" 0 0 basechar 0
AnchorPoint: "Anchor-17" 0 0 basechar 0
AnchorPoint: "Anchor-16" 490 684 basechar 0
AnchorPoint: "Anchor-15" 0 0 basechar 0
AnchorPoint: "Anchor-14" 394 0 basechar 0
LayerCount: 2
Fore
SplineSet
856 643 m 1,0,-1
 529 643 l 1,1,2
 616 576 616 576 616 426 c 0,3,4
 616 411 616 411 614 377 c 1,5,-1
 780 377 l 1,6,-1
 774 336 l 1,7,-1
 609 336 l 1,8,9
 596 244 596 244 556.5 165 c 128,-1,10
 517 86 517 86 449 41 c 1,11,-1
 784 41 l 1,12,-1
 777 0 l 1,13,-1
 367 0 l 1,14,15
 331 -11 331 -11 297 -11 c 0,16,17
 195 -11 195 -11 134.5 60 c 128,-1,18
 74 131 74 131 74 260 c 0,19,20
 74 354 74 354 107.5 454.5 c 128,-1,21
 141 555 141 555 212.5 624.5 c 128,-1,22
 284 694 284 694 391 694 c 0,23,24
 426 694 426 694 459 684 c 1,25,-1
 867 684 l 1,26,-1
 856 643 l 1,0,-1
521 597 m 128,-1,28
 474 653 474 653 392 653 c 0,29,30
 299 653 299 653 238.5 589.5 c 128,-1,31
 178 526 178 526 151 434 c 128,-1,32
 124 342 124 342 124 255 c 0,33,34
 124 146 124 146 171.5 88.5 c 128,-1,35
 219 31 219 31 299 31 c 0,36,37
 395 31 395 31 455.5 96 c 128,-1,38
 516 161 516 161 542 253.5 c 128,-1,39
 568 346 568 346 568 433 c 0,40,27
 568 541 568 541 521 597 c 128,-1,28
EndSplineSet
Substitution2: "'c2sc' Capitals to Small Capitals lookup 27 subtable" oe.sc
Substitution2: "'aalt' Access All Alternates lookup 0 subtable" oe.sc
Position2: "'cpsp' Capital Spacing lookup 0 subtable" dx=5 dy=0 dh=10 dv=0
EndChar

StartChar: P
Encoding: 80 80 218
Width: 565
GlyphClass: 2
Flags: W
AnchorPoint: "Anchor-18" 0 0 basechar 0
AnchorPoint: "Anchor-17" 0 0 basechar 0
AnchorPoint: "Anchor-16" 342 684 basechar 0
AnchorPoint: "Anchor-15" 0 0 basechar 0
AnchorPoint: "Anchor-14" 246 0 basechar 0
LayerCount: 2
Fore
SplineSet
492 642 m 128,-1,1
 549 600 549 600 549 514 c 0,2,3
 549 409 549 409 483.5 340 c 128,-1,4
 418 271 418 271 267 271 c 2,5,-1
 163 271 l 1,6,-1
 125 0 l 1,7,-1
 77 0 l 1,8,-1
 174 684 l 1,9,-1
 326 684 l 2,10,0
 435 684 435 684 492 642 c 128,-1,1
448 369.5 m 128,-1,12
 500 426 500 426 500 514 c 0,13,14
 500 583 500 583 455 613 c 128,-1,15
 410 643 410 643 322 643 c 2,16,-1
 215 643 l 1,17,-1
 169 313 l 1,18,-1
 271 313 l 2,19,11
 396 313 396 313 448 369.5 c 128,-1,12
EndSplineSet
Substitution2: "'c2sc' Capitals to Small Capitals lookup 27 subtable" p.sc
Substitution2: "'aalt' Access All Alternates lookup 0 subtable" p.sc
Position2: "'cpsp' Capital Spacing lookup 0 subtable" dx=5 dy=0 dh=10 dv=0
EndChar

StartChar: uni01A4
Encoding: 420 420 221
Width: 617
GlyphClass: 2
Flags: W
AnchorPoint: "Anchor-18" 0 0 basechar 0
AnchorPoint: "Anchor-17" 0 0 basechar 0
AnchorPoint: "Anchor-16" 394 684 basechar 0
AnchorPoint: "Anchor-15" 0 0 basechar 0
AnchorPoint: "Anchor-14" 298 0 basechar 0
LayerCount: 2
Fore
SplineSet
544 642 m 128,-1,1
 601 600 601 600 601 514 c 0,2,3
 601 409 601 409 535.5 340 c 128,-1,4
 470 271 470 271 319 271 c 2,5,-1
 215 271 l 1,6,-1
 177 0 l 1,7,-1
 129 0 l 1,8,-1
 220 644 l 1,9,-1
 194 644 l 2,10,11
 150 644 150 644 128.5 620.5 c 128,-1,12
 107 597 107 597 107 558 c 0,13,14
 107 542 107 542 110 529.5 c 128,-1,15
 113 517 113 517 119 500 c 1,16,-1
 82 483 l 1,17,18
 72 502 72 502 66.5 520 c 128,-1,19
 61 538 61 538 61 560 c 0,20,21
 61 615 61 615 97.5 649.5 c 128,-1,22
 134 684 134 684 200 684 c 2,23,-1
 378 684 l 2,24,0
 487 684 487 684 544 642 c 128,-1,1
500 369.5 m 128,-1,26
 552 426 552 426 552 514 c 0,27,28
 552 583 552 583 507 613 c 128,-1,29
 462 643 462 643 374 643 c 2,30,-1
 267 643 l 1,31,-1
 221 313 l 1,32,-1
 323 313 l 2,33,25
 448 313 448 313 500 369.5 c 128,-1,26
EndSplineSet
Substitution2: "'c2sc' Capitals to Small Capitals lookup 27 subtable" uni01A5.sc
Substitution2: "'aalt' Access All Alternates lookup 0 subtable" uni01A5.sc
Position2: "'cpsp' Capital Spacing lookup 0 subtable" dx=5 dy=0 dh=10 dv=0
EndChar

StartChar: Thorn
Encoding: 222 222 222
Width: 565
GlyphClass: 2
Flags: W
AnchorPoint: "Anchor-18" 0 0 basechar 0
AnchorPoint: "Anchor-17" 0 0 basechar 0
AnchorPoint: "Anchor-16" 342 684 basechar 0
AnchorPoint: "Anchor-15" 0 0 basechar 0
AnchorPoint: "Anchor-14" 246 0 basechar 0
LayerCount: 2
Fore
SplineSet
475 518 m 128,-1,1
 532 476 532 476 532 385 c 0,2,3
 532 322 532 322 505.5 266.5 c 128,-1,4
 479 211 479 211 416 175.5 c 128,-1,5
 353 140 353 140 249 140 c 2,6,-1
 145 140 l 1,7,-1
 125 0 l 1,8,-1
 77 0 l 1,9,-1
 174 684 l 1,10,-1
 221 684 l 1,11,-1
 204 560 l 1,12,-1
 309 560 l 2,13,0
 418 560 418 560 475 518 c 128,-1,1
429 239.5 m 128,-1,15
 483 298 483 298 483 384 c 0,16,17
 483 457 483 457 438.5 488 c 128,-1,18
 394 519 394 519 306 519 c 2,19,-1
 198 519 l 1,20,-1
 150 181 l 1,21,-1
 253 181 l 2,22,14
 375 181 375 181 429 239.5 c 128,-1,15
EndSplineSet
Substitution2: "'c2sc' Capitals to Small Capitals lookup 27 subtable" thorn.sc
Substitution2: "'aalt' Access All Alternates lookup 0 subtable" thorn.sc
Position2: "'cpsp' Capital Spacing lookup 0 subtable" dx=5 dy=0 dh=10 dv=0
EndChar

StartChar: Q
Encoding: 81 81 223
Width: 676
GlyphClass: 2
Flags: W
AnchorPoint: "Anchor-18" 0 0 basechar 0
AnchorPoint: "Anchor-17" 0 0 basechar 0
AnchorPoint: "Anchor-16" 398 684 basechar 0
AnchorPoint: "Anchor-15" 0 0 basechar 0
AnchorPoint: "Anchor-14" 302 0 basechar 0
LayerCount: 2
Fore
SplineSet
615 259 m 128,-1,1
 593 175 593 175 543 108 c 128,-1,2
 493 41 493 41 416 16 c 1,3,4
 533 11 533 11 599 -52 c 1,5,-1
 564 -90 l 1,6,7
 518 -44 518 -44 461 -27.5 c 128,-1,8
 404 -11 404 -11 309 -11 c 0,9,10
 200 -11 200 -11 137.5 60 c 128,-1,11
 75 131 75 131 75 261 c 0,12,13
 75 358 75 358 108.5 457.5 c 128,-1,14
 142 557 142 557 216 625.5 c 128,-1,15
 290 694 290 694 404 694 c 0,16,17
 513 694 513 694 575 624.5 c 128,-1,18
 637 555 637 555 637 425 c 0,19,0
 637 343 637 343 615 259 c 128,-1,1
173.5 88 m 128,-1,21
 223 31 223 31 310 31 c 0,22,23
 411 31 411 31 473.5 94.5 c 128,-1,24
 536 158 536 158 562 249 c 128,-1,25
 588 340 588 340 588 430 c 0,26,27
 588 541 588 541 539.5 597 c 128,-1,28
 491 653 491 653 402 653 c 0,29,30
 303 653 303 653 241 590 c 128,-1,31
 179 527 179 527 151.5 436 c 128,-1,32
 124 345 124 345 124 256 c 0,33,20
 124 145 124 145 173.5 88 c 128,-1,21
EndSplineSet
Substitution2: "'c2sc' Capitals to Small Capitals lookup 27 subtable" q.sc
Substitution2: "'aalt' Access All Alternates lookup 0 subtable" q.sc
Position2: "'cpsp' Capital Spacing lookup 0 subtable" dx=5 dy=0 dh=10 dv=0
EndChar

StartChar: uni024A
Encoding: 586 586 224
Width: 658
GlyphClass: 2
Flags: W
AnchorPoint: "Anchor-18" 0 0 basechar 0
AnchorPoint: "Anchor-17" 0 0 basechar 0
AnchorPoint: "Anchor-16" 388 684 basechar 0
AnchorPoint: "Anchor-15" 0 0 basechar 0
AnchorPoint: "Anchor-14" 0 0 basechar 0
LayerCount: 2
Fore
SplineSet
646 -171 m 1,0,1
 600 -203 600 -203 546 -203 c 0,2,3
 499 -203 499 -203 471.5 -177 c 128,-1,4
 444 -151 444 -151 444 -101 c 0,5,6
 444 -93 444 -93 446 -73 c 2,7,-1
 457 0 l 1,8,-1
 456 0 l 1,9,-1
 465 63 l 1,10,11
 430 28 430 28 385.5 8.5 c 128,-1,12
 341 -11 341 -11 290 -11 c 0,13,14
 192 -11 192 -11 133 57.5 c 128,-1,15
 74 126 74 126 74 253 c 0,16,17
 74 361 74 361 112 463 c 128,-1,18
 150 565 150 565 220 629.5 c 128,-1,19
 290 694 290 694 383 694 c 0,20,21
 484 694 484 694 544 617 c 1,22,-1
 558 684 l 1,23,-1
 599 684 l 1,24,-1
 504 0 l 1,25,-1
 494 -77 l 2,26,27
 492 -95 492 -95 492 -101 c 0,28,29
 492 -162 492 -162 548 -162 c 0,30,31
 572 -162 572 -162 590 -156 c 128,-1,32
 608 -150 608 -150 628 -138 c 1,33,-1
 646 -171 l 1,0,1
472 111 m 1,35,-1
 537 575 l 1,36,37
 477 653 477 653 383 653 c 0,38,39
 302 653 302 653 243 592.5 c 128,-1,40
 184 532 184 532 153.5 438.5 c 128,-1,41
 123 345 123 345 123 249 c 0,42,43
 123 141 123 141 169.5 86 c 128,-1,44
 216 31 216 31 294 31 c 0,45,34
 398 31 398 31 472 111 c 1,35,-1
EndSplineSet
Substitution2: "'c2sc' Capitals to Small Capitals lookup 27 subtable" uni024B.sc
Substitution2: "'aalt' Access All Alternates lookup 0 subtable" uni024B.sc
Position2: "'cpsp' Capital Spacing lookup 0 subtable" dx=5 dy=0 dh=10 dv=0
EndChar

StartChar: R
Encoding: 82 82 225
Width: 583
GlyphClass: 2
Flags: W
AnchorPoint: "Anchor-18" 0 0 basechar 0
AnchorPoint: "Anchor-17" 0 0 basechar 0
AnchorPoint: "Anchor-16" 351 684 basechar 0
AnchorPoint: "Anchor-15" 0 0 basechar 0
AnchorPoint: "Anchor-14" 268 0 basechar 0
LayerCount: 2
Fore
SplineSet
502.5 396.5 m 128,-1,1
 458 339 458 339 365 319 c 1,2,-1
 510 0 l 1,3,-1
 457 0 l 1,4,-1
 317 313 l 1,5,-1
 169 313 l 1,6,-1
 125 0 l 1,7,-1
 77 0 l 1,8,-1
 174 684 l 1,9,-1
 339 684 l 2,10,11
 547 684 547 684 547 527 c 0,12,0
 547 454 547 454 502.5 396.5 c 128,-1,1
299 353 m 2,13,14
 404 353 404 353 450.5 404.5 c 128,-1,15
 497 456 497 456 497 527 c 0,16,17
 497 586 497 586 458.5 614.5 c 128,-1,18
 420 643 420 643 335 643 c 2,19,-1
 215 643 l 1,20,-1
 174 353 l 1,21,-1
 299 353 l 2,13,14
EndSplineSet
Substitution2: "'c2sc' Capitals to Small Capitals lookup 27 subtable" r.sc
Substitution2: "'aalt' Access All Alternates lookup 0 subtable" r.sc
Position2: "'cpsp' Capital Spacing lookup 0 subtable" dx=5 dy=0 dh=10 dv=0
EndChar

StartChar: uni024C
Encoding: 588 588 232
Width: 591
GlyphClass: 2
Flags: W
AnchorPoint: "Anchor-18" 0 0 basechar 0
AnchorPoint: "Anchor-17" 0 0 basechar 0
AnchorPoint: "Anchor-16" 359 684 basechar 0
AnchorPoint: "Anchor-15" 0 0 basechar 0
AnchorPoint: "Anchor-14" 276 0 basechar 0
LayerCount: 2
Fore
SplineSet
510.5 396.5 m 128,-1,1
 466 339 466 339 373 319 c 1,2,-1
 518 0 l 1,3,-1
 465 0 l 1,4,-1
 325 313 l 1,5,-1
 177 313 l 1,6,-1
 133 0 l 1,7,-1
 85 0 l 1,8,-1
 129 313 l 1,9,-1
 39 313 l 1,10,-1
 45 353 l 1,11,-1
 135 353 l 1,12,-1
 182 684 l 1,13,-1
 347 684 l 2,14,15
 555 684 555 684 555 527 c 0,16,0
 555 454 555 454 510.5 396.5 c 128,-1,1
458.5 404.5 m 128,-1,18
 505 456 505 456 505 527 c 0,19,20
 505 586 505 586 466.5 614.5 c 128,-1,21
 428 643 428 643 343 643 c 2,22,-1
 223 643 l 1,23,-1
 182 353 l 1,24,-1
 307 353 l 2,25,17
 412 353 412 353 458.5 404.5 c 128,-1,18
EndSplineSet
Substitution2: "'c2sc' Capitals to Small Capitals lookup 27 subtable" uni024D.sc
Substitution2: "'aalt' Access All Alternates lookup 0 subtable" uni024D.sc
Position2: "'cpsp' Capital Spacing lookup 0 subtable" dx=5 dy=0 dh=10 dv=0
EndChar

StartChar: uni2C64
Encoding: 11364 11364 233
Width: 583
GlyphClass: 2
Flags: W
AnchorPoint: "Anchor-18" 0 0 basechar 0
AnchorPoint: "Anchor-17" 0 0 basechar 0
AnchorPoint: "Anchor-16" 351 684 basechar 0
AnchorPoint: "Anchor-15" 0 0 basechar 0
AnchorPoint: "Anchor-14" 268 0 basechar 0
LayerCount: 2
Fore
SplineSet
502.5 396.5 m 128,-1,1
 458 339 458 339 365 319 c 1,2,-1
 510 0 l 1,3,-1
 457 0 l 1,4,-1
 317 313 l 1,5,-1
 169 313 l 1,6,-1
 125 0 l 1,7,-1
 115 -77 l 2,8,9
 113 -95 113 -95 113 -101 c 0,10,11
 113 -162 113 -162 169 -162 c 0,12,13
 193 -162 193 -162 211 -156 c 128,-1,14
 229 -150 229 -150 249 -138 c 1,15,-1
 267 -171 l 1,16,17
 221 -203 221 -203 167 -203 c 0,18,19
 120 -203 120 -203 92.5 -177 c 128,-1,20
 65 -151 65 -151 65 -101 c 0,21,22
 65 -93 65 -93 67 -73 c 2,23,-1
 78 0 l 1,24,-1
 77 0 l 1,25,-1
 174 684 l 1,26,-1
 339 684 l 2,27,28
 547 684 547 684 547 527 c 0,29,0
 547 454 547 454 502.5 396.5 c 128,-1,1
299 353 m 2,30,31
 404 353 404 353 450.5 404.5 c 128,-1,32
 497 456 497 456 497 527 c 0,33,34
 497 586 497 586 458.5 614.5 c 128,-1,35
 420 643 420 643 335 643 c 2,36,-1
 215 643 l 1,37,-1
 174 353 l 1,38,-1
 299 353 l 2,30,31
EndSplineSet
Substitution2: "'ss01' Style Set 1 lookup 34 subtable" uni2C64.ss01
Substitution2: "'salt' Stylistic Alternatives lookup 33 subtable" uni2C64.ss01
Substitution2: "'c2sc' Capitals to Small Capitals lookup 27 subtable" uni2C64.sc
AlternateSubs2: "'aalt' Access All Alternates lookup 1 subtable" uni2C64.sc uni2C64.ss01
Position2: "'cpsp' Capital Spacing lookup 0 subtable" dx=5 dy=0 dh=10 dv=0
EndChar

StartChar: S
Encoding: 83 83 234
Width: 535
GlyphClass: 2
Flags: W
AnchorPoint: "Anchor-18" 0 0 basechar 0
AnchorPoint: "Anchor-17" 0 0 basechar 0
AnchorPoint: "Anchor-16" 329 684 basechar 0
AnchorPoint: "Anchor-15" 0 0 basechar 0
AnchorPoint: "Anchor-14" 225 0 basechar 0
LayerCount: 2
Fore
SplineSet
426 675 m 128,-1,1
 470 656 470 656 506 619 c 1,2,-1
 475 590 l 1,3,4
 442 623 442 623 406.5 638 c 128,-1,5
 371 653 371 653 324 653 c 0,6,7
 248 653 248 653 201.5 615.5 c 128,-1,8
 155 578 155 578 155 518 c 0,9,10
 155 468 155 468 186.5 439.5 c 128,-1,11
 218 411 218 411 297 386 c 0,12,13
 385 358 385 358 427 316.5 c 128,-1,14
 469 275 469 275 469 203 c 0,15,16
 469 150 469 150 442.5 101 c 128,-1,17
 416 52 416 52 360 20.5 c 128,-1,18
 304 -11 304 -11 221 -11 c 0,19,20
 155 -11 155 -11 105.5 11.5 c 128,-1,21
 56 34 56 34 17 76 c 1,22,-1
 49 105 l 1,23,24
 83 69 83 69 124 50 c 128,-1,25
 165 31 165 31 221 31 c 0,26,27
 289 31 289 31 334 56 c 128,-1,28
 379 81 379 81 399.5 120 c 128,-1,29
 420 159 420 159 420 202 c 0,30,31
 420 256 420 256 387.5 288.5 c 128,-1,32
 355 321 355 321 277 348 c 0,33,34
 185 378 185 378 146 415 c 128,-1,35
 107 452 107 452 107 516 c 0,36,37
 107 563 107 563 132.5 603.5 c 128,-1,38
 158 644 158 644 207.5 669 c 128,-1,39
 257 694 257 694 324 694 c 0,40,0
 382 694 382 694 426 675 c 128,-1,1
EndSplineSet
Substitution2: "'c2sc' Capitals to Small Capitals lookup 27 subtable" s.sc
Substitution2: "'aalt' Access All Alternates lookup 0 subtable" s.sc
Position2: "'cpsp' Capital Spacing lookup 0 subtable" dx=5 dy=0 dh=10 dv=0
EndChar

StartChar: uniA78B
Encoding: 42891 42891 236
Width: 199
GlyphClass: 2
Flags: W
LayerCount: 2
Fore
SplineSet
95 356 m 1,0,-1
 133 684 l 1,1,-1
 185 684 l 1,2,-1
 131 356 l 1,3,-1
 95 356 l 1,0,-1
EndSplineSet
Position2: "'cpsp' Capital Spacing lookup 0 subtable" dx=5 dy=0 dh=10 dv=0
EndChar

StartChar: Scedilla
Encoding: 350 350 238
Width: 535
GlyphClass: 2
Flags: W
AnchorPoint: "Anchor-18" 0 0 basechar 0
AnchorPoint: "Anchor-17" 0 0 basechar 0
AnchorPoint: "Anchor-16" 329 684 basechar 0
AnchorPoint: "Anchor-15" 0 0 basechar 0
AnchorPoint: "Anchor-14" 223 -223 basechar 0
LayerCount: 2
Fore
SplineSet
426 675 m 128,-1,1
 470 656 470 656 506 619 c 1,2,-1
 475 590 l 1,3,4
 442 623 442 623 406.5 638 c 128,-1,5
 371 653 371 653 324 653 c 0,6,7
 248 653 248 653 201.5 615.5 c 128,-1,8
 155 578 155 578 155 518 c 0,9,10
 155 468 155 468 186.5 439.5 c 128,-1,11
 218 411 218 411 297 386 c 0,12,13
 385 358 385 358 427 316.5 c 128,-1,14
 469 275 469 275 469 203 c 0,15,16
 469 152 469 152 444.5 104.5 c 128,-1,17
 420 57 420 57 368 25 c 128,-1,18
 316 -7 316 -7 239 -11 c 1,19,-1
 229 -67 l 1,20,21
 313 -73 313 -73 313 -137 c 0,22,23
 313 -176 313 -176 282.5 -199.5 c 128,-1,24
 252 -223 252 -223 205 -223 c 0,25,26
 160 -223 160 -223 129 -201 c 1,27,-1
 148 -172 l 1,28,29
 172 -187 172 -187 205 -187 c 0,30,31
 234 -187 234 -187 252 -174.5 c 128,-1,32
 270 -162 270 -162 270 -138 c 0,33,34
 270 -115 270 -115 252 -105 c 128,-1,35
 234 -95 234 -95 188 -95 c 1,36,-1
 205 -11 l 1,37,38
 145 -8 145 -8 99.5 14.5 c 128,-1,39
 54 37 54 37 17 76 c 1,40,-1
 49 105 l 1,41,42
 83 69 83 69 124 50 c 128,-1,43
 165 31 165 31 221 31 c 0,44,45
 289 31 289 31 334 56 c 128,-1,46
 379 81 379 81 399.5 120 c 128,-1,47
 420 159 420 159 420 202 c 0,48,49
 420 256 420 256 387.5 288.5 c 128,-1,50
 355 321 355 321 277 348 c 0,51,52
 185 378 185 378 146 415 c 128,-1,53
 107 452 107 452 107 516 c 0,54,55
 107 563 107 563 132.5 603.5 c 128,-1,56
 158 644 158 644 207.5 669 c 128,-1,57
 257 694 257 694 324 694 c 0,58,0
 382 694 382 694 426 675 c 128,-1,1
EndSplineSet
Substitution2: "'c2sc' Capitals to Small Capitals lookup 27 subtable" scedilla.sc
Substitution2: "'locl' Localized Forms in Latin lookup 5 subtable" Scommaaccent
Substitution2: "'locl' Localized Forms in Latin lookup 4 subtable" Scommaaccent
AlternateSubs2: "'aalt' Access All Alternates lookup 1 subtable" Scommaaccent scedilla.sc
Position2: "'cpsp' Capital Spacing lookup 0 subtable" dx=5 dy=0 dh=10 dv=0
EndChar

StartChar: uni1E9E
Encoding: 7838 7838 243
Width: 644
GlyphClass: 2
Flags: W
LayerCount: 2
Fore
SplineSet
599 627 m 1,1,-1
 596 593 l 1,2,-1
 373 384 l 1,3,4
 579 361 579 361 579 210 c 0,5,6
 579 147 579 147 550.5 96.5 c 128,-1,7
 522 46 522 46 470 17.5 c 128,-1,8
 418 -11 418 -11 352 -11 c 0,9,10
 285 -11 285 -11 239 12 c 1,11,-1
 259 47 l 1,12,13
 300 31 300 31 351 31 c 0,14,15
 406 31 406 31 446.5 54.5 c 128,-1,16
 487 78 487 78 508.5 118.5 c 128,-1,17
 530 159 530 159 530 210 c 0,18,19
 530 276 530 276 479 308.5 c 128,-1,20
 428 341 428 341 320 349 c 1,21,-1
 324 390 l 1,22,-1
 550 607 l 1,23,24
 509 629 509 629 468.5 641 c 128,-1,25
 428 653 428 653 379 653 c 0,26,27
 301 653 301 653 253.5 612.5 c 128,-1,28
 206 572 206 572 194 489 c 2,29,-1
 125 0 l 1,30,-1
 77 0 l 1,31,-1
 147 495 l 2,32,33
 160 592 160 592 221 643 c 128,-1,34
 282 694 282 694 379 694 c 0,35,0
 491 694 491 694 599 627 c 1,1,-1
EndSplineSet
Substitution2: "'c2sc' Capitals to Small Capitals lookup 27 subtable" germandbls.sc
Substitution2: "'aalt' Access All Alternates lookup 0 subtable" germandbls.sc
Position2: "'cpsp' Capital Spacing lookup 0 subtable" dx=5 dy=0 dh=10 dv=0
EndChar

StartChar: T
Encoding: 84 84 245
Width: 486
GlyphClass: 2
Flags: W
AnchorPoint: "Anchor-18" 255 347 basechar 0
AnchorPoint: "Anchor-17" 0 0 basechar 0
AnchorPoint: "Anchor-16" 302 684 basechar 0
AnchorPoint: "Anchor-15" 0 0 basechar 0
AnchorPoint: "Anchor-14" 206 0 basechar 0
LayerCount: 2
Fore
SplineSet
535 684 m 1,0,-1
 523 640 l 1,1,-1
 320 640 l 1,2,-1
 230 0 l 1,3,-1
 182 0 l 1,4,-1
 272 640 l 1,5,-1
 68 640 l 1,6,-1
 74 684 l 1,7,-1
 535 684 l 1,0,-1
EndSplineSet
Substitution2: "'c2sc' Capitals to Small Capitals lookup 27 subtable" t.sc
Substitution2: "'aalt' Access All Alternates lookup 0 subtable" t.sc
Position2: "'cpsp' Capital Spacing lookup 0 subtable" dx=5 dy=0 dh=10 dv=0
EndChar

StartChar: Tbar
Encoding: 358 358 246
Width: 486
GlyphClass: 2
Flags: W
AnchorPoint: "Anchor-18" 255 347 basechar 0
AnchorPoint: "Anchor-17" 0 0 basechar 0
AnchorPoint: "Anchor-16" 302 684 basechar 0
AnchorPoint: "Anchor-15" 0 0 basechar 0
AnchorPoint: "Anchor-14" 206 0 basechar 0
LayerCount: 2
Fore
SplineSet
523 640 m 1,0,-1
 320 640 l 1,1,-1
 284 384 l 1,2,-1
 405 384 l 1,3,-1
 400 345 l 1,4,-1
 279 345 l 1,5,-1
 230 0 l 1,6,-1
 182 0 l 1,7,-1
 231 345 l 1,8,-1
 109 345 l 1,9,-1
 114 384 l 1,10,-1
 236 384 l 1,11,-1
 272 640 l 1,12,-1
 68 640 l 1,13,-1
 74 684 l 1,14,-1
 535 684 l 1,15,-1
 523 640 l 1,0,-1
EndSplineSet
Substitution2: "'c2sc' Capitals to Small Capitals lookup 27 subtable" tbar.sc
Substitution2: "'aalt' Access All Alternates lookup 0 subtable" tbar.sc
Position2: "'cpsp' Capital Spacing lookup 0 subtable" dx=5 dy=0 dh=10 dv=0
EndChar

StartChar: uni0162
Encoding: 354 354 248
Width: 486
GlyphClass: 2
Flags: W
AnchorPoint: "Anchor-18" 255 347 basechar 0
AnchorPoint: "Anchor-17" 0 0 basechar 0
AnchorPoint: "Anchor-16" 302 684 basechar 0
AnchorPoint: "Anchor-15" 0 0 basechar 0
AnchorPoint: "Anchor-14" 206 0 basechar 0
LayerCount: 2
Fore
SplineSet
535 684 m 1,0,-1
 523 640 l 1,1,-1
 320 640 l 1,2,-1
 230 0 l 1,3,-1
 229 0 l 1,4,-1
 219 -67 l 1,5,6
 302 -73 302 -73 302 -133 c 0,7,8
 302 -171 302 -171 270.5 -197 c 128,-1,9
 239 -223 239 -223 193 -223 c 0,10,11
 149 -223 149 -223 118 -201 c 1,12,-1
 137 -172 l 1,13,14
 161 -187 161 -187 192 -187 c 0,15,16
 219 -187 219 -187 238.5 -173.5 c 128,-1,17
 258 -160 258 -160 258 -136 c 0,18,19
 258 -114 258 -114 240 -104.5 c 128,-1,20
 222 -95 222 -95 176 -95 c 1,21,-1
 197 0 l 1,22,-1
 182 0 l 1,23,-1
 272 640 l 1,24,-1
 68 640 l 1,25,-1
 74 684 l 1,26,-1
 535 684 l 1,0,-1
EndSplineSet
Substitution2: "'c2sc' Capitals to Small Capitals lookup 27 subtable" uni0163.sc
Substitution2: "'locl' Localized Forms in Latin lookup 5 subtable" uni021A
Substitution2: "'locl' Localized Forms in Latin lookup 4 subtable" uni021A
AlternateSubs2: "'aalt' Access All Alternates lookup 1 subtable" uni021A uni0163.sc
Position2: "'cpsp' Capital Spacing lookup 0 subtable" dx=5 dy=0 dh=10 dv=0
EndChar

StartChar: uni023E
Encoding: 574 574 251
Width: 486
GlyphClass: 2
Flags: W
AnchorPoint: "Anchor-18" 0 0 basechar 0
AnchorPoint: "Anchor-17" 0 0 basechar 0
AnchorPoint: "Anchor-16" 302 684 basechar 0
AnchorPoint: "Anchor-15" 0 0 basechar 0
AnchorPoint: "Anchor-14" 206 0 basechar 0
LayerCount: 2
Fore
SplineSet
523 640 m 1,0,-1
 403 640 l 1,1,-1
 278 348 l 1,2,-1
 229 0 l 1,3,-1
 182 0 l 1,4,-1
 208 185 l 1,5,-1
 99 -70 l 1,6,-1
 72 -61 l 1,7,-1
 223 292 l 1,8,-1
 272 640 l 1,9,-1
 68 640 l 1,10,-1
 74 684 l 1,11,-1
 391 684 l 1,12,-1
 416 743 l 1,13,-1
 443 734 l 1,14,-1
 422 684 l 1,15,-1
 535 684 l 1,16,-1
 523 640 l 1,0,-1
293 456 m 1,17,-1
 372 640 l 1,18,-1
 319 640 l 1,19,-1
 293 456 l 1,17,-1
EndSplineSet
Substitution2: "'c2sc' Capitals to Small Capitals lookup 27 subtable" uni2C66.sc
Substitution2: "'aalt' Access All Alternates lookup 0 subtable" uni2C66.sc
Position2: "'cpsp' Capital Spacing lookup 0 subtable" dx=5 dy=0 dh=10 dv=0
EndChar

StartChar: uni01AC
Encoding: 428 428 254
Width: 511
GlyphClass: 2
Flags: W
AnchorPoint: "Anchor-18" 0 0 basechar 0
AnchorPoint: "Anchor-17" 0 0 basechar 0
AnchorPoint: "Anchor-16" 316 684 basechar 0
AnchorPoint: "Anchor-15" 0 0 basechar 0
AnchorPoint: "Anchor-14" 232 0 basechar 0
LayerCount: 2
Fore
SplineSet
548 640 m 1,0,-1
 345 640 l 1,1,-1
 256 0 l 1,2,-1
 208 0 l 1,3,-1
 298 640 l 1,4,-1
 194 640 l 2,5,6
 150 640 150 640 128.5 617.5 c 128,-1,7
 107 595 107 595 107 558 c 0,8,9
 107 542 107 542 110 529.5 c 128,-1,10
 113 517 113 517 119 500 c 1,11,-1
 82 483 l 1,12,13
 72 502 72 502 66.5 520 c 128,-1,14
 61 538 61 538 61 560 c 0,15,16
 61 615 61 615 97 649.5 c 128,-1,17
 133 684 133 684 197 684 c 2,18,-1
 561 684 l 1,19,-1
 548 640 l 1,0,-1
EndSplineSet
Substitution2: "'c2sc' Capitals to Small Capitals lookup 27 subtable" uni01AD.sc
Substitution2: "'aalt' Access All Alternates lookup 0 subtable" uni01AD.sc
Position2: "'cpsp' Capital Spacing lookup 0 subtable" dx=5 dy=0 dh=10 dv=0
EndChar

StartChar: uni0184
Encoding: 388 388 257
Width: 555
GlyphClass: 2
Flags: W
AnchorPoint: "Anchor-18" 0 0 basechar 0
AnchorPoint: "Anchor-17" 0 0 basechar 0
AnchorPoint: "Anchor-16" 337 684 basechar 0
AnchorPoint: "Anchor-15" 0 0 basechar 0
AnchorPoint: "Anchor-14" 241 0 basechar 0
LayerCount: 2
Fore
SplineSet
456.5 374 m 128,-1,1
 512 330 512 330 512 240 c 0,2,3
 512 178 512 178 485.5 124 c 128,-1,4
 459 70 459 70 398 35 c 128,-1,5
 337 0 337 0 241 0 c 2,6,-1
 77 0 l 1,7,-1
 157 558 l 1,8,-1
 114 590 l 1,9,10
 157 628 157 628 181 684 c 1,11,-1
 221 684 l 1,12,-1
 184 418 l 1,13,-1
 298 418 l 2,14,0
 401 418 401 418 456.5 374 c 128,-1,1
376.5 71.5 m 128,-1,16
 423 102 423 102 442.5 147 c 128,-1,17
 462 192 462 192 462 240 c 0,18,19
 462 311 462 311 420.5 344 c 128,-1,20
 379 377 379 377 298 377 c 2,21,-1
 179 377 l 1,22,-1
 132 41 l 1,23,-1
 253 41 l 2,24,15
 330 41 330 41 376.5 71.5 c 128,-1,16
EndSplineSet
Substitution2: "'c2sc' Capitals to Small Capitals lookup 27 subtable" uni0185.sc
Substitution2: "'aalt' Access All Alternates lookup 0 subtable" uni0185.sc
Position2: "'cpsp' Capital Spacing lookup 0 subtable" dx=5 dy=0 dh=10 dv=0
EndChar

StartChar: uni01A7
Encoding: 423 423 258
Width: 527
GlyphClass: 2
Flags: W
AnchorPoint: "Anchor-18" 0 0 basechar 0
AnchorPoint: "Anchor-17" 0 0 basechar 0
AnchorPoint: "Anchor-16" 323 684 basechar 0
AnchorPoint: "Anchor-15" 0 0 basechar 0
AnchorPoint: "Anchor-14" 227 0 basechar 0
LayerCount: 2
Fore
SplineSet
459.5 655 m 128,-1,1
 504 616 504 616 504 551 c 0,2,3
 504 495 504 495 479.5 457.5 c 128,-1,4
 455 420 455 420 408 394.5 c 128,-1,5
 361 369 361 369 286 346 c 0,6,7
 216 325 216 325 174.5 300.5 c 128,-1,8
 133 276 133 276 113 241.5 c 128,-1,9
 93 207 93 207 93 155 c 0,10,11
 93 96 93 96 131.5 63.5 c 128,-1,12
 170 31 170 31 233 31 c 0,13,14
 291 31 291 31 338 50 c 128,-1,15
 385 69 385 69 432 105 c 1,16,-1
 457 73 l 1,17,18
 407 32 407 32 352 10.5 c 128,-1,19
 297 -11 297 -11 231 -11 c 0,20,21
 147 -11 147 -11 95.5 34.5 c 128,-1,22
 44 80 44 80 44 155 c 0,23,24
 44 246 44 246 98.5 299.5 c 128,-1,25
 153 353 153 353 269 386 c 0,26,27
 337 405 337 405 376.5 425 c 128,-1,28
 416 445 416 445 436 475 c 128,-1,29
 456 505 456 505 456 551 c 0,30,31
 456 599 456 599 424.5 626 c 128,-1,32
 393 653 393 653 336 653 c 0,33,34
 283 653 283 653 241.5 638 c 128,-1,35
 200 623 200 623 153 589 c 1,36,-1
 128 622 l 1,37,38
 178 659 178 659 226.5 676.5 c 128,-1,39
 275 694 275 694 337 694 c 0,40,0
 415 694 415 694 459.5 655 c 128,-1,1
EndSplineSet
Substitution2: "'c2sc' Capitals to Small Capitals lookup 27 subtable" uni01A8.sc
Substitution2: "'aalt' Access All Alternates lookup 0 subtable" uni01A8.sc
Position2: "'cpsp' Capital Spacing lookup 0 subtable" dx=5 dy=0 dh=10 dv=0
EndChar

StartChar: uni01AE
Encoding: 430 430 259
Width: 486
GlyphClass: 2
Flags: W
AnchorPoint: "Anchor-18" 255 347 basechar 0
AnchorPoint: "Anchor-17" 0 0 basechar 0
AnchorPoint: "Anchor-16" 302 684 basechar 0
AnchorPoint: "Anchor-15" 0 0 basechar 0
AnchorPoint: "Anchor-14" 206 0 basechar 0
LayerCount: 2
Fore
SplineSet
219 -77 m 2,0,1
 217 -95 217 -95 217 -101 c 0,2,3
 217 -162 217 -162 273 -162 c 0,4,5
 297 -162 297 -162 315 -156 c 128,-1,6
 333 -150 333 -150 353 -138 c 1,7,-1
 371 -171 l 1,8,9
 325 -203 325 -203 271 -203 c 0,10,11
 224 -203 224 -203 196.5 -177 c 128,-1,12
 169 -151 169 -151 169 -101 c 0,13,14
 169 -93 169 -93 171 -73 c 2,15,-1
 182 0 l 1,16,-1
 272 640 l 1,17,-1
 68 640 l 1,18,-1
 74 684 l 1,19,-1
 535 684 l 1,20,-1
 523 640 l 1,21,-1
 320 640 l 1,22,-1
 230 0 l 1,23,-1
 229 0 l 1,24,-1
 219 -77 l 2,0,1
EndSplineSet
Substitution2: "'c2sc' Capitals to Small Capitals lookup 27 subtable" uni0288.sc
Substitution2: "'aalt' Access All Alternates lookup 0 subtable" uni0288.sc
Position2: "'cpsp' Capital Spacing lookup 0 subtable" dx=5 dy=0 dh=10 dv=0
EndChar

StartChar: U
Encoding: 85 85 260
Width: 647
GlyphClass: 2
Flags: W
AnchorPoint: "Anchor-18" 0 0 basechar 0
AnchorPoint: "Anchor-17" 611 684 basechar 0
AnchorPoint: "Anchor-16" 383 684 basechar 0
AnchorPoint: "Anchor-15" 374 0 basechar 0
AnchorPoint: "Anchor-14" 287 0 basechar 0
LayerCount: 2
Fore
SplineSet
535 210 m 2,0,1
 521 109 521 109 458 49 c 128,-1,2
 395 -11 395 -11 288 -11 c 0,3,4
 191 -11 191 -11 142.5 36.5 c 128,-1,5
 94 84 94 84 94 167 c 0,6,7
 94 181 94 181 98 213 c 2,8,-1
 164 684 l 1,9,-1
 211 684 l 1,10,-1
 146 214 l 2,11,12
 143 190 143 190 143 170 c 0,13,14
 143 104 143 104 179 68 c 128,-1,15
 215 32 215 32 289 32 c 0,16,17
 377 32 377 32 426.5 81.5 c 128,-1,18
 476 131 476 131 488 217 c 2,19,-1
 554 684 l 1,20,-1
 601 684 l 1,21,-1
 535 210 l 2,0,1
EndSplineSet
Substitution2: "'c2sc' Capitals to Small Capitals lookup 27 subtable" u.sc
Substitution2: "'aalt' Access All Alternates lookup 0 subtable" u.sc
Position2: "'cpsp' Capital Spacing lookup 0 subtable" dx=5 dy=0 dh=10 dv=0
EndChar

StartChar: uni0244
Encoding: 580 580 262
Width: 665
GlyphClass: 2
Flags: W
AnchorPoint: "Anchor-18" 0 0 basechar 0
AnchorPoint: "Anchor-17" 623 684 basechar 0
AnchorPoint: "Anchor-16" 395 684 basechar 0
AnchorPoint: "Anchor-15" 386 0 basechar 0
AnchorPoint: "Anchor-14" 299 0 basechar 0
LayerCount: 2
Fore
SplineSet
653 515 m 1,0,-1
 589 515 l 1,1,-1
 547 210 l 2,2,3
 533 109 533 109 470 49 c 128,-1,4
 407 -11 407 -11 300 -11 c 0,5,6
 203 -11 203 -11 154.5 36.5 c 128,-1,7
 106 84 106 84 106 167 c 0,8,9
 106 181 106 181 110 213 c 2,10,-1
 152 515 l 1,11,-1
 87 515 l 1,12,-1
 93 551 l 1,13,-1
 157 551 l 1,14,-1
 176 684 l 1,15,-1
 223 684 l 1,16,-1
 205 551 l 1,17,-1
 547 551 l 1,18,-1
 566 684 l 1,19,-1
 613 684 l 1,20,-1
 594 551 l 1,21,-1
 659 551 l 1,22,-1
 653 515 l 1,0,-1
542 515 m 1,23,-1
 200 515 l 1,24,-1
 158 214 l 2,25,26
 155 190 155 190 155 170 c 0,27,28
 155 104 155 104 191 68 c 128,-1,29
 227 32 227 32 301 32 c 0,30,31
 389 32 389 32 438.5 81.5 c 128,-1,32
 488 131 488 131 500 217 c 2,33,-1
 542 515 l 1,23,-1
EndSplineSet
Substitution2: "'c2sc' Capitals to Small Capitals lookup 27 subtable" uni0289.sc
Substitution2: "'aalt' Access All Alternates lookup 0 subtable" uni0289.sc
Position2: "'cpsp' Capital Spacing lookup 0 subtable" dx=5 dy=0 dh=10 dv=0
EndChar

StartChar: Uhorn
Encoding: 431 431 275
Width: 647
GlyphClass: 2
Flags: W
AnchorPoint: "Anchor-18" 0 0 basechar 0
AnchorPoint: "Anchor-17" 663 684 basechar 0
AnchorPoint: "Anchor-16" 383 684 basechar 0
AnchorPoint: "Anchor-15" 374 0 basechar 0
AnchorPoint: "Anchor-14" 287 0 basechar 0
LayerCount: 2
Fore
SplineSet
669.5 632 m 128,-1,1
 643 604 643 604 589 597 c 1,2,-1
 535 210 l 2,3,4
 521 109 521 109 458 49 c 128,-1,5
 395 -11 395 -11 288 -11 c 0,6,7
 191 -11 191 -11 142.5 36.5 c 128,-1,8
 94 84 94 84 94 167 c 0,9,10
 94 181 94 181 98 213 c 2,11,-1
 164 684 l 1,12,-1
 211 684 l 1,13,-1
 146 214 l 2,14,15
 143 190 143 190 143 170 c 0,16,17
 143 104 143 104 179 68 c 128,-1,18
 215 32 215 32 289 32 c 0,19,20
 377 32 377 32 426.5 81.5 c 128,-1,21
 476 131 476 131 488 217 c 2,22,-1
 554 684 l 1,23,-1
 601 684 l 1,24,-1
 594 630 l 1,25,26
 628 637 628 637 642.5 657 c 128,-1,27
 657 677 657 677 657 710 c 0,28,29
 657 738 657 738 649 759 c 1,30,-1
 686 767 l 1,31,32
 696 741 696 741 696 709 c 0,33,0
 696 660 696 660 669.5 632 c 128,-1,1
EndSplineSet
Substitution2: "'c2sc' Capitals to Small Capitals lookup 27 subtable" uhorn.sc
Substitution2: "'aalt' Access All Alternates lookup 0 subtable" uhorn.sc
Position2: "'cpsp' Capital Spacing lookup 0 subtable" dx=5 dy=0 dh=10 dv=0
EndChar

StartChar: uni1EE8
Encoding: 7912 7912 276
Width: 647
GlyphClass: 2
Flags: W
AnchorPoint: "Anchor-18" 0 0 basechar 0
AnchorPoint: "Anchor-17" 663 684 basechar 0
AnchorPoint: "Anchor-16" 404 880 basechar 0
AnchorPoint: "Anchor-15" 374 0 basechar 0
AnchorPoint: "Anchor-14" 287 0 basechar 0
LayerCount: 2
Fore
SplineSet
496 834 m 1,0,-1
 295 759 l 1,1,-1
 284 787 l 1,2,-1
 480 878 l 1,3,-1
 496 834 l 1,0,-1
669.5 632 m 128,-1,5
 643 604 643 604 589 597 c 1,6,-1
 535 210 l 2,7,8
 521 109 521 109 458 49 c 128,-1,9
 395 -11 395 -11 288 -11 c 0,10,11
 191 -11 191 -11 142.5 36.5 c 128,-1,12
 94 84 94 84 94 167 c 0,13,14
 94 181 94 181 98 213 c 2,15,-1
 164 684 l 1,16,-1
 211 684 l 1,17,-1
 146 214 l 2,18,19
 143 190 143 190 143 170 c 0,20,21
 143 104 143 104 179 68 c 128,-1,22
 215 32 215 32 289 32 c 0,23,24
 377 32 377 32 426.5 81.5 c 128,-1,25
 476 131 476 131 488 217 c 2,26,-1
 554 684 l 1,27,-1
 601 684 l 1,28,-1
 594 630 l 1,29,30
 628 637 628 637 642.5 657 c 128,-1,31
 657 677 657 677 657 710 c 0,32,33
 657 738 657 738 649 759 c 1,34,-1
 686 767 l 1,35,36
 696 741 696 741 696 709 c 0,37,4
 696 660 696 660 669.5 632 c 128,-1,5
EndSplineSet
Substitution2: "'c2sc' Capitals to Small Capitals lookup 27 subtable" uni1EE9.sc
Substitution2: "'aalt' Access All Alternates lookup 0 subtable" uni1EE9.sc
Position2: "'cpsp' Capital Spacing lookup 0 subtable" dx=5 dy=0 dh=10 dv=0
EndChar

StartChar: uni1EF0
Encoding: 7920 7920 277
Width: 647
GlyphClass: 2
Flags: W
AnchorPoint: "Anchor-18" 0 0 basechar 0
AnchorPoint: "Anchor-17" 663 684 basechar 0
AnchorPoint: "Anchor-16" 383 684 basechar 0
AnchorPoint: "Anchor-15" 374 0 basechar 0
AnchorPoint: "Anchor-14" 269 -160 basechar 0
LayerCount: 2
Fore
SplineSet
669.5 632 m 128,-1,1
 643 604 643 604 589 597 c 1,2,-1
 535 210 l 2,3,4
 521 109 521 109 458 49 c 128,-1,5
 395 -11 395 -11 288 -11 c 0,6,7
 191 -11 191 -11 142.5 36.5 c 128,-1,8
 94 84 94 84 94 167 c 0,9,10
 94 181 94 181 98 213 c 2,11,-1
 164 684 l 1,12,-1
 211 684 l 1,13,-1
 146 214 l 2,14,15
 143 190 143 190 143 170 c 0,16,17
 143 104 143 104 179 68 c 128,-1,18
 215 32 215 32 289 32 c 0,19,20
 377 32 377 32 426.5 81.5 c 128,-1,21
 476 131 476 131 488 217 c 2,22,-1
 554 684 l 1,23,-1
 601 684 l 1,24,-1
 594 630 l 1,25,26
 628 637 628 637 642.5 657 c 128,-1,27
 657 677 657 677 657 710 c 0,28,29
 657 738 657 738 649 759 c 1,30,-1
 686 767 l 1,31,32
 696 741 696 741 696 709 c 0,33,0
 696 660 696 660 669.5 632 c 128,-1,1
298 -98.5 m 128,-1,35
 307 -107 307 -107 307 -121 c 0,36,37
 307 -138 307 -138 296 -149 c 128,-1,38
 285 -160 285 -160 268 -160 c 0,39,40
 253 -160 253 -160 244.5 -151.5 c 128,-1,41
 236 -143 236 -143 236 -129 c 0,42,43
 236 -112 236 -112 247 -101 c 128,-1,44
 258 -90 258 -90 274 -90 c 0,45,34
 289 -90 289 -90 298 -98.5 c 128,-1,35
EndSplineSet
Substitution2: "'c2sc' Capitals to Small Capitals lookup 27 subtable" uni1EF1.sc
Substitution2: "'aalt' Access All Alternates lookup 0 subtable" uni1EF1.sc
Position2: "'cpsp' Capital Spacing lookup 0 subtable" dx=5 dy=0 dh=10 dv=0
EndChar

StartChar: uni1EEA
Encoding: 7914 7914 278
Width: 647
GlyphClass: 2
Flags: W
AnchorPoint: "Anchor-18" 0 0 basechar 0
AnchorPoint: "Anchor-17" 663 684 basechar 0
AnchorPoint: "Anchor-16" 405 880 basechar 0
AnchorPoint: "Anchor-15" 374 0 basechar 0
AnchorPoint: "Anchor-14" 287 0 basechar 0
LayerCount: 2
Fore
SplineSet
501 787 m 1,0,-1
 484 759 l 1,1,-1
 307 834 l 1,2,-1
 330 877 l 1,3,-1
 501 787 l 1,0,-1
669.5 632 m 128,-1,5
 643 604 643 604 589 597 c 1,6,-1
 535 210 l 2,7,8
 521 109 521 109 458 49 c 128,-1,9
 395 -11 395 -11 288 -11 c 0,10,11
 191 -11 191 -11 142.5 36.5 c 128,-1,12
 94 84 94 84 94 167 c 0,13,14
 94 181 94 181 98 213 c 2,15,-1
 164 684 l 1,16,-1
 211 684 l 1,17,-1
 146 214 l 2,18,19
 143 190 143 190 143 170 c 0,20,21
 143 104 143 104 179 68 c 128,-1,22
 215 32 215 32 289 32 c 0,23,24
 377 32 377 32 426.5 81.5 c 128,-1,25
 476 131 476 131 488 217 c 2,26,-1
 554 684 l 1,27,-1
 601 684 l 1,28,-1
 594 630 l 1,29,30
 628 637 628 637 642.5 657 c 128,-1,31
 657 677 657 677 657 710 c 0,32,33
 657 738 657 738 649 759 c 1,34,-1
 686 767 l 1,35,36
 696 741 696 741 696 709 c 0,37,4
 696 660 696 660 669.5 632 c 128,-1,5
EndSplineSet
Substitution2: "'c2sc' Capitals to Small Capitals lookup 27 subtable" uni1EEB.sc
Substitution2: "'aalt' Access All Alternates lookup 0 subtable" uni1EEB.sc
Position2: "'cpsp' Capital Spacing lookup 0 subtable" dx=5 dy=0 dh=10 dv=0
EndChar

StartChar: uni1EEC
Encoding: 7916 7916 279
Width: 647
GlyphClass: 2
Flags: W
AnchorPoint: "Anchor-18" 0 0 basechar 0
AnchorPoint: "Anchor-17" 663 684 basechar 0
AnchorPoint: "Anchor-16" 426 973 basechar 0
AnchorPoint: "Anchor-15" 374 0 basechar 0
AnchorPoint: "Anchor-14" 287 0 basechar 0
LayerCount: 2
Fore
SplineSet
390 933.5 m 128,-1,1
 378 930 378 930 360 922 c 1,2,-1
 348 953 l 1,3,4
 383 973 383 973 425 973 c 0,5,6
 463 973 463 973 484.5 954 c 128,-1,7
 506 935 506 935 506 902 c 256,8,9
 506 869 506 869 483.5 848.5 c 128,-1,10
 461 828 461 828 422 823 c 1,11,-1
 416 778 l 1,12,-1
 376 778 l 1,13,-1
 384 847 l 1,14,15
 418 849 418 849 440 861.5 c 128,-1,16
 462 874 462 874 462 901 c 0,17,18
 462 937 462 937 420 937 c 0,19,0
 402 937 402 937 390 933.5 c 128,-1,1
669.5 632 m 128,-1,21
 643 604 643 604 589 597 c 1,22,-1
 535 210 l 2,23,24
 521 109 521 109 458 49 c 128,-1,25
 395 -11 395 -11 288 -11 c 0,26,27
 191 -11 191 -11 142.5 36.5 c 128,-1,28
 94 84 94 84 94 167 c 0,29,30
 94 181 94 181 98 213 c 2,31,-1
 164 684 l 1,32,-1
 211 684 l 1,33,-1
 146 214 l 2,34,35
 143 190 143 190 143 170 c 0,36,37
 143 104 143 104 179 68 c 128,-1,38
 215 32 215 32 289 32 c 0,39,40
 377 32 377 32 426.5 81.5 c 128,-1,41
 476 131 476 131 488 217 c 2,42,-1
 554 684 l 1,43,-1
 601 684 l 1,44,-1
 594 630 l 1,45,46
 628 637 628 637 642.5 657 c 128,-1,47
 657 677 657 677 657 710 c 0,48,49
 657 738 657 738 649 759 c 1,50,-1
 686 767 l 1,51,52
 696 741 696 741 696 709 c 0,53,20
 696 660 696 660 669.5 632 c 128,-1,21
EndSplineSet
Substitution2: "'c2sc' Capitals to Small Capitals lookup 27 subtable" uni1EED.sc
Substitution2: "'aalt' Access All Alternates lookup 0 subtable" uni1EED.sc
Position2: "'cpsp' Capital Spacing lookup 0 subtable" dx=5 dy=0 dh=10 dv=0
EndChar

StartChar: uni1EEE
Encoding: 7918 7918 280
Width: 647
GlyphClass: 2
Flags: W
AnchorPoint: "Anchor-18" 0 0 basechar 0
AnchorPoint: "Anchor-17" 663 684 basechar 0
AnchorPoint: "Anchor-16" 407 879 basechar 0
AnchorPoint: "Anchor-15" 374 0 basechar 0
AnchorPoint: "Anchor-14" 287 0 basechar 0
LayerCount: 2
Fore
SplineSet
316.5 831.5 m 128,-1,1
 304 823 304 823 285 800 c 1,2,-1
 258 819 l 1,3,4
 302 879 302 879 348 879 c 0,5,6
 365 879 365 879 378.5 873 c 128,-1,7
 392 867 392 867 411 855 c 0,8,9
 426 845 426 845 437.5 839.5 c 128,-1,10
 449 834 449 834 461 834 c 0,11,12
 477 834 477 834 491.5 844.5 c 128,-1,13
 506 855 506 855 524 878 c 1,14,-1
 552 861 l 1,15,16
 511 796 511 796 462 796 c 0,17,18
 443 796 443 796 428.5 802.5 c 128,-1,19
 414 809 414 809 394 821 c 0,20,21
 380 831 380 831 369.5 835.5 c 128,-1,22
 359 840 359 840 348 840 c 0,23,0
 329 840 329 840 316.5 831.5 c 128,-1,1
669.5 632 m 128,-1,25
 643 604 643 604 589 597 c 1,26,-1
 535 210 l 2,27,28
 521 109 521 109 458 49 c 128,-1,29
 395 -11 395 -11 288 -11 c 0,30,31
 191 -11 191 -11 142.5 36.5 c 128,-1,32
 94 84 94 84 94 167 c 0,33,34
 94 181 94 181 98 213 c 2,35,-1
 164 684 l 1,36,-1
 211 684 l 1,37,-1
 146 214 l 2,38,39
 143 190 143 190 143 170 c 0,40,41
 143 104 143 104 179 68 c 128,-1,42
 215 32 215 32 289 32 c 0,43,44
 377 32 377 32 426.5 81.5 c 128,-1,45
 476 131 476 131 488 217 c 2,46,-1
 554 684 l 1,47,-1
 601 684 l 1,48,-1
 594 630 l 1,49,50
 628 637 628 637 642.5 657 c 128,-1,51
 657 677 657 677 657 710 c 0,52,53
 657 738 657 738 649 759 c 1,54,-1
 686 767 l 1,55,56
 696 741 696 741 696 709 c 0,57,24
 696 660 696 660 669.5 632 c 128,-1,25
EndSplineSet
Substitution2: "'c2sc' Capitals to Small Capitals lookup 27 subtable" uni1EEF.sc
Substitution2: "'aalt' Access All Alternates lookup 0 subtable" uni1EEF.sc
Position2: "'cpsp' Capital Spacing lookup 0 subtable" dx=5 dy=0 dh=10 dv=0
EndChar

StartChar: Uogonek
Encoding: 370 370 284
Width: 647
GlyphClass: 2
Flags: W
AnchorPoint: "Anchor-18" 0 0 basechar 0
AnchorPoint: "Anchor-17" 611 684 basechar 0
AnchorPoint: "Anchor-16" 383 684 basechar 0
AnchorPoint: "Anchor-15" 374 0 basechar 0
AnchorPoint: "Anchor-14" 287 0 basechar 0
LayerCount: 2
Fore
SplineSet
601 684 m 1,0,-1
 535 210 l 2,1,2
 523 126 523 126 478 70 c 128,-1,3
 433 14 433 14 356 -4 c 1,4,5
 296 -32 296 -32 269.5 -58 c 128,-1,6
 243 -84 243 -84 243 -119 c 0,7,8
 243 -144 243 -144 259.5 -158 c 128,-1,9
 276 -172 276 -172 310 -172 c 0,10,11
 332 -172 332 -172 365 -166 c 1,12,-1
 360 -207 l 1,13,14
 330 -213 330 -213 304 -213 c 0,15,16
 252 -213 252 -213 224.5 -188 c 128,-1,17
 197 -163 197 -163 197 -124 c 0,18,19
 197 -88 197 -88 219.5 -60.5 c 128,-1,20
 242 -33 242 -33 288 -11 c 1,21,22
 191 -11 191 -11 142.5 36.5 c 128,-1,23
 94 84 94 84 94 167 c 0,24,25
 94 181 94 181 98 213 c 2,26,-1
 164 684 l 1,27,-1
 211 684 l 1,28,-1
 146 214 l 2,29,30
 143 190 143 190 143 170 c 0,31,32
 143 104 143 104 179 68 c 128,-1,33
 215 32 215 32 289 32 c 0,34,35
 377 32 377 32 426.5 81.5 c 128,-1,36
 476 131 476 131 488 217 c 2,37,-1
 554 684 l 1,38,-1
 601 684 l 1,0,-1
EndSplineSet
Substitution2: "'c2sc' Capitals to Small Capitals lookup 27 subtable" uogonek.sc
Substitution2: "'aalt' Access All Alternates lookup 0 subtable" uogonek.sc
Position2: "'cpsp' Capital Spacing lookup 0 subtable" dx=5 dy=0 dh=10 dv=0
EndChar

StartChar: uni01B1
Encoding: 433 433 285
Width: 689
GlyphClass: 2
Flags: W
AnchorPoint: "Anchor-18" 0 0 basechar 0
AnchorPoint: "Anchor-17" 0 0 basechar 0
AnchorPoint: "Anchor-16" 404 684 basechar 0
AnchorPoint: "Anchor-15" 0 0 basechar 0
AnchorPoint: "Anchor-14" 307 0 basechar 0
LayerCount: 2
Fore
SplineSet
137 59 m 128,-1,1
 74 129 74 129 74 252 c 0,2,3
 74 376 74 376 124 477.5 c 128,-1,4
 174 579 174 579 267 643 c 1,5,-1
 147 643 l 1,6,-1
 152 684 l 1,7,-1
 330 684 l 1,8,-1
 326 642 l 1,9,10
 226 580 226 580 174.5 476 c 128,-1,11
 123 372 123 372 123 249 c 0,12,13
 123 144 123 144 173 87.5 c 128,-1,14
 223 31 223 31 311 31 c 0,15,16
 398 31 398 31 460 82 c 128,-1,17
 522 133 522 133 553.5 218 c 128,-1,18
 585 303 585 303 585 403 c 0,19,20
 585 559 585 559 476 643 c 1,21,-1
 480 684 l 1,22,-1
 658 684 l 1,23,-1
 652 641 l 1,24,-1
 533 641 l 1,25,26
 580 603 580 603 607 546.5 c 128,-1,27
 634 490 634 490 634 405 c 0,28,29
 634 291 634 291 595 196 c 128,-1,30
 556 101 556 101 482.5 45 c 128,-1,31
 409 -11 409 -11 310 -11 c 0,32,0
 200 -11 200 -11 137 59 c 128,-1,1
EndSplineSet
Substitution2: "'c2sc' Capitals to Small Capitals lookup 27 subtable" uni01B1.sc
Substitution2: "'aalt' Access All Alternates lookup 0 subtable" uni01B1.sc
Position2: "'cpsp' Capital Spacing lookup 0 subtable" dx=5 dy=0 dh=10 dv=0
EndChar

StartChar: V
Encoding: 86 86 289
Width: 541
GlyphClass: 2
Flags: W
AnchorPoint: "Anchor-18" 0 0 basechar 0
AnchorPoint: "Anchor-17" 0 0 basechar 0
AnchorPoint: "Anchor-16" 330 684 basechar 0
AnchorPoint: "Anchor-15" 0 0 basechar 0
AnchorPoint: "Anchor-14" 234 0 basechar 0
LayerCount: 2
Fore
SplineSet
580 684 m 1,0,-1
 261 0 l 1,1,-1
 206 0 l 1,2,-1
 79 684 l 1,3,-1
 128 684 l 1,4,-1
 239 48 l 1,5,-1
 530 684 l 1,6,-1
 580 684 l 1,0,-1
EndSplineSet
Substitution2: "'c2sc' Capitals to Small Capitals lookup 27 subtable" v.sc
Substitution2: "'aalt' Access All Alternates lookup 0 subtable" v.sc
Position2: "'cpsp' Capital Spacing lookup 0 subtable" dx=5 dy=0 dh=10 dv=0
EndChar

StartChar: uni01B2
Encoding: 434 434 290
Width: 635
GlyphClass: 2
Flags: W
AnchorPoint: "Anchor-18" 0 0 basechar 0
AnchorPoint: "Anchor-17" 0 0 basechar 0
AnchorPoint: "Anchor-16" 360 684 basechar 0
AnchorPoint: "Anchor-15" 0 0 basechar 0
AnchorPoint: "Anchor-14" 264 0 basechar 0
LayerCount: 2
Fore
SplineSet
570 673.5 m 128,-1,1
 591 653 591 653 591 613 c 0,2,3
 591 607 591 607 589 591 c 2,4,-1
 546 290 l 2,5,6
 532 194 532 194 492 126 c 128,-1,7
 452 58 452 58 392.5 23.5 c 128,-1,8
 333 -11 333 -11 263 -11 c 0,9,10
 184 -11 184 -11 138 33 c 128,-1,11
 92 77 92 77 92 151 c 0,12,13
 92 169 92 169 95 188 c 2,14,-1
 164 684 l 1,15,-1
 211 684 l 1,16,-1
 142 189 l 2,17,18
 140 177 140 177 140 155 c 0,19,20
 140 95 140 95 172 63.5 c 128,-1,21
 204 32 204 32 264 32 c 0,22,23
 355 32 355 32 418 100 c 128,-1,24
 481 168 481 168 499 297 c 2,25,-1
 541 594 l 2,26,27
 543 608 543 608 543 612 c 0,28,29
 543 654 543 654 504 654 c 0,30,31
 479 654 479 654 460 644 c 1,32,-1
 446 678 l 1,33,34
 475 694 475 694 511 694 c 0,35,0
 549 694 549 694 570 673.5 c 128,-1,1
EndSplineSet
Substitution2: "'c2sc' Capitals to Small Capitals lookup 27 subtable" uni028B.sc
Substitution2: "'aalt' Access All Alternates lookup 0 subtable" uni028B.sc
Position2: "'cpsp' Capital Spacing lookup 0 subtable" dx=5 dy=0 dh=10 dv=0
EndChar

StartChar: W
Encoding: 87 87 292
Width: 802
GlyphClass: 2
Flags: W
AnchorPoint: "Anchor-18" 0 0 basechar 0
AnchorPoint: "Anchor-17" 0 0 basechar 0
AnchorPoint: "Anchor-16" 460 684 basechar 0
AnchorPoint: "Anchor-15" 0 0 basechar 0
AnchorPoint: "Anchor-14" 364 0 basechar 0
LayerCount: 2
Fore
SplineSet
829 684 m 1,0,-1
 579 0 l 1,1,-1
 521 0 l 1,2,-1
 453 632 l 1,3,-1
 207 0 l 1,4,-1
 149 0 l 1,5,-1
 92 684 l 1,6,-1
 139 684 l 1,7,-1
 186 48 l 1,8,-1
 432 684 l 1,9,-1
 487 684 l 1,10,-1
 555 46 l 1,11,-1
 783 684 l 1,12,-1
 829 684 l 1,0,-1
EndSplineSet
Substitution2: "'c2sc' Capitals to Small Capitals lookup 27 subtable" w.sc
Substitution2: "'aalt' Access All Alternates lookup 0 subtable" w.sc
Position2: "'cpsp' Capital Spacing lookup 0 subtable" dx=5 dy=0 dh=10 dv=0
EndChar

StartChar: uni2C72
Encoding: 11378 11378 297
Width: 841
GlyphClass: 2
Flags: W
AnchorPoint: "Anchor-18" 0 0 basechar 0
AnchorPoint: "Anchor-17" 0 0 basechar 0
AnchorPoint: "Anchor-16" 460 684 basechar 0
AnchorPoint: "Anchor-15" 0 0 basechar 0
AnchorPoint: "Anchor-14" 364 0 basechar 0
LayerCount: 2
Fore
SplineSet
207 0 m 1,0,-1
 453 632 l 1,1,-1
 521 0 l 1,2,-1
 579 0 l 1,3,-1
 793 597 l 2,4,5
 804 629 804 629 820.5 642 c 128,-1,6
 837 655 837 655 863 655 c 0,7,8
 882 655 882 655 897.5 647 c 128,-1,9
 913 639 913 639 929 625 c 1,10,-1
 953 652 l 1,11,12
 913 694 913 694 862 694 c 0,13,14
 822 694 822 694 795.5 675 c 128,-1,15
 769 656 769 656 753 609 c 2,16,-1
 555 46 l 1,17,-1
 487 684 l 1,18,-1
 432 684 l 1,19,-1
 186 48 l 1,20,-1
 139 684 l 1,21,-1
 92 684 l 1,22,-1
 149 0 l 1,23,-1
 207 0 l 1,0,-1
EndSplineSet
Substitution2: "'c2sc' Capitals to Small Capitals lookup 27 subtable" uni2C73.sc
Substitution2: "'aalt' Access All Alternates lookup 0 subtable" uni2C73.sc
Position2: "'cpsp' Capital Spacing lookup 0 subtable" dx=5 dy=0 dh=10 dv=0
EndChar

StartChar: uni01F7
Encoding: 503 503 298
Width: 565
GlyphClass: 2
Flags: W
AnchorPoint: "Anchor-18" 0 0 basechar 0
AnchorPoint: "Anchor-17" 0 0 basechar 0
AnchorPoint: "Anchor-16" 342 684 basechar 0
AnchorPoint: "Anchor-15" 0 0 basechar 0
AnchorPoint: "Anchor-14" 246 0 basechar 0
LayerCount: 2
Fore
SplineSet
510 653.5 m 128,-1,1
 553 613 553 613 553 541 c 0,2,3
 553 430 553 430 477.5 364.5 c 128,-1,4
 402 299 402 299 265 252 c 2,5,-1
 155 215 l 1,6,-1
 125 0 l 1,7,-1
 77 0 l 1,8,-1
 174 684 l 1,9,-1
 221 684 l 1,10,-1
 213 628 l 1,11,12
 295 694 295 694 395 694 c 0,13,0
 467 694 467 694 510 653.5 c 128,-1,1
442 390.5 m 128,-1,15
 504 448 504 448 504 540 c 0,16,17
 504 595 504 595 474 624 c 128,-1,18
 444 653 444 653 390 653 c 256,19,20
 336 653 336 653 291.5 634 c 128,-1,21
 247 615 247 615 207 583 c 1,22,-1
 161 258 l 1,23,-1
 266 294 l 2,24,14
 380 333 380 333 442 390.5 c 128,-1,15
EndSplineSet
Substitution2: "'c2sc' Capitals to Small Capitals lookup 27 subtable" uni01BF.sc
Substitution2: "'aalt' Access All Alternates lookup 0 subtable" uni01BF.sc
Position2: "'cpsp' Capital Spacing lookup 0 subtable" dx=5 dy=0 dh=10 dv=0
EndChar

StartChar: X
Encoding: 88 88 299
Width: 504
GlyphClass: 2
Flags: W
AnchorPoint: "Anchor-18" 0 0 basechar 0
AnchorPoint: "Anchor-17" 0 0 basechar 0
AnchorPoint: "Anchor-16" 310 684 basechar 0
AnchorPoint: "Anchor-15" 0 0 basechar 0
AnchorPoint: "Anchor-14" 214 0 basechar 0
LayerCount: 2
Fore
SplineSet
521 684 m 1,0,-1
 292 370 l 1,1,-1
 454 0 l 1,2,-1
 403 0 l 1,3,-1
 261 336 l 1,4,-1
 28 0 l 1,5,-1
 -25 0 l 1,6,-1
 235 369 l 1,7,-1
 93 684 l 1,8,-1
 145 684 l 1,9,-1
 267 402 l 1,10,-1
 468 684 l 1,11,-1
 521 684 l 1,0,-1
EndSplineSet
Substitution2: "'c2sc' Capitals to Small Capitals lookup 27 subtable" x.sc
Substitution2: "'aalt' Access All Alternates lookup 0 subtable" x.sc
Position2: "'cpsp' Capital Spacing lookup 0 subtable" dx=5 dy=0 dh=10 dv=0
EndChar

StartChar: Y
Encoding: 89 89 300
Width: 512
GlyphClass: 2
Flags: W
AnchorPoint: "Anchor-18" 0 0 basechar 0
AnchorPoint: "Anchor-17" 0 0 basechar 0
AnchorPoint: "Anchor-16" 313 684 basechar 0
AnchorPoint: "Anchor-15" 0 0 basechar 0
AnchorPoint: "Anchor-14" 220 0 basechar 0
LayerCount: 2
Fore
SplineSet
555 684 m 1,0,-1
 282 269 l 1,1,-1
 244 0 l 1,2,-1
 196 0 l 1,3,-1
 234 268 l 1,4,-1
 75 684 l 1,5,-1
 126 684 l 1,6,-1
 262 313 l 1,7,-1
 501 684 l 1,8,-1
 555 684 l 1,0,-1
EndSplineSet
Substitution2: "'c2sc' Capitals to Small Capitals lookup 27 subtable" y.sc
Substitution2: "'aalt' Access All Alternates lookup 0 subtable" y.sc
Position2: "'cpsp' Capital Spacing lookup 0 subtable" dx=5 dy=0 dh=10 dv=0
EndChar

StartChar: uni01B3
Encoding: 435 435 306
Width: 541
GlyphClass: 2
Flags: W
AnchorPoint: "Anchor-18" 0 0 basechar 0
AnchorPoint: "Anchor-17" 0 0 basechar 0
AnchorPoint: "Anchor-16" 330 684 basechar 0
AnchorPoint: "Anchor-15" 0 0 basechar 0
AnchorPoint: "Anchor-14" 220 0 basechar 0
LayerCount: 2
Fore
SplineSet
234 268 m 1,0,-1
 75 684 l 1,1,-1
 127 684 l 1,2,-1
 263 313 l 1,3,-1
 444 614 l 2,4,5
 471 658 471 658 497.5 676 c 128,-1,6
 524 694 524 694 562 694 c 0,7,8
 614 694 614 694 654 652 c 1,9,-1
 630 625 l 1,10,11
 596 655 596 655 563 655 c 0,12,13
 538 655 538 655 520.5 642.5 c 128,-1,14
 503 630 503 630 483 597 c 2,15,-1
 282 269 l 1,16,-1
 244 0 l 1,17,-1
 196 0 l 1,18,-1
 234 268 l 1,0,-1
EndSplineSet
Substitution2: "'c2sc' Capitals to Small Capitals lookup 27 subtable" uni01B4.sc
Substitution2: "'aalt' Access All Alternates lookup 0 subtable" uni01B4.sc
Position2: "'cpsp' Capital Spacing lookup 0 subtable" dx=5 dy=0 dh=10 dv=0
EndChar

StartChar: uni01A6
Encoding: 422 422 309
Width: 583
GlyphClass: 2
Flags: W
AnchorPoint: "Anchor-18" 0 0 basechar 0
AnchorPoint: "Anchor-17" 0 0 basechar 0
AnchorPoint: "Anchor-16" 351 684 basechar 0
AnchorPoint: "Anchor-15" 0 0 basechar 0
AnchorPoint: "Anchor-14" 0 0 basechar 0
LayerCount: 2
Fore
SplineSet
486.5 270.5 m 128,-1,1
 444 214 444 214 347 192 c 1,2,-1
 492 -128 l 1,3,-1
 440 -128 l 1,4,-1
 300 185 l 1,5,-1
 151 185 l 1,6,-1
 125 0 l 1,7,-1
 77 0 l 1,8,-1
 174 684 l 1,9,-1
 221 684 l 1,10,-1
 203 556 l 1,11,-1
 315 556 l 2,12,13
 424 556 424 556 476.5 517 c 128,-1,14
 529 478 529 478 529 400 c 0,15,0
 529 327 529 327 486.5 270.5 c 128,-1,1
281 225 m 2,16,17
 353 225 353 225 397.5 251 c 128,-1,18
 442 277 442 277 461 317 c 128,-1,19
 480 357 480 357 480 401 c 0,20,21
 480 460 480 460 441.5 487.5 c 128,-1,22
 403 515 403 515 317 515 c 2,23,-1
 197 515 l 1,24,-1
 157 225 l 1,25,-1
 281 225 l 2,16,17
EndSplineSet
Substitution2: "'c2sc' Capitals to Small Capitals lookup 27 subtable" uni0280.sc
Substitution2: "'aalt' Access All Alternates lookup 0 subtable" uni0280.sc
Position2: "'cpsp' Capital Spacing lookup 0 subtable" dx=5 dy=0 dh=10 dv=0
EndChar

StartChar: uni024E
Encoding: 590 590 310
Width: 515
GlyphClass: 2
Flags: W
AnchorPoint: "Anchor-18" 0 0 basechar 0
AnchorPoint: "Anchor-17" 0 0 basechar 0
AnchorPoint: "Anchor-16" 317 684 basechar 0
AnchorPoint: "Anchor-15" 0 0 basechar 0
AnchorPoint: "Anchor-14" 221 0 basechar 0
LayerCount: 2
Fore
SplineSet
496 591 m 1,0,-1
 546 591 l 1,1,-1
 540 556 l 1,2,-1
 473 556 l 1,3,-1
 285 269 l 1,4,-1
 246 0 l 1,5,-1
 198 0 l 1,6,-1
 236 268 l 1,7,-1
 127 556 l 1,8,-1
 59 556 l 1,9,-1
 64 591 l 1,10,-1
 113 591 l 1,11,-1
 78 684 l 1,12,-1
 129 684 l 1,13,-1
 163 591 l 1,14,-1
 444 591 l 1,15,-1
 504 684 l 1,16,-1
 557 684 l 1,17,-1
 496 591 l 1,0,-1
264 313 m 1,18,-1
 421 556 l 1,19,-1
 176 556 l 1,20,-1
 264 313 l 1,18,-1
EndSplineSet
Substitution2: "'c2sc' Capitals to Small Capitals lookup 27 subtable" uni024F.sc
Substitution2: "'aalt' Access All Alternates lookup 0 subtable" uni024F.sc
Position2: "'cpsp' Capital Spacing lookup 0 subtable" dx=5 dy=0 dh=10 dv=0
EndChar

StartChar: Z
Encoding: 90 90 312
Width: 512
GlyphClass: 2
Flags: W
AnchorPoint: "Anchor-18" 0 0 basechar 0
AnchorPoint: "Anchor-17" 0 0 basechar 0
AnchorPoint: "Anchor-16" 319 684 basechar 0
AnchorPoint: "Anchor-15" 0 0 basechar 0
AnchorPoint: "Anchor-14" 207 0 basechar 0
LayerCount: 2
Fore
SplineSet
0 0 m 1,0,-1
 6 41 l 1,1,-1
 462 641 l 1,2,-1
 128 641 l 1,3,-1
 134 684 l 1,4,-1
 523 684 l 1,5,-1
 518 644 l 1,6,-1
 63 43 l 1,7,-1
 425 43 l 1,8,-1
 412 0 l 1,9,-1
 0 0 l 1,0,-1
EndSplineSet
Substitution2: "'c2sc' Capitals to Small Capitals lookup 27 subtable" z.sc
Substitution2: "'aalt' Access All Alternates lookup 0 subtable" z.sc
Position2: "'cpsp' Capital Spacing lookup 0 subtable" dx=5 dy=0 dh=10 dv=0
EndChar

StartChar: uni0224
Encoding: 548 548 317
Width: 512
GlyphClass: 2
Flags: W
AnchorPoint: "Anchor-18" 0 0 basechar 0
AnchorPoint: "Anchor-17" 0 0 basechar 0
AnchorPoint: "Anchor-16" 316 684 basechar 0
AnchorPoint: "Anchor-15" 0 0 basechar 0
AnchorPoint: "Anchor-14" 0 0 basechar 0
LayerCount: 2
Fore
SplineSet
518 644 m 1,0,-1
 63 43 l 1,1,-1
 422 43 l 1,2,-1
 416 0 l 1,3,-1
 405 -77 l 2,4,5
 395 -140 395 -140 360 -171.5 c 128,-1,6
 325 -203 325 -203 273 -203 c 0,7,8
 222 -203 222 -203 179 -169 c 1,9,-1
 203 -139 l 1,10,11
 219 -150 219 -150 234.5 -156 c 128,-1,12
 250 -162 250 -162 273 -162 c 0,13,14
 345 -162 345 -162 358 -74 c 2,15,-1
 369 0 l 1,16,-1
 0 0 l 1,17,-1
 6 41 l 1,18,-1
 462 641 l 1,19,-1
 128 641 l 1,20,-1
 134 684 l 1,21,-1
 523 684 l 1,22,-1
 518 644 l 1,0,-1
EndSplineSet
Substitution2: "'c2sc' Capitals to Small Capitals lookup 27 subtable" uni0225.sc
Substitution2: "'aalt' Access All Alternates lookup 0 subtable" uni0225.sc
Position2: "'cpsp' Capital Spacing lookup 0 subtable" dx=5 dy=0 dh=10 dv=0
EndChar

StartChar: uni01B5
Encoding: 437 437 318
Width: 512
GlyphClass: 2
Flags: W
AnchorPoint: "Anchor-18" 0 0 basechar 0
AnchorPoint: "Anchor-17" 0 0 basechar 0
AnchorPoint: "Anchor-16" 316 684 basechar 0
AnchorPoint: "Anchor-15" 0 0 basechar 0
AnchorPoint: "Anchor-14" 219 0 basechar 0
LayerCount: 2
Fore
SplineSet
523 684 m 1,0,-1
 518 644 l 1,1,-1
 306 364 l 1,2,-1
 410 364 l 1,3,-1
 403 324 l 1,4,-1
 276 324 l 1,5,-1
 63 43 l 1,6,-1
 425 43 l 1,7,-1
 412 0 l 1,8,-1
 0 0 l 1,9,-1
 6 41 l 1,10,-1
 221 324 l 1,11,-1
 113 324 l 1,12,-1
 119 364 l 1,13,-1
 251 364 l 1,14,-1
 462 641 l 1,15,-1
 128 641 l 1,16,-1
 134 684 l 1,17,-1
 523 684 l 1,0,-1
EndSplineSet
Substitution2: "'c2sc' Capitals to Small Capitals lookup 27 subtable" uni01B6.sc
Substitution2: "'aalt' Access All Alternates lookup 0 subtable" uni01B6.sc
Position2: "'cpsp' Capital Spacing lookup 0 subtable" dx=5 dy=0 dh=10 dv=0
EndChar

StartChar: Eng.ss01
Encoding: 65542 -1 324
Width: 657
GlyphClass: 2
Flags: W
AnchorPoint: "Anchor-18" 0 0 basechar 0
AnchorPoint: "Anchor-17" 0 0 basechar 0
AnchorPoint: "Anchor-16" 387 684 basechar 0
AnchorPoint: "Anchor-15" 0 0 basechar 0
AnchorPoint: "Anchor-14" 0 0 basechar 0
LayerCount: 2
Fore
SplineSet
548 654 m 128,-1,1
 587 614 587 614 587 540 c 0,2,3
 587 518 587 518 584 494 c 2,4,-1
 514 0 l 1,5,-1
 503 -77 l 2,6,7
 494 -140 494 -140 458.5 -171.5 c 128,-1,8
 423 -203 423 -203 371 -203 c 0,9,10
 320 -203 320 -203 277 -169 c 1,11,-1
 300 -139 l 1,12,13
 316 -150 316 -150 331.5 -156 c 128,-1,14
 347 -162 347 -162 370 -162 c 0,15,16
 403 -162 403 -162 426 -141 c 128,-1,17
 449 -120 449 -120 455 -74 c 2,18,-1
 466 0 l 1,19,-1
 467 0 l 1,20,-1
 536 489 l 2,21,22
 539 513 539 513 539 533 c 0,23,24
 539 653 539 653 427 653 c 0,25,26
 361 653 361 653 306.5 621 c 128,-1,27
 252 589 252 589 200 532 c 1,28,-1
 125 0 l 1,29,-1
 77 0 l 1,30,-1
 174 684 l 1,31,-1
 215 684 l 1,32,-1
 206 583 l 1,33,34
 307 694 307 694 434 694 c 0,35,0
 509 694 509 694 548 654 c 128,-1,1
EndSplineSet
Position2: "'cpsp' Capital Spacing lookup 0 subtable" dx=5 dy=0 dh=10 dv=0
EndChar

StartChar: uni019D.ss01
Encoding: 65543 -1 325
Width: 658
GlyphClass: 2
Flags: W
AnchorPoint: "Anchor-18" 0 0 basechar 0
AnchorPoint: "Anchor-17" 0 0 basechar 0
AnchorPoint: "Anchor-16" 387 684 basechar 0
AnchorPoint: "Anchor-15" 0 0 basechar 0
AnchorPoint: "Anchor-14" 0 0 basechar 0
LayerCount: 2
Fore
SplineSet
547 653.5 m 128,-1,1
 587 613 587 613 587 539 c 0,2,3
 587 518 587 518 584 494 c 2,4,-1
 514 0 l 1,5,-1
 467 0 l 1,6,-1
 536 489 l 2,7,8
 539 513 539 513 539 534 c 0,9,10
 539 653 539 653 427 653 c 0,11,12
 362 653 362 653 308 621 c 128,-1,13
 254 589 254 589 200 532 c 1,14,-1
 125 0 l 1,15,-1
 126 0 l 1,16,-1
 115 -77 l 2,17,18
 106 -140 106 -140 70.5 -171.5 c 128,-1,19
 35 -203 35 -203 -17 -203 c 256,20,21
 -69 -203 -69 -203 -111 -169 c 1,22,-1
 -88 -139 l 1,23,24
 -72 -150 -72 -150 -56.5 -156 c 128,-1,25
 -41 -162 -41 -162 -18 -162 c 0,26,27
 15 -162 15 -162 38 -141 c 128,-1,28
 61 -120 61 -120 67 -74 c 2,29,-1
 78 0 l 1,30,-1
 174 684 l 1,31,-1
 215 684 l 1,32,-1
 206 587 l 1,33,34
 310 694 310 694 433 694 c 0,35,0
 507 694 507 694 547 653.5 c 128,-1,1
EndSplineSet
Position2: "'cpsp' Capital Spacing lookup 0 subtable" dx=5 dy=0 dh=10 dv=0
EndChar

StartChar: uni2C64.ss01
Encoding: 65544 -1 326
Width: 391
GlyphClass: 2
Flags: W
AnchorPoint: "Anchor-18" 0 0 basechar 0
AnchorPoint: "Anchor-17" 0 0 basechar 0
AnchorPoint: "Anchor-16" 255 684 basechar 0
AnchorPoint: "Anchor-15" 0 0 basechar 0
AnchorPoint: "Anchor-14" 0 0 basechar 0
LayerCount: 2
Fore
SplineSet
443 685 m 1,1,-1
 429 640 l 1,2,3
 407 648 407 648 378 648 c 0,4,5
 315 648 315 648 272 609.5 c 128,-1,6
 229 571 229 571 194 487 c 1,7,-1
 125 0 l 1,8,-1
 115 -77 l 2,9,10
 113 -95 113 -95 113 -101 c 0,11,12
 113 -162 113 -162 169 -162 c 0,13,14
 193 -162 193 -162 211 -156 c 128,-1,15
 229 -150 229 -150 249 -138 c 1,16,-1
 267 -171 l 1,17,18
 221 -203 221 -203 167 -203 c 0,19,20
 120 -203 120 -203 92.5 -177 c 128,-1,21
 65 -151 65 -151 65 -101 c 0,22,23
 65 -93 65 -93 67 -73 c 2,24,-1
 78 0 l 1,25,-1
 77 0 l 1,26,-1
 174 684 l 1,27,-1
 215 684 l 1,28,-1
 202 570 l 1,29,30
 234 634 234 634 276.5 664 c 128,-1,31
 319 694 319 694 382 694 c 0,32,0
 416 694 416 694 443 685 c 1,1,-1
EndSplineSet
Position2: "'cpsp' Capital Spacing lookup 0 subtable" dx=5 dy=0 dh=10 dv=0
EndChar

StartChar: uniA78D.ss02
Encoding: 65546 -1 328
Width: 579
GlyphClass: 2
Flags: W
AnchorPoint: "Anchor-18" 0 0 basechar 0
AnchorPoint: "Anchor-17" 0 0 basechar 0
AnchorPoint: "Anchor-16" 320 684 basechar 0
AnchorPoint: "Anchor-15" 0 0 basechar 0
AnchorPoint: "Anchor-14" 253 0 basechar 0
LayerCount: 2
Fore
SplineSet
428 0 m 1,0,-1
 380 0 l 1,1,-1
 418 266 l 1,2,-1
 58 266 l 1,3,-1
 116 684 l 1,4,-1
 164 684 l 1,5,-1
 111 308 l 1,6,-1
 424 308 l 1,7,-1
 476 684 l 1,8,-1
 524 684 l 1,9,-1
 428 0 l 1,0,-1
EndSplineSet
Position2: "'cpsp' Capital Spacing lookup 0 subtable" dx=5 dy=0 dh=10 dv=0
EndChar

StartChar: uni0299
Encoding: 665 665 329
Width: 518
GlyphClass: 2
Flags: W
AnchorPoint: "Anchor-18" 0 0 basechar 0
AnchorPoint: "Anchor-17" 0 0 basechar 0
AnchorPoint: "Anchor-16" 296 522 basechar 0
AnchorPoint: "Anchor-15" 0 0 basechar 0
AnchorPoint: "Anchor-14" 222 0 basechar 0
LayerCount: 2
Fore
SplineSet
435 251.5 m 128,-1,1
 464 225 464 225 464 177 c 0,2,3
 464 89 464 89 400.5 44.5 c 128,-1,4
 337 0 337 0 234 0 c 2,5,-1
 73 0 l 1,6,-1
 145 517 l 1,7,8
 237 532 237 532 302 532 c 0,9,10
 383 532 383 532 426 499.5 c 128,-1,11
 469 467 469 467 469 412 c 0,12,13
 468 360 468 360 437 327 c 128,-1,14
 406 294 406 294 353 283 c 1,15,0
 406 278 406 278 435 251.5 c 128,-1,1
189 483 m 1,17,-1
 162 298 l 1,18,-1
 291 298 l 2,19,20
 351 298 351 298 386 329.5 c 128,-1,21
 421 361 421 361 421 412 c 0,22,23
 421 493 421 493 302 493 c 0,24,16
 239 493 239 493 189 483 c 1,17,-1
365.5 73 m 128,-1,26
 416 106 416 106 416 177 c 0,27,28
 416 221 416 221 386 240.5 c 128,-1,29
 356 260 356 260 296 260 c 2,30,-1
 157 260 l 1,31,-1
 125 40 l 1,32,-1
 233 40 l 2,33,25
 315 40 315 40 365.5 73 c 128,-1,26
EndSplineSet
EndChar

StartChar: uni0262
Encoding: 610 610 330
Width: 552
GlyphClass: 2
Flags: W
AnchorPoint: "Anchor-18" 0 0 basechar 0
AnchorPoint: "Anchor-17" 0 0 basechar 0
AnchorPoint: "Anchor-16" 334 522 basechar 0
AnchorPoint: "Anchor-15" 0 0 basechar 0
AnchorPoint: "Anchor-14" 260 0 basechar 0
LayerCount: 2
Fore
SplineSet
415 520 m 128,-1,1
 451 506 451 506 484 478 c 1,2,-1
 455 449 l 1,3,4
 427 472 427 472 397.5 482.5 c 128,-1,5
 368 493 368 493 332 493 c 0,6,7
 263 493 263 493 212.5 452.5 c 128,-1,8
 162 412 162 412 136 344.5 c 128,-1,9
 110 277 110 277 110 200 c 0,10,11
 110 31 110 31 263 31 c 0,12,13
 331 31 331 31 390 59 c 1,14,-1
 415 243 l 1,15,-1
 301 243 l 1,16,-1
 301 282 l 1,17,-1
 467 282 l 1,18,-1
 434 36 l 1,19,20
 394 14 394 14 349.5 2.5 c 128,-1,21
 305 -9 305 -9 261 -9 c 0,22,23
 167 -9 167 -9 114.5 44 c 128,-1,24
 62 97 62 97 62 201 c 0,25,26
 62 291 62 291 95.5 367 c 128,-1,27
 129 443 129 443 190.5 488.5 c 128,-1,28
 252 534 252 534 332 534 c 0,29,0
 379 534 379 534 415 520 c 128,-1,1
EndSplineSet
EndChar

StartChar: uni029B
Encoding: 667 667 331
Width: 552
GlyphClass: 2
Flags: W
AnchorPoint: "Anchor-18" 0 0 basechar 0
AnchorPoint: "Anchor-17" 0 0 basechar 0
AnchorPoint: "Anchor-16" 343 735 basechar 0
AnchorPoint: "Anchor-15" 0 0 basechar 0
AnchorPoint: "Anchor-14" 261 0 basechar 0
LayerCount: 2
Fore
SplineSet
683 707 m 1,1,-1
 660 678 l 1,2,3
 644 690 644 690 627.5 696 c 128,-1,4
 611 702 611 702 588 702 c 0,5,6
 555 702 555 702 532 681 c 128,-1,7
 509 660 509 660 503 614 c 2,8,-1
 484 478 l 1,9,-1
 460 454 l 1,10,11
 400 493 400 493 331 493 c 256,12,13
 262 493 262 493 212 452.5 c 128,-1,14
 162 412 162 412 135.5 345 c 128,-1,15
 109 278 109 278 109 200 c 0,16,17
 109 113 109 113 149 72 c 128,-1,18
 189 31 189 31 263 31 c 0,19,20
 331 31 331 31 390 59 c 1,21,-1
 415 243 l 1,22,-1
 300 243 l 1,23,-1
 300 282 l 1,24,-1
 467 282 l 1,25,-1
 434 36 l 1,26,27
 350 -9 350 -9 261 -9 c 0,28,29
 166 -9 166 -9 114 44.5 c 128,-1,30
 62 98 62 98 62 203 c 0,31,32
 62 292 62 292 96 368 c 128,-1,33
 130 444 130 444 191 489 c 128,-1,34
 252 534 252 534 330 534 c 0,35,36
 395 534 395 534 441 506 c 1,37,-1
 457 615 l 2,38,39
 466 678 466 678 500.5 709.5 c 128,-1,40
 535 741 535 741 587 741 c 0,41,0
 641 741 641 741 683 707 c 1,1,-1
EndSplineSet
EndChar

StartChar: uni026A
Encoding: 618 618 333
Width: 306
GlyphClass: 2
Flags: W
AnchorPoint: "Anchor-18" 0 0 basechar 0
AnchorPoint: "Anchor-17" 0 0 basechar 0
AnchorPoint: "Anchor-16" 190 522 basechar 0
AnchorPoint: "Anchor-15" 0 0 basechar 0
AnchorPoint: "Anchor-14" 116 0 basechar 0
LayerCount: 2
Fore
SplineSet
313 485 m 1,0,-1
 207 485 l 1,1,-1
 144 37 l 1,2,-1
 250 37 l 1,3,-1
 245 0 l 1,4,-1
 -13 0 l 1,5,-1
 -8 37 l 1,6,-1
 97 37 l 1,7,-1
 161 485 l 1,8,-1
 55 485 l 1,9,-1
 61 522 l 1,10,-1
 318 522 l 1,11,-1
 313 485 l 1,0,-1
EndSplineSet
EndChar

StartChar: uni029F
Encoding: 671 671 334
Width: 409
GlyphClass: 2
Flags: W
AnchorPoint: "Anchor-18" 0 0 basechar 0
AnchorPoint: "Anchor-17" 0 0 basechar 0
AnchorPoint: "Anchor-16" 170 522 basechar 0
AnchorPoint: "Anchor-15" 0 0 basechar 0
AnchorPoint: "Anchor-14" 213 0 basechar 0
LayerCount: 2
Fore
SplineSet
192 522 m 1,0,-1
 124 41 l 1,1,-1
 366 41 l 1,2,-1
 353 0 l 1,3,-1
 72 0 l 1,4,-1
 146 522 l 1,5,-1
 192 522 l 1,0,-1
EndSplineSet
EndChar

StartChar: uni0274
Encoding: 628 628 335
Width: 586
GlyphClass: 2
Flags: W
AnchorPoint: "Anchor-18" 0 0 basechar 0
AnchorPoint: "Anchor-17" 0 0 basechar 0
AnchorPoint: "Anchor-16" 331 522 basechar 0
AnchorPoint: "Anchor-15" 0 0 basechar 0
AnchorPoint: "Anchor-14" 257 0 basechar 0
LayerCount: 2
Fore
SplineSet
440 0 m 1,0,-1
 381 0 l 1,1,-1
 178 475 l 1,2,3
 173 403 173 403 155 273 c 2,4,-1
 116 0 l 1,5,-1
 72 0 l 1,6,-1
 146 522 l 1,7,-1
 205 522 l 1,8,-1
 408 46 l 1,9,10
 415 131 415 131 426 216 c 2,11,-1
 470 522 l 1,12,-1
 514 522 l 1,13,-1
 440 0 l 1,0,-1
EndSplineSet
EndChar

StartChar: uni0276
Encoding: 630 630 336
Width: 719
GlyphClass: 2
Flags: W
AnchorPoint: "Anchor-18" 0 0 basechar 0
AnchorPoint: "Anchor-17" 0 0 basechar 0
AnchorPoint: "Anchor-16" 429 522 basechar 0
AnchorPoint: "Anchor-15" 0 0 basechar 0
AnchorPoint: "Anchor-14" 355 0 basechar 0
LayerCount: 2
Fore
SplineSet
698 483 m 1,0,-1
 444 483 l 1,1,2
 473 460 473 460 489.5 415 c 128,-1,3
 506 370 506 370 505 313 c 0,4,5
 505 299 505 299 504 292 c 1,6,-1
 639 292 l 1,7,-1
 633 253 l 1,8,-1
 500 253 l 1,9,10
 490 185 490 185 459 128 c 128,-1,11
 428 71 428 71 379 39 c 1,12,-1
 646 39 l 1,13,-1
 641 0 l 1,14,-1
 315 0 l 1,15,16
 277 -11 277 -11 246 -11 c 0,17,18
 159 -11 159 -11 110.5 44.5 c 128,-1,19
 62 100 62 100 62 199 c 0,20,21
 62 274 62 274 88 350.5 c 128,-1,22
 114 427 114 427 172 479.5 c 128,-1,23
 230 532 230 532 320 532 c 0,24,25
 353 532 353 532 388 522 c 1,26,-1
 710 522 l 1,27,-1
 698 483 l 1,0,-1
421 450.5 m 128,-1,29
 385 493 385 493 319 493 c 0,30,31
 244 493 244 493 197.5 445 c 128,-1,32
 151 397 151 397 130.5 329 c 128,-1,33
 110 261 110 261 110 196 c 0,34,35
 110 115 110 115 146 72.5 c 128,-1,36
 182 30 182 30 248 30 c 0,37,38
 322 30 322 30 369 77 c 128,-1,39
 416 124 416 124 436.5 192.5 c 128,-1,40
 457 261 457 261 457 327 c 0,41,28
 457 408 457 408 421 450.5 c 128,-1,29
EndSplineSet
EndChar

StartChar: uni0280
Encoding: 640 640 337
Width: 510
GlyphClass: 2
Flags: W
AnchorPoint: "Anchor-18" 0 0 basechar 0
AnchorPoint: "Anchor-17" 0 0 basechar 0
AnchorPoint: "Anchor-16" 293 522 basechar 0
AnchorPoint: "Anchor-15" 0 0 basechar 0
AnchorPoint: "Anchor-14" 239 0 basechar 0
LayerCount: 2
Fore
SplineSet
417.5 283.5 m 128,-1,1
 377 244 377 244 307 227 c 1,2,-1
 428 0 l 1,3,-1
 377 0 l 1,4,-1
 263 221 l 1,5,-1
 150 221 l 1,6,-1
 118 0 l 1,7,-1
 72 0 l 1,8,-1
 146 522 l 1,9,-1
 272 522 l 2,10,11
 458 522 458 522 458 389 c 0,12,0
 458 323 458 323 417.5 283.5 c 128,-1,1
242 259 m 2,13,14
 321 259 321 259 365.5 293 c 128,-1,15
 410 327 410 327 410 389 c 0,16,17
 410 438 410 438 376.5 460.5 c 128,-1,18
 343 483 343 483 267 483 c 2,19,-1
 187 483 l 1,20,-1
 155 259 l 1,21,-1
 242 259 l 2,13,14
EndSplineSet
Substitution2: "'smcp' Lowercase to Small Capitals lookup 28 subtable" uni0280.sc
Substitution2: "'aalt' Access All Alternates lookup 0 subtable" uni0280.sc
EndChar

StartChar: uni0281
Encoding: 641 641 338
Width: 511
GlyphClass: 2
Flags: W
LayerCount: 2
Fore
SplineSet
397.5 250.5 m 128,-1,1
 426 219 426 219 426 171 c 0,2,3
 426 86 426 86 365.5 43 c 128,-1,4
 305 0 305 0 201 0 c 2,5,-1
 72 0 l 1,6,-1
 146 522 l 1,7,-1
 192 522 l 1,8,-1
 161 301 l 1,9,-1
 276 301 l 1,10,-1
 451 522 l 1,11,-1
 502 522 l 1,12,-1
 318 294 l 1,13,0
 369 282 369 282 397.5 250.5 c 128,-1,1
331.5 71 m 128,-1,15
 378 103 378 103 378 171 c 0,16,17
 378 262 378 262 252 262 c 2,18,-1
 155 262 l 1,19,-1
 124 39 l 1,20,-1
 201 39 l 2,21,14
 285 39 285 39 331.5 71 c 128,-1,15
EndSplineSet
EndChar

StartChar: uni028F
Encoding: 655 655 339
Width: 434
GlyphClass: 2
Flags: W
AnchorPoint: "Anchor-18" 0 0 basechar 0
AnchorPoint: "Anchor-17" 0 0 basechar 0
AnchorPoint: "Anchor-16" 255 522 basechar 0
AnchorPoint: "Anchor-15" 0 0 basechar 0
AnchorPoint: "Anchor-14" 181 0 basechar 0
LayerCount: 2
Fore
SplineSet
454 522 m 1,0,-1
 234 208 l 1,1,-1
 204 0 l 1,2,-1
 158 0 l 1,3,-1
 188 207 l 1,4,-1
 54 522 l 1,5,-1
 102 522 l 1,6,-1
 214 245 l 1,7,-1
 401 522 l 1,8,-1
 454 522 l 1,0,-1
EndSplineSet
EndChar

StartChar: a
Encoding: 97 97 340
Width: 556
GlyphClass: 2
Flags: W
AnchorPoint: "Anchor-18" 0 0 basechar 0
AnchorPoint: "Anchor-17" 0 0 basechar 0
AnchorPoint: "Anchor-16" 338 522 basechar 0
AnchorPoint: "Anchor-15" 458 -11 basechar 0
AnchorPoint: "Anchor-14" 269 0 basechar 0
LayerCount: 2
Fore
SplineSet
410.5 521.5 m 128,-1,1
 447 511 447 511 487 490 c 1,2,-1
 432 112 l 2,3,4
 429 93 429 93 429 78 c 0,5,6
 429 57 429 57 436.5 43.5 c 128,-1,7
 444 30 444 30 463 23 c 1,8,-1
 450 -11 l 1,9,10
 419 -2 419 -2 403 16 c 128,-1,11
 387 34 387 34 387 71 c 2,12,-1
 388 86 l 1,13,14
 357 41 357 41 315.5 15 c 128,-1,15
 274 -11 274 -11 225 -11 c 0,16,17
 148 -11 148 -11 104.5 43 c 128,-1,18
 61 97 61 97 61 192 c 0,19,20
 61 270 61 270 88.5 348.5 c 128,-1,21
 116 427 116 427 175.5 479.5 c 128,-1,22
 235 532 235 532 326 532 c 0,23,0
 374 532 374 532 410.5 521.5 c 128,-1,1
203.5 447 m 128,-1,25
 155 400 155 400 132.5 330.5 c 128,-1,26
 110 261 110 261 110 193 c 0,27,28
 110 113 110 113 141.5 71 c 128,-1,29
 173 29 173 29 230 29 c 0,30,31
 278 29 278 29 317.5 58.5 c 128,-1,32
 357 88 357 88 392 145 c 1,33,-1
 438 467 l 1,34,35
 390 494 390 494 327 494 c 0,36,24
 252 494 252 494 203.5 447 c 128,-1,25
EndSplineSet
Substitution2: "Single Substitution lookup 44 subtable" ordfeminine
Substitution2: "'smcp' Lowercase to Small Capitals lookup 28 subtable" a.sc
AlternateSubs2: "'aalt' Access All Alternates lookup 1 subtable" ordfeminine a.sc
EndChar

StartChar: uni1EAF
Encoding: 7855 7855 343
Width: 556
GlyphClass: 2
Flags: W
AnchorPoint: "Anchor-18" 0 0 basechar 0
AnchorPoint: "Anchor-17" 0 0 basechar 0
AnchorPoint: "Anchor-16" 361 697 basechar 0
AnchorPoint: "Anchor-15" 458 -11 basechar 0
AnchorPoint: "Anchor-14" 0 0 basechar 0
LayerCount: 2
Fore
SplineSet
451 848 m 1,0,-1
 481 816 l 1,1,-1
 351 700 l 1,2,-1
 330 721 l 1,3,-1
 451 848 l 1,0,-1
270 623 m 128,-1,5
 239 650 239 650 237 690 c 1,6,-1
 269 694 l 1,7,8
 274 667 274 667 295 651.5 c 128,-1,9
 316 636 316 636 349 636 c 0,10,11
 384 636 384 636 410.5 652.5 c 128,-1,12
 437 669 437 669 450 697 c 1,13,-1
 482 687 l 1,14,15
 470 647 470 647 433 621.5 c 128,-1,16
 396 596 396 596 349 596 c 0,17,4
 301 596 301 596 270 623 c 128,-1,5
410.5 521.5 m 128,-1,19
 447 511 447 511 487 490 c 1,20,-1
 432 112 l 2,21,22
 429 93 429 93 429 78 c 0,23,24
 429 57 429 57 436.5 43.5 c 128,-1,25
 444 30 444 30 463 23 c 1,26,-1
 450 -11 l 1,27,28
 419 -2 419 -2 403 16 c 128,-1,29
 387 34 387 34 387 71 c 2,30,-1
 388 86 l 1,31,32
 357 41 357 41 315.5 15 c 128,-1,33
 274 -11 274 -11 225 -11 c 0,34,35
 148 -11 148 -11 104.5 43 c 128,-1,36
 61 97 61 97 61 192 c 0,37,38
 61 270 61 270 88.5 348.5 c 128,-1,39
 116 427 116 427 175.5 479.5 c 128,-1,40
 235 532 235 532 326 532 c 0,41,18
 374 532 374 532 410.5 521.5 c 128,-1,19
203.5 447 m 128,-1,43
 155 400 155 400 132.5 330.5 c 128,-1,44
 110 261 110 261 110 193 c 0,45,46
 110 113 110 113 141.5 71 c 128,-1,47
 173 29 173 29 230 29 c 0,48,49
 278 29 278 29 317.5 58.5 c 128,-1,50
 357 88 357 88 392 145 c 1,51,-1
 438 467 l 1,52,53
 390 494 390 494 327 494 c 0,54,42
 252 494 252 494 203.5 447 c 128,-1,43
EndSplineSet
Substitution2: "'smcp' Lowercase to Small Capitals lookup 28 subtable" uni1EAF.sc
Substitution2: "'aalt' Access All Alternates lookup 0 subtable" uni1EAF.sc
EndChar

StartChar: uni1EB1
Encoding: 7857 7857 345
Width: 556
GlyphClass: 2
Flags: W
AnchorPoint: "Anchor-18" 0 0 basechar 0
AnchorPoint: "Anchor-17" 0 0 basechar 0
AnchorPoint: "Anchor-16" 360 697 basechar 0
AnchorPoint: "Anchor-15" 458 -11 basechar 0
AnchorPoint: "Anchor-14" 0 0 basechar 0
LayerCount: 2
Fore
SplineSet
288 848 m 1,0,-1
 374 718 l 1,1,-1
 351 700 l 1,2,-1
 252 819 l 1,3,-1
 288 848 l 1,0,-1
269 623 m 128,-1,5
 238 650 238 650 236 690 c 1,6,-1
 268 694 l 1,7,8
 273 667 273 667 294 651.5 c 128,-1,9
 315 636 315 636 348 636 c 0,10,11
 383 636 383 636 409.5 652.5 c 128,-1,12
 436 669 436 669 449 697 c 1,13,-1
 481 687 l 1,14,15
 469 647 469 647 432 621.5 c 128,-1,16
 395 596 395 596 348 596 c 0,17,4
 300 596 300 596 269 623 c 128,-1,5
410.5 521.5 m 128,-1,19
 447 511 447 511 487 490 c 1,20,-1
 432 112 l 2,21,22
 429 93 429 93 429 78 c 0,23,24
 429 57 429 57 436.5 43.5 c 128,-1,25
 444 30 444 30 463 23 c 1,26,-1
 450 -11 l 1,27,28
 419 -2 419 -2 403 16 c 128,-1,29
 387 34 387 34 387 71 c 2,30,-1
 388 86 l 1,31,32
 357 41 357 41 315.5 15 c 128,-1,33
 274 -11 274 -11 225 -11 c 0,34,35
 148 -11 148 -11 104.5 43 c 128,-1,36
 61 97 61 97 61 192 c 0,37,38
 61 270 61 270 88.5 348.5 c 128,-1,39
 116 427 116 427 175.5 479.5 c 128,-1,40
 235 532 235 532 326 532 c 0,41,18
 374 532 374 532 410.5 521.5 c 128,-1,19
203.5 447 m 128,-1,43
 155 400 155 400 132.5 330.5 c 128,-1,44
 110 261 110 261 110 193 c 0,45,46
 110 113 110 113 141.5 71 c 128,-1,47
 173 29 173 29 230 29 c 0,48,49
 278 29 278 29 317.5 58.5 c 128,-1,50
 357 88 357 88 392 145 c 1,51,-1
 438 467 l 1,52,53
 390 494 390 494 327 494 c 0,54,42
 252 494 252 494 203.5 447 c 128,-1,43
EndSplineSet
Substitution2: "'smcp' Lowercase to Small Capitals lookup 28 subtable" uni1EB1.sc
Substitution2: "'aalt' Access All Alternates lookup 0 subtable" uni1EB1.sc
EndChar

StartChar: uni1EB5
Encoding: 7861 7861 347
Width: 556
GlyphClass: 2
Flags: W
AnchorPoint: "Anchor-18" 0 0 basechar 0
AnchorPoint: "Anchor-17" 0 0 basechar 0
AnchorPoint: "Anchor-16" 372 821 basechar 0
AnchorPoint: "Anchor-15" 458 -11 basechar 0
AnchorPoint: "Anchor-14" 0 0 basechar 0
LayerCount: 2
Fore
SplineSet
393.5 744.5 m 128,-1,1
 379 751 379 751 359 763 c 0,2,3
 345 773 345 773 334.5 777.5 c 128,-1,4
 324 782 324 782 313 782 c 0,5,6
 294 782 294 782 281.5 773.5 c 128,-1,7
 269 765 269 765 250 742 c 1,8,-1
 223 761 l 1,9,10
 267 821 267 821 313 821 c 0,11,12
 330 821 330 821 343.5 815 c 128,-1,13
 357 809 357 809 376 797 c 0,14,15
 391 787 391 787 402.5 781.5 c 128,-1,16
 414 776 414 776 426 776 c 0,17,18
 442 776 442 776 456.5 786.5 c 128,-1,19
 471 797 471 797 489 820 c 1,20,-1
 517 803 l 1,21,22
 476 738 476 738 427 738 c 0,23,0
 408 738 408 738 393.5 744.5 c 128,-1,1
271 623 m 128,-1,25
 240 650 240 650 238 690 c 1,26,-1
 270 694 l 1,27,28
 275 667 275 667 296 651.5 c 128,-1,29
 317 636 317 636 350 636 c 0,30,31
 385 636 385 636 411.5 652.5 c 128,-1,32
 438 669 438 669 451 697 c 1,33,-1
 483 687 l 1,34,35
 471 647 471 647 434 621.5 c 128,-1,36
 397 596 397 596 350 596 c 0,37,24
 302 596 302 596 271 623 c 128,-1,25
410.5 521.5 m 128,-1,39
 447 511 447 511 487 490 c 1,40,-1
 432 112 l 2,41,42
 429 93 429 93 429 78 c 0,43,44
 429 57 429 57 436.5 43.5 c 128,-1,45
 444 30 444 30 463 23 c 1,46,-1
 450 -11 l 1,47,48
 419 -2 419 -2 403 16 c 128,-1,49
 387 34 387 34 387 71 c 2,50,-1
 388 86 l 1,51,52
 357 41 357 41 315.5 15 c 128,-1,53
 274 -11 274 -11 225 -11 c 0,54,55
 148 -11 148 -11 104.5 43 c 128,-1,56
 61 97 61 97 61 192 c 0,57,58
 61 270 61 270 88.5 348.5 c 128,-1,59
 116 427 116 427 175.5 479.5 c 128,-1,60
 235 532 235 532 326 532 c 0,61,38
 374 532 374 532 410.5 521.5 c 128,-1,39
203.5 447 m 128,-1,63
 155 400 155 400 132.5 330.5 c 128,-1,64
 110 261 110 261 110 193 c 0,65,66
 110 113 110 113 141.5 71 c 128,-1,67
 173 29 173 29 230 29 c 0,68,69
 278 29 278 29 317.5 58.5 c 128,-1,70
 357 88 357 88 392 145 c 1,71,-1
 438 467 l 1,72,73
 390 494 390 494 327 494 c 0,74,62
 252 494 252 494 203.5 447 c 128,-1,63
EndSplineSet
Substitution2: "'smcp' Lowercase to Small Capitals lookup 28 subtable" uni1EB5.sc
Substitution2: "'aalt' Access All Alternates lookup 0 subtable" uni1EB5.sc
EndChar

StartChar: uni1EA5
Encoding: 7845 7845 350
Width: 556
GlyphClass: 2
Flags: W
AnchorPoint: "Anchor-18" 0 0 basechar 0
AnchorPoint: "Anchor-17" 431 568 basechar 0
AnchorPoint: "Anchor-16" 359 710 basechar 0
AnchorPoint: "Anchor-15" 458 -11 basechar 0
AnchorPoint: "Anchor-14" 0 0 basechar 0
LayerCount: 2
Fore
SplineSet
551 834 m 1,0,-1
 581 802 l 1,1,-1
 451 686 l 1,2,-1
 430 707 l 1,3,-1
 551 834 l 1,0,-1
225 586 m 1,4,-1
 206 612 l 1,5,-1
 346 710 l 1,6,-1
 373 710 l 1,7,-1
 486 611 l 1,8,-1
 464 586 l 1,9,-1
 356 666 l 1,10,-1
 225 586 l 1,4,-1
410.5 521.5 m 128,-1,12
 447 511 447 511 487 490 c 1,13,-1
 432 112 l 2,14,15
 429 93 429 93 429 78 c 0,16,17
 429 57 429 57 436.5 43.5 c 128,-1,18
 444 30 444 30 463 23 c 1,19,-1
 450 -11 l 1,20,21
 419 -2 419 -2 403 16 c 128,-1,22
 387 34 387 34 387 71 c 2,23,-1
 388 86 l 1,24,25
 357 41 357 41 315.5 15 c 128,-1,26
 274 -11 274 -11 225 -11 c 0,27,28
 148 -11 148 -11 104.5 43 c 128,-1,29
 61 97 61 97 61 192 c 0,30,31
 61 270 61 270 88.5 348.5 c 128,-1,32
 116 427 116 427 175.5 479.5 c 128,-1,33
 235 532 235 532 326 532 c 0,34,11
 374 532 374 532 410.5 521.5 c 128,-1,12
203.5 447 m 128,-1,36
 155 400 155 400 132.5 330.5 c 128,-1,37
 110 261 110 261 110 193 c 0,38,39
 110 113 110 113 141.5 71 c 128,-1,40
 173 29 173 29 230 29 c 0,41,42
 278 29 278 29 317.5 58.5 c 128,-1,43
 357 88 357 88 392 145 c 1,44,-1
 438 467 l 1,45,46
 390 494 390 494 327 494 c 0,47,35
 252 494 252 494 203.5 447 c 128,-1,36
EndSplineSet
Substitution2: "'smcp' Lowercase to Small Capitals lookup 28 subtable" uni1EA5.sc
Substitution2: "'aalt' Access All Alternates lookup 0 subtable" uni1EA5.sc
EndChar

StartChar: uni1EA7
Encoding: 7847 7847 352
Width: 556
GlyphClass: 2
Flags: W
AnchorPoint: "Anchor-18" 0 0 basechar 0
AnchorPoint: "Anchor-17" 431 568 basechar 0
AnchorPoint: "Anchor-16" 359 710 basechar 0
AnchorPoint: "Anchor-15" 458 -11 basechar 0
AnchorPoint: "Anchor-14" 0 0 basechar 0
LayerCount: 2
Fore
SplineSet
190 834 m 1,0,-1
 276 704 l 1,1,-1
 253 686 l 1,2,-1
 154 805 l 1,3,-1
 190 834 l 1,0,-1
225 586 m 1,4,-1
 206 612 l 1,5,-1
 346 710 l 1,6,-1
 373 710 l 1,7,-1
 486 611 l 1,8,-1
 464 586 l 1,9,-1
 356 666 l 1,10,-1
 225 586 l 1,4,-1
410.5 521.5 m 128,-1,12
 447 511 447 511 487 490 c 1,13,-1
 432 112 l 2,14,15
 429 93 429 93 429 78 c 0,16,17
 429 57 429 57 436.5 43.5 c 128,-1,18
 444 30 444 30 463 23 c 1,19,-1
 450 -11 l 1,20,21
 419 -2 419 -2 403 16 c 128,-1,22
 387 34 387 34 387 71 c 2,23,-1
 388 86 l 1,24,25
 357 41 357 41 315.5 15 c 128,-1,26
 274 -11 274 -11 225 -11 c 0,27,28
 148 -11 148 -11 104.5 43 c 128,-1,29
 61 97 61 97 61 192 c 0,30,31
 61 270 61 270 88.5 348.5 c 128,-1,32
 116 427 116 427 175.5 479.5 c 128,-1,33
 235 532 235 532 326 532 c 0,34,11
 374 532 374 532 410.5 521.5 c 128,-1,12
203.5 447 m 128,-1,36
 155 400 155 400 132.5 330.5 c 128,-1,37
 110 261 110 261 110 193 c 0,38,39
 110 113 110 113 141.5 71 c 128,-1,40
 173 29 173 29 230 29 c 0,41,42
 278 29 278 29 317.5 58.5 c 128,-1,43
 357 88 357 88 392 145 c 1,44,-1
 438 467 l 1,45,46
 390 494 390 494 327 494 c 0,47,35
 252 494 252 494 203.5 447 c 128,-1,36
EndSplineSet
Substitution2: "'smcp' Lowercase to Small Capitals lookup 28 subtable" uni1EA7.sc
Substitution2: "'aalt' Access All Alternates lookup 0 subtable" uni1EA7.sc
EndChar

StartChar: uni1EAB
Encoding: 7851 7851 354
Width: 556
GlyphClass: 2
Flags: W
AnchorPoint: "Anchor-18" 0 0 basechar 0
AnchorPoint: "Anchor-17" 429 558 basechar 0
AnchorPoint: "Anchor-16" 370 816 basechar 0
AnchorPoint: "Anchor-15" 458 -11 basechar 0
AnchorPoint: "Anchor-14" 0 0 basechar 0
LayerCount: 2
Fore
SplineSet
391.5 739.5 m 128,-1,1
 377 746 377 746 357 758 c 0,2,3
 343 768 343 768 332.5 772.5 c 128,-1,4
 322 777 322 777 311 777 c 0,5,6
 292 777 292 777 279.5 768.5 c 128,-1,7
 267 760 267 760 248 737 c 1,8,-1
 221 756 l 1,9,10
 265 816 265 816 311 816 c 0,11,12
 328 816 328 816 341.5 810 c 128,-1,13
 355 804 355 804 374 792 c 0,14,15
 389 782 389 782 400.5 776.5 c 128,-1,16
 412 771 412 771 424 771 c 0,17,18
 440 771 440 771 454.5 781.5 c 128,-1,19
 469 792 469 792 487 815 c 1,20,-1
 515 798 l 1,21,22
 474 733 474 733 425 733 c 0,23,0
 406 733 406 733 391.5 739.5 c 128,-1,1
223 576 m 1,24,-1
 204 602 l 1,25,-1
 344 700 l 1,26,-1
 371 700 l 1,27,-1
 484 601 l 1,28,-1
 462 576 l 1,29,-1
 354 656 l 1,30,-1
 223 576 l 1,24,-1
410.5 521.5 m 128,-1,32
 447 511 447 511 487 490 c 1,33,-1
 432 112 l 2,34,35
 429 93 429 93 429 78 c 0,36,37
 429 57 429 57 436.5 43.5 c 128,-1,38
 444 30 444 30 463 23 c 1,39,-1
 450 -11 l 1,40,41
 419 -2 419 -2 403 16 c 128,-1,42
 387 34 387 34 387 71 c 2,43,-1
 388 86 l 1,44,45
 357 41 357 41 315.5 15 c 128,-1,46
 274 -11 274 -11 225 -11 c 0,47,48
 148 -11 148 -11 104.5 43 c 128,-1,49
 61 97 61 97 61 192 c 0,50,51
 61 270 61 270 88.5 348.5 c 128,-1,52
 116 427 116 427 175.5 479.5 c 128,-1,53
 235 532 235 532 326 532 c 0,54,31
 374 532 374 532 410.5 521.5 c 128,-1,32
203.5 447 m 128,-1,56
 155 400 155 400 132.5 330.5 c 128,-1,57
 110 261 110 261 110 193 c 0,58,59
 110 113 110 113 141.5 71 c 128,-1,60
 173 29 173 29 230 29 c 0,61,62
 278 29 278 29 317.5 58.5 c 128,-1,63
 357 88 357 88 392 145 c 1,64,-1
 438 467 l 1,65,66
 390 494 390 494 327 494 c 0,67,55
 252 494 252 494 203.5 447 c 128,-1,56
EndSplineSet
Substitution2: "'smcp' Lowercase to Small Capitals lookup 28 subtable" uni1EAB.sc
Substitution2: "'aalt' Access All Alternates lookup 0 subtable" uni1EAB.sc
EndChar

StartChar: uni0251
Encoding: 593 593 364
Width: 556
GlyphClass: 2
Flags: W
AnchorPoint: "Anchor-18" 0 0 basechar 0
AnchorPoint: "Anchor-17" 0 0 basechar 0
AnchorPoint: "Anchor-16" 316 522 basechar 0
AnchorPoint: "Anchor-15" 0 0 basechar 0
AnchorPoint: "Anchor-14" 242 0 basechar 0
LayerCount: 2
Fore
SplineSet
429 78 m 0,1,2
 429 57 429 57 436.5 43.5 c 128,-1,3
 444 30 444 30 463 23 c 1,4,-1
 450 -11 l 1,5,6
 419 -2 419 -2 403 16 c 128,-1,7
 387 34 387 34 387 71 c 2,8,-1
 388 86 l 1,9,10
 357 41 357 41 315.5 15 c 128,-1,11
 274 -11 274 -11 225 -11 c 0,12,13
 147 -11 147 -11 104 43 c 128,-1,14
 61 97 61 97 61 192 c 0,15,16
 61 270 61 270 90 349 c 128,-1,17
 119 428 119 428 175 480 c 128,-1,18
 231 532 231 532 309 532 c 0,19,20
 404 532 404 532 439 449 c 1,21,-1
 457 522 l 1,22,-1
 493 522 l 1,23,-1
 432 112 l 2,24,0
 429 93 429 93 429 78 c 0,1,2
429 390 m 1,25,26
 413 446 413 446 382.5 469.5 c 128,-1,27
 352 493 352 493 308 493 c 0,28,29
 245 493 245 493 200.5 447 c 128,-1,30
 156 401 156 401 133 331.5 c 128,-1,31
 110 262 110 262 110 193 c 0,32,33
 110 113 110 113 141.5 71 c 128,-1,34
 173 29 173 29 231 29 c 0,35,36
 279 29 279 29 318.5 58.5 c 128,-1,37
 358 88 358 88 393 145 c 1,38,-1
 429 390 l 1,25,26
EndSplineSet
Substitution2: "'smcp' Lowercase to Small Capitals lookup 28 subtable" uni0251.sc
Substitution2: "'aalt' Access All Alternates lookup 0 subtable" uni0251.sc
EndChar

StartChar: uni0252
Encoding: 594 594 365
Width: 556
GlyphClass: 2
Flags: W
AnchorPoint: "Anchor-18" 0 0 basechar 0
AnchorPoint: "Anchor-17" 0 0 basechar 0
AnchorPoint: "Anchor-16" 315 522 basechar 0
AnchorPoint: "Anchor-15" 0 0 basechar 0
AnchorPoint: "Anchor-14" 241 0 basechar 0
LayerCount: 2
Fore
SplineSet
452 479 m 128,-1,1
 495 425 495 425 495 330 c 0,2,3
 495 252 495 252 466 173 c 128,-1,4
 437 94 437 94 381 42 c 128,-1,5
 325 -10 325 -10 247 -10 c 0,6,7
 152 -10 152 -10 117 73 c 1,8,-1
 99 0 l 1,9,-1
 63 0 l 1,10,-1
 124 410 l 2,11,12
 127 430 127 430 127 444 c 0,13,14
 127 465 127 465 119.5 478.5 c 128,-1,15
 112 492 112 492 93 499 c 1,16,-1
 106 533 l 1,17,18
 137 524 137 524 153 506 c 128,-1,19
 169 488 169 488 169 451 c 2,20,-1
 168 436 l 1,21,22
 199 481 199 481 240.5 507 c 128,-1,23
 282 533 282 533 331 533 c 0,24,0
 409 533 409 533 452 479 c 128,-1,1
355.5 75 m 128,-1,26
 400 121 400 121 423 190.5 c 128,-1,27
 446 260 446 260 446 329 c 0,28,29
 446 409 446 409 414.5 451 c 128,-1,30
 383 493 383 493 325 493 c 0,31,32
 277 493 277 493 237.5 463.5 c 128,-1,33
 198 434 198 434 163 377 c 1,34,-1
 127 132 l 1,35,36
 143 76 143 76 173.5 52.5 c 128,-1,37
 204 29 204 29 248 29 c 0,38,25
 311 29 311 29 355.5 75 c 128,-1,26
EndSplineSet
EndChar

StartChar: aogonek
Encoding: 261 261 367
Width: 556
GlyphClass: 2
Flags: W
AnchorPoint: "Anchor-18" 0 0 basechar 0
AnchorPoint: "Anchor-17" 0 0 basechar 0
AnchorPoint: "Anchor-16" 338 522 basechar 0
AnchorPoint: "Anchor-15" 458 -11 basechar 0
AnchorPoint: "Anchor-14" 269 0 basechar 0
LayerCount: 2
Fore
SplineSet
429 78 m 0,1,2
 429 57 429 57 436.5 43.5 c 128,-1,3
 444 30 444 30 463 23 c 1,4,-1
 450 -11 l 1,5,-1
 449 -11 l 1,6,-1
 449 -11 l 1,7,8
 376 -42 376 -42 342.5 -70.5 c 128,-1,9
 309 -99 309 -99 309 -135 c 0,10,11
 309 -183 309 -183 367 -183 c 0,12,13
 391 -183 391 -183 424 -177 c 1,14,-1
 416 -218 l 1,15,16
 386 -224 386 -224 361 -224 c 0,17,18
 314 -224 314 -224 289 -202.5 c 128,-1,19
 264 -181 264 -181 264 -147 c 0,20,21
 264 -97 264 -97 300 -62 c 128,-1,22
 336 -27 336 -27 418 3 c 1,23,24
 387 24 387 24 387 70 c 0,25,26
 387 80 387 80 388 86 c 1,27,28
 357 41 357 41 315.5 15 c 128,-1,29
 274 -11 274 -11 225 -11 c 0,30,31
 148 -11 148 -11 104.5 43 c 128,-1,32
 61 97 61 97 61 192 c 0,33,34
 61 270 61 270 88.5 348.5 c 128,-1,35
 116 427 116 427 175.5 479.5 c 128,-1,36
 235 532 235 532 326 532 c 0,37,38
 374 532 374 532 410.5 521.5 c 128,-1,39
 447 511 447 511 487 490 c 1,40,-1
 432 112 l 2,41,0
 429 93 429 93 429 78 c 0,1,2
438 467 m 1,42,43
 390 494 390 494 327 494 c 0,44,45
 252 494 252 494 203.5 447 c 128,-1,46
 155 400 155 400 132.5 330.5 c 128,-1,47
 110 261 110 261 110 193 c 0,48,49
 110 113 110 113 141.5 71 c 128,-1,50
 173 29 173 29 230 29 c 0,51,52
 278 29 278 29 317.5 58.5 c 128,-1,53
 357 88 357 88 392 145 c 1,54,-1
 438 467 l 1,42,43
EndSplineSet
Substitution2: "'smcp' Lowercase to Small Capitals lookup 28 subtable" aogonek.sc
Substitution2: "'aalt' Access All Alternates lookup 0 subtable" aogonek.sc
EndChar

StartChar: uni2C65
Encoding: 11365 11365 370
Width: 556
GlyphClass: 2
Flags: W
AnchorPoint: "Anchor-18" 0 0 basechar 0
AnchorPoint: "Anchor-17" 0 0 basechar 0
AnchorPoint: "Anchor-16" 315 522 basechar 0
AnchorPoint: "Anchor-15" 0 0 basechar 0
AnchorPoint: "Anchor-14" 242 0 basechar 0
LayerCount: 2
Fore
SplineSet
429 78 m 0,1,2
 429 56 429 56 436.5 43 c 128,-1,3
 444 30 444 30 463 23 c 1,4,-1
 450 -11 l 1,5,6
 416 -3 416 -3 400.5 18 c 128,-1,7
 385 39 385 39 388 86 c 1,8,9
 357 41 357 41 315.5 15 c 128,-1,10
 274 -11 274 -11 225 -11 c 0,11,12
 196 -11 196 -11 175 -4 c 1,13,-1
 148 -70 l 1,14,-1
 122 -63 l 1,15,-1
 150 6 l 1,16,17
 107 28 107 28 84 75.5 c 128,-1,18
 61 123 61 123 61 192 c 0,19,20
 61 270 61 270 88.5 348.5 c 128,-1,21
 116 427 116 427 175.5 479.5 c 128,-1,22
 235 532 235 532 326 532 c 0,23,24
 341 532 341 532 367 530 c 1,25,-1
 392 591 l 1,26,-1
 418 583 l 1,27,-1
 394 525 l 1,28,29
 435 517 435 517 487 490 c 1,30,-1
 432 112 l 2,31,0
 429 93 429 93 429 78 c 0,1,2
167 46 m 1,33,-1
 352 493 l 1,34,35
 344 494 344 494 327 494 c 0,36,37
 252 494 252 494 203.5 447 c 128,-1,38
 155 400 155 400 132.5 330.5 c 128,-1,39
 110 261 110 261 110 193 c 0,40,32
 110 85 110 85 167 46 c 1,33,-1
438 467 m 1,41,42
 412 482 412 482 379 489 c 1,43,-1
 191 35 l 1,44,45
 209 29 209 29 230 29 c 0,46,47
 278 29 278 29 317.5 58.5 c 128,-1,48
 357 88 357 88 392 145 c 1,49,-1
 438 467 l 1,41,42
EndSplineSet
Substitution2: "'smcp' Lowercase to Small Capitals lookup 28 subtable" uni2C65.sc
Substitution2: "'aalt' Access All Alternates lookup 0 subtable" uni2C65.sc
EndChar

StartChar: uni0250
Encoding: 592 592 372
Width: 521
GlyphClass: 2
Flags: W
AnchorPoint: "Anchor-18" 0 0 basechar 0
AnchorPoint: "Anchor-17" 0 0 basechar 0
AnchorPoint: "Anchor-16" 300 522 basechar 0
AnchorPoint: "Anchor-15" 0 0 basechar 0
AnchorPoint: "Anchor-14" 226 0 basechar 0
LayerCount: 2
Fore
SplineSet
134 154 m 2,0,1
 132 142 132 142 132 120 c 0,2,3
 132 73 132 73 156.5 51.5 c 128,-1,4
 181 30 181 30 237 30 c 0,5,6
 273 30 273 30 307.5 38 c 128,-1,7
 342 46 342 46 383 61 c 1,8,-1
 395 24 l 1,9,10
 349 6 349 6 310.5 -2.5 c 128,-1,11
 272 -11 272 -11 231 -11 c 0,12,13
 85 -11 85 -11 85 115 c 0,14,15
 85 134 85 134 88 153 c 2,16,-1
 124 410 l 2,17,18
 127 430 127 430 127 445 c 0,19,20
 127 466 127 466 119.5 479 c 128,-1,21
 112 492 112 492 93 499 c 1,22,-1
 107 533 l 1,23,24
 139 523 139 523 155 503 c 128,-1,25
 171 483 171 483 169 443 c 1,26,27
 205 489 205 489 247 510.5 c 128,-1,28
 289 532 289 532 342 532 c 0,29,30
 410 532 410 532 447.5 496 c 128,-1,31
 485 460 485 460 485 399 c 0,32,33
 485 309 485 309 419.5 259 c 128,-1,34
 354 209 354 209 250 209 c 2,35,-1
 142 209 l 1,36,-1
 134 154 l 2,0,1
147 246 m 1,37,-1
 247 246 l 2,38,39
 334 246 334 246 385.5 286 c 128,-1,40
 437 326 437 326 437 398 c 0,41,42
 437 445 437 445 410.5 469.5 c 128,-1,43
 384 494 384 494 336 494 c 0,44,45
 237 494 237 494 167 392 c 1,46,-1
 147 246 l 1,37,-1
EndSplineSet
EndChar

StartChar: ae
Encoding: 230 230 373
Width: 818
GlyphClass: 2
Flags: W
AnchorPoint: "Anchor-18" 0 0 basechar 0
AnchorPoint: "Anchor-17" 0 0 basechar 0
AnchorPoint: "Anchor-16" 446 522 basechar 0
AnchorPoint: "Anchor-15" 0 0 basechar 0
AnchorPoint: "Anchor-14" 373 0 basechar 0
LayerCount: 2
Fore
SplineSet
389 502.5 m 128,-1,1
 427 473 427 473 438 424 c 1,2,3
 460 466 460 466 513 499 c 128,-1,4
 566 532 566 532 631 532 c 0,5,6
 701 532 701 532 742.5 497.5 c 128,-1,7
 784 463 784 463 784 408 c 0,8,9
 784 316 784 316 688 269 c 128,-1,10
 592 222 592 222 414 210 c 1,11,12
 414 30 414 30 556 30 c 0,13,14
 598 30 598 30 632 43 c 128,-1,15
 666 56 666 56 706 84 c 1,16,-1
 728 51 l 1,17,18
 686 20 686 20 644 4.5 c 128,-1,19
 602 -11 602 -11 554 -11 c 0,20,21
 492 -11 492 -11 448 17 c 128,-1,22
 404 45 404 45 385 98 c 1,23,24
 338 39 338 39 289 14 c 128,-1,25
 240 -11 240 -11 184 -11 c 0,26,27
 116 -11 116 -11 76 26 c 128,-1,28
 36 63 36 63 36 125 c 0,29,30
 36 201 36 201 93 251.5 c 128,-1,31
 150 302 150 302 272 302 c 2,32,-1
 381 302 l 1,33,34
 394 352 394 352 406 382 c 1,35,36
 404 432 404 432 371 462.5 c 128,-1,37
 338 493 338 493 281 493 c 0,38,39
 246 493 246 493 212 485.5 c 128,-1,40
 178 478 178 478 136 462 c 1,41,-1
 125 499 l 1,42,43
 211 532 211 532 284 532 c 0,44,0
 351 532 351 532 389 502.5 c 128,-1,1
521 457.5 m 128,-1,46
 475 422 475 422 450 366 c 128,-1,47
 425 310 425 310 417 247 c 1,48,49
 577 259 577 259 656.5 297 c 128,-1,50
 736 335 736 335 736 406 c 0,51,52
 736 444 736 444 709 468.5 c 128,-1,53
 682 493 682 493 631 493 c 0,54,45
 567 493 567 493 521 457.5 c 128,-1,46
275 266 m 2,55,56
 176 266 176 266 130.5 228 c 128,-1,57
 85 190 85 190 85 125 c 0,58,59
 85 78 85 78 112.5 53 c 128,-1,60
 140 28 140 28 188 28 c 0,61,62
 239 28 239 28 284.5 54.5 c 128,-1,63
 330 81 330 81 374 138 c 1,64,65
 369 168 369 168 369 201 c 256,66,67
 369 234 369 234 374 266 c 1,68,-1
 275 266 l 2,55,56
EndSplineSet
Substitution2: "'smcp' Lowercase to Small Capitals lookup 28 subtable" ae.sc
Substitution2: "'aalt' Access All Alternates lookup 0 subtable" ae.sc
EndChar

StartChar: b
Encoding: 98 98 376
Width: 569
GlyphClass: 2
Flags: W
AnchorPoint: "Anchor-18" 0 0 basechar 0
AnchorPoint: "Anchor-17" 0 0 basechar 0
AnchorPoint: "Anchor-16" 361 735 basechar 0
AnchorPoint: "Anchor-15" 0 0 basechar 0
AnchorPoint: "Anchor-14" 248 0 basechar 0
LayerCount: 2
Fore
SplineSet
468 482 m 128,-1,1
 509 432 509 432 509 337 c 0,2,3
 509 257 509 257 482.5 177.5 c 128,-1,4
 456 98 456 98 396.5 43.5 c 128,-1,5
 337 -11 337 -11 243 -11 c 0,6,7
 200 -11 200 -11 163 -3 c 128,-1,8
 126 5 126 5 76 23 c 1,9,-1
 177 735 l 1,10,-1
 223 741 l 1,11,-1
 183 451 l 1,12,13
 259 532 259 532 352 532 c 0,14,0
 427 532 427 532 468 482 c 128,-1,1
256 469 m 128,-1,16
 217 445 217 445 176 400 c 1,17,-1
 128 52 l 1,18,19
 155 40 155 40 181.5 34.5 c 128,-1,20
 208 29 208 29 244 29 c 0,21,22
 322 29 322 29 371 78.5 c 128,-1,23
 420 128 420 128 441 199 c 128,-1,24
 462 270 462 270 462 339 c 0,25,26
 462 416 462 416 431.5 454.5 c 128,-1,27
 401 493 401 493 345 493 c 0,28,15
 295 493 295 493 256 469 c 128,-1,16
EndSplineSet
Substitution2: "'smcp' Lowercase to Small Capitals lookup 28 subtable" b.sc
Substitution2: "'aalt' Access All Alternates lookup 0 subtable" b.sc
EndChar

StartChar: uni0253
Encoding: 595 595 380
Width: 569
GlyphClass: 2
Flags: W
AnchorPoint: "Anchor-18" 0 0 basechar 0
AnchorPoint: "Anchor-17" 0 0 basechar 0
AnchorPoint: "Anchor-16" 347 735 basechar 0
AnchorPoint: "Anchor-15" 0 0 basechar 0
AnchorPoint: "Anchor-14" 249 0 basechar 0
LayerCount: 2
Fore
SplineSet
468.5 482 m 128,-1,1
 509 432 509 432 509 337 c 0,2,3
 509 257 509 257 483 177.5 c 128,-1,4
 457 98 457 98 397 43.5 c 128,-1,5
 337 -11 337 -11 243 -11 c 0,6,7
 200 -11 200 -11 163 -3 c 128,-1,8
 126 5 126 5 76 23 c 1,9,-1
 146 521 l 1,10,-1
 159 614 l 2,11,12
 168 674 168 674 209 707.5 c 128,-1,13
 250 741 250 741 313 741 c 0,14,15
 375 741 375 741 431 712 c 1,16,-1
 411 678 l 1,17,18
 362 701 362 701 315 701 c 0,19,20
 218 701 218 701 205 608 c 2,21,-1
 192 521 l 1,22,-1
 193 521 l 1,23,-1
 183 451 l 1,24,25
 259 532 259 532 352 532 c 0,26,0
 428 532 428 532 468.5 482 c 128,-1,1
371 78.5 m 128,-1,28
 420 128 420 128 441 199.5 c 128,-1,29
 462 271 462 271 462 340 c 0,30,31
 462 493 462 493 344 493 c 0,32,33
 295 493 295 493 256 469 c 128,-1,34
 217 445 217 445 176 400 c 1,35,-1
 128 52 l 1,36,37
 155 40 155 40 181.5 34.5 c 128,-1,38
 208 29 208 29 244 29 c 0,39,27
 322 29 322 29 371 78.5 c 128,-1,28
EndSplineSet
Substitution2: "'smcp' Lowercase to Small Capitals lookup 28 subtable" uni0253.sc
Substitution2: "'aalt' Access All Alternates lookup 0 subtable" uni0253.sc
EndChar

StartChar: uni02AD
Encoding: 685 685 381
Width: 320
GlyphClass: 2
Flags: W
AnchorPoint: "Anchor-18" 0 0 basechar 0
AnchorPoint: "Anchor-17" 0 0 basechar 0
AnchorPoint: "Anchor-16" 141 126 basechar 0
AnchorPoint: "Anchor-15" 0 0 basechar 0
AnchorPoint: "Anchor-14" 0 0 basechar 0
LayerCount: 2
Fore
SplineSet
309 400 m 1,0,-1
 270 400 l 1,1,-1
 283 490 l 1,2,-1
 102 490 l 1,3,-1
 89 400 l 1,4,-1
 50 400 l 1,5,-1
 68 526 l 1,6,-1
 327 526 l 1,7,-1
 309 400 l 1,0,-1
252 0 m 1,8,-1
 213 0 l 1,9,-1
 226 90 l 1,10,-1
 45 90 l 1,11,-1
 32 0 l 1,12,-1
 -7 0 l 1,13,-1
 11 126 l 1,14,-1
 270 126 l 1,15,-1
 252 0 l 1,8,-1
EndSplineSet
EndChar

